<ttFont>
    <TTGlyph name=".notdef" xMin="106" yMin="0" xMax="494" yMax="700">
      <contour>
        <pt x="106" y="700" on="1"/>
        <pt x="494" y="700" on="1"/>
        <pt x="494" y="0" on="1"/>
        <pt x="106" y="0" on="1"/>
      </contour>
      <contour>
        <pt x="426" y="68" on="1"/>
        <pt x="426" y="632" on="1"/>
        <pt x="174" y="632" on="1"/>
        <pt x="174" y="68" on="1"/>
      </contour>
    </TTGlyph>
    <TTGlyph name="A" xMin="10" yMin="-10" xMax="658" yMax="700">
      <contour>
        <pt x="10" y="25" on="1"/>
        <pt x="284" y="700" on="1"/>
        <pt x="388" y="700" on="1"/>
        <pt x="658" y="25" on="1"/>
        <pt x="571" y="-10" on="1"/>
        <pt x="493" y="190" on="1"/>
        <pt x="169" y="190" on="1"/>
        <pt x="91" y="-8" on="1"/>
      </contour>
      <contour>
        <pt x="199" y="270" on="1"/>
        <pt x="462" y="270" on="1"/>
        <pt x="331" y="606" on="1"/>
      </contour>
    </TTGlyph>
    <TTGlyph name="AE" xMin="5" yMin="-9" xMax="873" yMax="700">
      <contour>
        <pt x="5" y="39" on="1"/>
        <pt x="420" y="700" on="1"/>
        <pt x="873" y="700" on="1"/>
        <pt x="873" y="618" on="1"/>
        <pt x="555" y="618" on="1"/>
        <pt x="555" y="405" on="1"/>
        <pt x="828" y="405" on="1"/>
        <pt x="828" y="325" on="1"/>
        <pt x="555" y="325" on="1"/>
        <pt x="555" y="82" on="1"/>
        <pt x="873" y="82" on="1"/>
        <pt x="873" y="0" on="1"/>
        <pt x="463" y="0" on="1"/>
        <pt x="463" y="190" on="1"/>
        <pt x="204" y="190" on="1"/>
        <pt x="82" y="-9" on="1"/>
      </contour>
      <contour>
        <pt x="253" y="270" on="1"/>
        <pt x="463" y="270" on="1"/>
        <pt x="463" y="611" on="1"/>
      </contour>
    </TTGlyph>
    <TTGlyph name="Aacute" xMin="10" yMin="-10" xMax="658" yMax="920">
      <component glyphName="A" x="0" y="0" flags="0x204"/>
      <component glyphName="acute.cap" x="175" y="180" flags="0x4"/>
    </TTGlyph>
    <TTGlyph name="Acircumflex" xMin="10" yMin="-10" xMax="658" yMax="900">
      <component glyphName="A" x="0" y="0" flags="0x204"/>
      <component glyphName="circumflex.cap" x="104" y="170" flags="0x4"/>
    </TTGlyph>
    <TTGlyph name="Adieresis" xMin="10" yMin="-10" xMax="658" yMax="880">
      <component glyphName="A" x="0" y="0" flags="0x204"/>
      <component glyphName="dieresis.cap" x="135" y="183" flags="0x4"/>
    </TTGlyph>
    <TTGlyph name="Agrave" xMin="10" yMin="-10" xMax="658" yMax="920">
      <component glyphName="A" x="0" y="0" flags="0x204"/>
      <component glyphName="grave.cap" x="180" y="180" flags="0x4"/>
    </TTGlyph>
    <TTGlyph name="Aring" xMin="10" yMin="-10" xMax="658" yMax="878">
      <contour>
        <pt x="209" y="758" on="1"/>
        <pt x="209" y="784" on="0"/>
        <pt x="229" y="828" on="0"/>
        <pt x="263" y="860" on="0"/>
        <pt x="308" y="878" on="0"/>
        <pt x="334" y="878" on="1"/>
        <pt x="359" y="878" on="0"/>
        <pt x="405" y="860" on="0"/>
        <pt x="439" y="828" on="0"/>
        <pt x="459" y="784" on="0"/>
        <pt x="459" y="758" on="1"/>
        <pt x="459" y="725" on="0"/>
        <pt x="429" y="674" on="0"/>
        <pt x="404" y="658" on="1"/>
        <pt x="658" y="25" on="1"/>
        <pt x="571" y="-10" on="1"/>
        <pt x="493" y="190" on="1"/>
        <pt x="169" y="190" on="1"/>
        <pt x="91" y="-8" on="1"/>
        <pt x="10" y="25" on="1"/>
        <pt x="266" y="656" on="1"/>
        <pt x="240" y="671" on="0"/>
        <pt x="209" y="724" on="0"/>
      </contour>
      <contour>
        <pt x="199" y="270" on="1"/>
        <pt x="462" y="270" on="1"/>
        <pt x="331" y="606" on="1"/>
      </contour>
      <contour>
        <pt x="286" y="758" on="1"/>
        <pt x="286" y="735" on="0"/>
        <pt x="309" y="702" on="0"/>
        <pt x="329" y="700" on="1"/>
        <pt x="338" y="700" on="1"/>
        <pt x="358" y="702" on="0"/>
        <pt x="382" y="732" on="0"/>
        <pt x="382" y="758" on="1"/>
        <pt x="382" y="781" on="0"/>
        <pt x="357" y="816" on="0"/>
        <pt x="334" y="816" on="1"/>
        <pt x="312" y="816" on="0"/>
        <pt x="286" y="787" on="0"/>
      </contour>
    </TTGlyph>
    <TTGlyph name="Atilde" xMin="10" yMin="-10" xMax="658" yMax="872">
      <component glyphName="A" x="0" y="0" flags="0x204"/>
      <component glyphName="tilde.cap" x="123" y="180" flags="0x4"/>
    </TTGlyph>
    <TTGlyph name="B" xMin="90" yMin="-8" xMax="585" yMax="708">
      <contour>
        <pt x="90" y="698" on="1"/>
        <pt x="125" y="702" on="0"/>
        <pt x="228" y="708" on="0"/>
        <pt x="296" y="708" on="1"/>
        <pt x="425" y="708" on="0"/>
        <pt x="562" y="612" on="0"/>
        <pt x="562" y="528" on="1"/>
        <pt x="562" y="472" on="0"/>
        <pt x="504" y="396" on="0"/>
        <pt x="447" y="371" on="1"/>
        <pt x="515" y="347" on="0"/>
        <pt x="585" y="263" on="0"/>
        <pt x="585" y="200" on="1"/>
        <pt x="585" y="104" on="0"/>
        <pt x="436" y="-8" on="0"/>
        <pt x="292" y="-8" on="1"/>
        <pt x="231" y="-8" on="0"/>
        <pt x="122" y="-3" on="0"/>
        <pt x="90" y="2" on="1"/>
      </contour>
      <contour>
        <pt x="299" y="71" on="1"/>
        <pt x="389" y="71" on="0"/>
        <pt x="488" y="135" on="0"/>
        <pt x="488" y="196" on="1"/>
        <pt x="488" y="256" on="0"/>
        <pt x="390" y="324" on="0"/>
        <pt x="299" y="324" on="1"/>
        <pt x="185" y="324" on="1"/>
        <pt x="185" y="77" on="1"/>
        <pt x="237" y="71" on="0"/>
      </contour>
      <contour>
        <pt x="295" y="398" on="1"/>
        <pt x="374" y="398" on="0"/>
        <pt x="467" y="463" on="0"/>
        <pt x="467" y="516" on="1"/>
        <pt x="467" y="573" on="0"/>
        <pt x="375" y="631" on="0"/>
        <pt x="295" y="631" on="1"/>
        <pt x="262" y="631" on="0"/>
        <pt x="208" y="628" on="0"/>
        <pt x="185" y="626" on="1"/>
        <pt x="185" y="398" on="1"/>
      </contour>
    </TTGlyph>
    <TTGlyph name="C" xMin="50" yMin="-12" xMax="554" yMax="712">
      <contour>
        <pt x="147" y="351" on="1"/>
        <pt x="147" y="288" on="0"/>
        <pt x="180" y="185" on="0"/>
        <pt x="239" y="111" on="0"/>
        <pt x="321" y="71" on="0"/>
        <pt x="370" y="71" on="1"/>
        <pt x="419" y="71" on="0"/>
        <pt x="491" y="94" on="0"/>
        <pt x="525" y="114" on="1"/>
        <pt x="554" y="35" on="1"/>
        <pt x="517" y="15" on="0"/>
        <pt x="422" y="-12" on="0"/>
        <pt x="359" y="-12" on="1"/>
        <pt x="290" y="-12" on="0"/>
        <pt x="177" y="38" on="0"/>
        <pt x="95" y="131" on="0"/>
        <pt x="50" y="264" on="0"/>
        <pt x="50" y="347" on="1"/>
        <pt x="50" y="427" on="0"/>
        <pt x="95" y="561" on="0"/>
        <pt x="179" y="658" on="0"/>
        <pt x="298" y="712" on="0"/>
        <pt x="371" y="712" on="1"/>
        <pt x="422" y="712" on="0"/>
        <pt x="503" y="693" on="0"/>
        <pt x="539" y="676" on="1"/>
        <pt x="510" y="596" on="1"/>
        <pt x="479" y="611" on="0"/>
        <pt x="414" y="629" on="0"/>
        <pt x="370" y="629" on="1"/>
        <pt x="322" y="629" on="0"/>
        <pt x="240" y="592" on="0"/>
        <pt x="180" y="520" on="0"/>
        <pt x="147" y="417" on="0"/>
      </contour>
    </TTGlyph>
    <TTGlyph name="Ccedilla" xMin="50" yMin="-244" xMax="554" yMax="712">
      <contour>
        <pt x="464" y="-148" on="1"/>
        <pt x="464" y="-167" on="0"/>
        <pt x="447" y="-201" on="0"/>
        <pt x="413" y="-228" on="0"/>
        <pt x="361" y="-244" on="0"/>
        <pt x="327" y="-244" on="1"/>
        <pt x="300" y="-244" on="0"/>
        <pt x="250" y="-235" on="0"/>
        <pt x="227" y="-224" on="1"/>
        <pt x="251" y="-161" on="1"/>
        <pt x="284" y="-178" on="0"/>
        <pt x="323" y="-178" on="1"/>
        <pt x="349" y="-178" on="0"/>
        <pt x="383" y="-160" on="0"/>
        <pt x="383" y="-141" on="1"/>
        <pt x="383" y="-123" on="0"/>
        <pt x="336" y="-95" on="0"/>
        <pt x="270" y="-95" on="1"/>
        <pt x="302" y="-7" on="1"/>
        <pt x="245" y="2" on="0"/>
        <pt x="152" y="60" on="0"/>
        <pt x="86" y="151" on="0"/>
        <pt x="50" y="273" on="0"/>
        <pt x="50" y="347" on="1"/>
        <pt x="50" y="427" on="0"/>
        <pt x="95" y="561" on="0"/>
        <pt x="179" y="658" on="0"/>
        <pt x="298" y="712" on="0"/>
        <pt x="371" y="712" on="1"/>
        <pt x="422" y="712" on="0"/>
        <pt x="503" y="693" on="0"/>
        <pt x="539" y="676" on="1"/>
        <pt x="510" y="596" on="1"/>
        <pt x="479" y="611" on="0"/>
        <pt x="414" y="629" on="0"/>
        <pt x="370" y="629" on="1"/>
        <pt x="322" y="629" on="0"/>
        <pt x="240" y="592" on="0"/>
        <pt x="180" y="520" on="0"/>
        <pt x="147" y="417" on="0"/>
        <pt x="147" y="351" on="1"/>
        <pt x="147" y="288" on="0"/>
        <pt x="180" y="185" on="0"/>
        <pt x="239" y="111" on="0"/>
        <pt x="321" y="71" on="0"/>
        <pt x="370" y="71" on="1"/>
        <pt x="419" y="71" on="0"/>
        <pt x="491" y="94" on="0"/>
        <pt x="525" y="114" on="1"/>
        <pt x="554" y="35" on="1"/>
        <pt x="519" y="15" on="0"/>
        <pt x="428" y="-10" on="0"/>
        <pt x="368" y="-12" on="1"/>
        <pt x="352" y="-59" on="1"/>
        <pt x="403" y="-59" on="0"/>
        <pt x="464" y="-103" on="0"/>
      </contour>
    </TTGlyph>
    <TTGlyph name="D" xMin="90" yMin="-8" xMax="632" yMax="708">
      <contour>
        <pt x="90" y="698" on="1"/>
        <pt x="137" y="703" on="0"/>
        <pt x="227" y="708" on="0"/>
        <pt x="285" y="708" on="1"/>
        <pt x="375" y="708" on="0"/>
        <pt x="505" y="652" on="0"/>
        <pt x="591" y="554" on="0"/>
        <pt x="632" y="424" on="0"/>
        <pt x="632" y="351" on="1"/>
        <pt x="632" y="278" on="0"/>
        <pt x="590" y="147" on="0"/>
        <pt x="503" y="49" on="0"/>
        <pt x="368" y="-8" on="0"/>
        <pt x="274" y="-8" on="1"/>
        <pt x="217" y="-8" on="0"/>
        <pt x="132" y="-3" on="0"/>
        <pt x="90" y="2" on="1"/>
      </contour>
      <contour>
        <pt x="282" y="626" on="1"/>
        <pt x="253" y="626" on="0"/>
        <pt x="205" y="623" on="0"/>
        <pt x="185" y="621" on="1"/>
        <pt x="185" y="80" on="1"/>
        <pt x="206" y="77" on="0"/>
        <pt x="252" y="75" on="0"/>
        <pt x="277" y="75" on="1"/>
        <pt x="344" y="75" on="0"/>
        <pt x="442" y="116" on="0"/>
        <pt x="505" y="189" on="0"/>
        <pt x="535" y="290" on="0"/>
        <pt x="535" y="351" on="1"/>
        <pt x="535" y="405" on="0"/>
        <pt x="505" y="504" on="0"/>
        <pt x="443" y="581" on="0"/>
        <pt x="347" y="626" on="0"/>
      </contour>
    </TTGlyph>
    <TTGlyph name="E" xMin="90" yMin="0" xMax="510" yMax="700">
      <contour>
        <pt x="90" y="700" on="1"/>
        <pt x="510" y="700" on="1"/>
        <pt x="510" y="618" on="1"/>
        <pt x="185" y="618" on="1"/>
        <pt x="185" y="405" on="1"/>
        <pt x="465" y="405" on="1"/>
        <pt x="465" y="325" on="1"/>
        <pt x="185" y="325" on="1"/>
        <pt x="185" y="82" on="1"/>
        <pt x="510" y="82" on="1"/>
        <pt x="510" y="0" on="1"/>
        <pt x="90" y="0" on="1"/>
      </contour>
    </TTGlyph>
    <TTGlyph name="Eacute" xMin="90" yMin="0" xMax="510" yMax="920">
      <component glyphName="E" x="0" y="0" flags="0x204"/>
      <component glyphName="acute.cap" x="149" y="180" flags="0x4"/>
    </TTGlyph>
    <TTGlyph name="Ecircumflex" xMin="90" yMin="0" xMax="510" yMax="900">
      <component glyphName="E" x="0" y="0" flags="0x204"/>
      <component glyphName="circumflex.cap" x="80" y="170" flags="0x4"/>
    </TTGlyph>
    <TTGlyph name="Edieresis" xMin="90" yMin="0" xMax="510" yMax="880">
      <component glyphName="E" x="0" y="0" flags="0x204"/>
      <component glyphName="dieresis.cap" x="107" y="183" flags="0x4"/>
    </TTGlyph>
    <TTGlyph name="Egrave" xMin="90" yMin="0" xMax="510" yMax="920">
      <component glyphName="E" x="0" y="0" flags="0x204"/>
      <component glyphName="grave.cap" x="143" y="180" flags="0x4"/>
    </TTGlyph>
    <TTGlyph name="Eth" xMin="10" yMin="-8" xMax="652" yMax="708">
      <contour>
        <pt x="10" y="384" on="1"/>
        <pt x="110" y="384" on="1"/>
        <pt x="110" y="698" on="1"/>
        <pt x="157" y="703" on="0"/>
        <pt x="247" y="708" on="0"/>
        <pt x="305" y="708" on="1"/>
        <pt x="395" y="708" on="0"/>
        <pt x="525" y="652" on="0"/>
        <pt x="611" y="554" on="0"/>
        <pt x="652" y="424" on="0"/>
        <pt x="652" y="351" on="1"/>
        <pt x="652" y="278" on="0"/>
        <pt x="610" y="147" on="0"/>
        <pt x="523" y="49" on="0"/>
        <pt x="388" y="-8" on="0"/>
        <pt x="294" y="-8" on="1"/>
        <pt x="237" y="-8" on="0"/>
        <pt x="152" y="-3" on="0"/>
        <pt x="110" y="2" on="1"/>
        <pt x="110" y="304" on="1"/>
        <pt x="10" y="304" on="1"/>
      </contour>
      <contour>
        <pt x="302" y="626" on="1"/>
        <pt x="273" y="626" on="0"/>
        <pt x="225" y="623" on="0"/>
        <pt x="205" y="621" on="1"/>
        <pt x="205" y="384" on="1"/>
        <pt x="353" y="384" on="1"/>
        <pt x="353" y="304" on="1"/>
        <pt x="205" y="304" on="1"/>
        <pt x="205" y="80" on="1"/>
        <pt x="226" y="77" on="0"/>
        <pt x="272" y="75" on="0"/>
        <pt x="297" y="75" on="1"/>
        <pt x="364" y="75" on="0"/>
        <pt x="462" y="116" on="0"/>
        <pt x="525" y="189" on="0"/>
        <pt x="555" y="290" on="0"/>
        <pt x="555" y="351" on="1"/>
        <pt x="555" y="405" on="0"/>
        <pt x="525" y="504" on="0"/>
        <pt x="463" y="581" on="0"/>
        <pt x="367" y="626" on="0"/>
      </contour>
    </TTGlyph>
    <TTGlyph name="Euro" xMin="23" yMin="-12" xMax="576" yMax="712">
      <contour>
        <pt x="212" y="235" on="1"/>
        <pt x="233" y="157" on="0"/>
        <pt x="330" y="66" on="0"/>
        <pt x="399" y="66" on="1"/>
        <pt x="448" y="66" on="0"/>
        <pt x="515" y="93" on="0"/>
        <pt x="545" y="110" on="1"/>
        <pt x="576" y="37" on="1"/>
        <pt x="550" y="20" on="0"/>
        <pt x="453" y="-12" on="0"/>
        <pt x="390" y="-12" on="1"/>
        <pt x="281" y="-12" on="0"/>
        <pt x="140" y="119" on="0"/>
        <pt x="117" y="235" on="1"/>
        <pt x="23" y="235" on="1"/>
        <pt x="23" y="308" on="1"/>
        <pt x="110" y="308" on="1"/>
        <pt x="110" y="375" on="1"/>
        <pt x="23" y="375" on="1"/>
        <pt x="23" y="448" on="1"/>
        <pt x="116" y="448" on="1"/>
        <pt x="127" y="508" on="0"/>
        <pt x="175" y="605" on="0"/>
        <pt x="249" y="674" on="0"/>
        <pt x="346" y="712" on="0"/>
        <pt x="406" y="712" on="1"/>
        <pt x="457" y="712" on="0"/>
        <pt x="537" y="690" on="0"/>
        <pt x="569" y="673" on="1"/>
        <pt x="544" y="597" on="1"/>
        <pt x="513" y="614" on="0"/>
        <pt x="447" y="634" on="0"/>
        <pt x="409" y="634" on="1"/>
        <pt x="328" y="634" on="0"/>
        <pt x="224" y="537" on="0"/>
        <pt x="206" y="448" on="1"/>
        <pt x="461" y="448" on="1"/>
        <pt x="461" y="375" on="1"/>
        <pt x="202" y="375" on="1"/>
        <pt x="202" y="308" on="1"/>
        <pt x="441" y="308" on="1"/>
        <pt x="441" y="235" on="1"/>
      </contour>
    </TTGlyph>
    <TTGlyph name="F" xMin="90" yMin="0" xMax="505" yMax="700">
      <contour>
        <pt x="90" y="700" on="1"/>
        <pt x="505" y="700" on="1"/>
        <pt x="505" y="618" on="1"/>
        <pt x="185" y="618" on="1"/>
        <pt x="185" y="404" on="1"/>
        <pt x="452" y="404" on="1"/>
        <pt x="452" y="326" on="1"/>
        <pt x="185" y="326" on="1"/>
        <pt x="185" y="0" on="1"/>
        <pt x="90" y="0" on="1"/>
      </contour>
    </TTGlyph>
    <TTGlyph name="G" xMin="50" yMin="-12" xMax="609" yMax="712">
      <contour>
        <pt x="374" y="371" on="1"/>
        <pt x="609" y="371" on="1"/>
        <pt x="609" y="0" on="1"/>
        <pt x="525" y="0" on="1"/>
        <pt x="525" y="70" on="1"/>
        <pt x="490" y="39" on="0"/>
        <pt x="390" y="-12" on="0"/>
        <pt x="329" y="-12" on="1"/>
        <pt x="268" y="-12" on="0"/>
        <pt x="166" y="36" on="0"/>
        <pt x="92" y="126" on="0"/>
        <pt x="50" y="253" on="0"/>
        <pt x="50" y="332" on="1"/>
        <pt x="50" y="416" on="0"/>
        <pt x="93" y="555" on="0"/>
        <pt x="175" y="656" on="0"/>
        <pt x="294" y="712" on="0"/>
        <pt x="370" y="712" on="1"/>
        <pt x="436" y="712" on="0"/>
        <pt x="537" y="680" on="0"/>
        <pt x="582" y="655" on="1"/>
        <pt x="547" y="576" on="1"/>
        <pt x="505" y="599" on="0"/>
        <pt x="419" y="629" on="0"/>
        <pt x="365" y="629" on="1"/>
        <pt x="318" y="629" on="0"/>
        <pt x="238" y="591" on="0"/>
        <pt x="180" y="517" on="0"/>
        <pt x="147" y="408" on="0"/>
        <pt x="147" y="338" on="1"/>
        <pt x="147" y="275" on="0"/>
        <pt x="177" y="176" on="0"/>
        <pt x="231" y="107" on="0"/>
        <pt x="306" y="71" on="0"/>
        <pt x="351" y="71" on="1"/>
        <pt x="379" y="71" on="0"/>
        <pt x="429" y="84" on="0"/>
        <pt x="471" y="105" on="0"/>
        <pt x="506" y="130" on="0"/>
        <pt x="519" y="143" on="1"/>
        <pt x="519" y="296" on="1"/>
        <pt x="374" y="296" on="1"/>
      </contour>
    </TTGlyph>
    <TTGlyph name="H" xMin="90" yMin="0" xMax="625" yMax="700">
      <contour>
        <pt x="530" y="319" on="1"/>
        <pt x="185" y="319" on="1"/>
        <pt x="185" y="0" on="1"/>
        <pt x="90" y="0" on="1"/>
        <pt x="90" y="700" on="1"/>
        <pt x="185" y="700" on="1"/>
        <pt x="185" y="401" on="1"/>
        <pt x="530" y="401" on="1"/>
        <pt x="530" y="700" on="1"/>
        <pt x="625" y="700" on="1"/>
        <pt x="625" y="0" on="1"/>
        <pt x="530" y="0" on="1"/>
      </contour>
    </TTGlyph>
    <TTGlyph name="I" xMin="90" yMin="0" xMax="185" yMax="700">
      <contour>
        <pt x="90" y="0" on="1"/>
        <pt x="90" y="700" on="1"/>
        <pt x="185" y="700" on="1"/>
        <pt x="185" y="0" on="1"/>
      </contour>
    </TTGlyph>
    <TTGlyph name="IJ" xMin="90" yMin="-12" xMax="625" yMax="700">
      <component glyphName="I" x="0" y="0" flags="0x4"/>
      <component glyphName="J" x="275" y="0" flags="0x4"/>
    </TTGlyph>
    <TTGlyph name="Iacute" xMin="20" yMin="0" xMax="251" yMax="920">
      <component glyphName="I" x="0" y="0" flags="0x204"/>
      <component glyphName="acute.cap" x="-20" y="180" flags="0x4"/>
    </TTGlyph>
    <TTGlyph name="Icircumflex" xMin="-40" yMin="0" xMax="317" yMax="900">
      <component glyphName="I" x="0" y="0" flags="0x204"/>
      <component glyphName="circumflex.cap" x="-90" y="170" flags="0x4"/>
    </TTGlyph>
    <TTGlyph name="Idieresis" xMin="-13" yMin="0" xMax="289" yMax="880">
      <component glyphName="I" x="0" y="0" flags="0x204"/>
      <component glyphName="dieresis.cap" x="-63" y="183" flags="0x4"/>
    </TTGlyph>
    <TTGlyph name="Igrave" xMin="27" yMin="0" xMax="258" yMax="920">
      <component glyphName="I" x="0" y="0" flags="0x204"/>
      <component glyphName="grave.cap" x="-13" y="180" flags="0x4"/>
    </TTGlyph>
    <TTGlyph name="Itilde" xMin="-27" yMin="0" xMax="296" yMax="872">
      <component glyphName="I" x="0" y="0" flags="0x204"/>
      <component glyphName="tilde.cap" x="-77" y="180" flags="0x4"/>
    </TTGlyph>
    <TTGlyph name="J" xMin="0" yMin="-12" xMax="350" yMax="700">
      <contour>
        <pt x="255" y="700" on="1"/>
        <pt x="350" y="700" on="1"/>
        <pt x="350" y="231" on="1"/>
        <pt x="350" y="167" on="0"/>
        <pt x="322" y="75" on="0"/>
        <pt x="270" y="16" on="0"/>
        <pt x="198" y="-12" on="0"/>
        <pt x="154" y="-12" on="1"/>
        <pt x="108" y="-12" on="0"/>
        <pt x="27" y="20" on="0"/>
        <pt x="0" y="46" on="1"/>
        <pt x="46" y="119" on="1"/>
        <pt x="66" y="98" on="0"/>
        <pt x="122" y="70" on="0"/>
        <pt x="151" y="70" on="1"/>
        <pt x="199" y="70" on="0"/>
        <pt x="255" y="138" on="0"/>
        <pt x="255" y="221" on="1"/>
      </contour>
    </TTGlyph>
    <TTGlyph name="Jcircumflex" xMin="0" yMin="-12" xMax="480" yMax="900">
      <component glyphName="J" x="0" y="0" flags="0x204"/>
      <component glyphName="circumflex.cap" x="73" y="170" flags="0x4"/>
    </TTGlyph>
    <TTGlyph name="K" xMin="90" yMin="-12" xMax="591" yMax="703">
      <contour>
        <pt x="591" y="56" on="1"/>
        <pt x="525" y="-12" on="1"/>
        <pt x="185" y="322" on="1"/>
        <pt x="185" y="0" on="1"/>
        <pt x="90" y="0" on="1"/>
        <pt x="90" y="700" on="1"/>
        <pt x="185" y="700" on="1"/>
        <pt x="185" y="381" on="1"/>
        <pt x="483" y="703" on="1"/>
        <pt x="547" y="644" on="1"/>
        <pt x="274" y="360" on="1"/>
      </contour>
    </TTGlyph>
    <TTGlyph name="L" xMin="90" yMin="0" xMax="506" yMax="700">
      <contour>
        <pt x="506" y="0" on="1"/>
        <pt x="90" y="0" on="1"/>
        <pt x="90" y="700" on="1"/>
        <pt x="185" y="700" on="1"/>
        <pt x="185" y="85" on="1"/>
        <pt x="506" y="85" on="1"/>
      </contour>
    </TTGlyph>
    <TTGlyph name="Ldotaccent" xMin="90" yMin="0" xMax="506" yMax="700">
      <component glyphName="L" x="0" y="0" flags="0x204"/>
      <component glyphName="dotaccentcmb" x="230" y="-312" flags="0x4"/>
    </TTGlyph>
    <TTGlyph name="Lslash" xMin="5" yMin="0" xMax="519" yMax="700">
      <contour>
        <pt x="519" y="0" on="1"/>
        <pt x="103" y="0" on="1"/>
        <pt x="103" y="267" on="1"/>
        <pt x="33" y="239" on="1"/>
        <pt x="5" y="307" on="1"/>
        <pt x="103" y="346" on="1"/>
        <pt x="103" y="700" on="1"/>
        <pt x="198" y="700" on="1"/>
        <pt x="198" y="384" on="1"/>
        <pt x="408" y="469" on="1"/>
        <pt x="436" y="401" on="1"/>
        <pt x="198" y="305" on="1"/>
        <pt x="198" y="85" on="1"/>
        <pt x="519" y="85" on="1"/>
      </contour>
    </TTGlyph>
    <TTGlyph name="M" xMin="90" yMin="0" xMax="744" yMax="700">
      <contour>
        <pt x="649" y="579" on="1"/>
        <pt x="462" y="158" on="1"/>
        <pt x="368" y="158" on="1"/>
        <pt x="180" y="579" on="1"/>
        <pt x="180" y="0" on="1"/>
        <pt x="90" y="0" on="1"/>
        <pt x="90" y="700" on="1"/>
        <pt x="223" y="700" on="1"/>
        <pt x="417" y="257" on="1"/>
        <pt x="608" y="700" on="1"/>
        <pt x="744" y="700" on="1"/>
        <pt x="744" y="0" on="1"/>
        <pt x="649" y="0" on="1"/>
      </contour>
    </TTGlyph>
    <TTGlyph name="N" xMin="90" yMin="0" xMax="615" yMax="700">
      <contour>
        <pt x="180" y="578" on="1"/>
        <pt x="180" y="0" on="1"/>
        <pt x="90" y="0" on="1"/>
        <pt x="90" y="700" on="1"/>
        <pt x="216" y="700" on="1"/>
        <pt x="525" y="118" on="1"/>
        <pt x="525" y="700" on="1"/>
        <pt x="615" y="700" on="1"/>
        <pt x="615" y="0" on="1"/>
        <pt x="491" y="0" on="1"/>
      </contour>
    </TTGlyph>
    <TTGlyph name="Nacute" xMin="90" yMin="0" xMax="615" yMax="920">
      <component glyphName="N" x="0" y="0" flags="0x204"/>
      <component glyphName="acute.cap" x="213" y="180" flags="0x4"/>
    </TTGlyph>
    <TTGlyph name="Ntilde" xMin="90" yMin="0" xMax="615" yMax="872">
      <component glyphName="N" x="0" y="0" flags="0x204"/>
      <component glyphName="tilde.cap" x="143" y="180" flags="0x4"/>
    </TTGlyph>
    <TTGlyph name="O" xMin="50" yMin="-12" xMax="711" yMax="712">
      <contour>
        <pt x="50" y="351" on="1"/>
        <pt x="50" y="428" on="0"/>
        <pt x="95" y="560" on="0"/>
        <pt x="180" y="657" on="0"/>
        <pt x="302" y="712" on="0"/>
        <pt x="380" y="712" on="1"/>
        <pt x="457" y="712" on="0"/>
        <pt x="580" y="655" on="0"/>
        <pt x="665" y="557" on="0"/>
        <pt x="711" y="426" on="0"/>
        <pt x="711" y="351" on="1"/>
        <pt x="711" y="276" on="0"/>
        <pt x="666" y="144" on="0"/>
        <pt x="580" y="45" on="0"/>
        <pt x="458" y="-12" on="0"/>
        <pt x="380" y="-12" on="1"/>
        <pt x="302" y="-12" on="0"/>
        <pt x="180" y="45" on="0"/>
        <pt x="95" y="144" on="0"/>
        <pt x="50" y="276" on="0"/>
      </contour>
      <contour>
        <pt x="147" y="351" on="1"/>
        <pt x="147" y="297" on="0"/>
        <pt x="178" y="195" on="0"/>
        <pt x="238" y="117" on="0"/>
        <pt x="325" y="70" on="0"/>
        <pt x="380" y="70" on="1"/>
        <pt x="438" y="70" on="0"/>
        <pt x="525" y="113" on="0"/>
        <pt x="584" y="188" on="0"/>
        <pt x="614" y="291" on="0"/>
        <pt x="614" y="351" on="1"/>
        <pt x="614" y="405" on="0"/>
        <pt x="582" y="505" on="0"/>
        <pt x="522" y="583" on="0"/>
        <pt x="435" y="630" on="0"/>
        <pt x="380" y="630" on="1"/>
        <pt x="325" y="630" on="0"/>
        <pt x="238" y="587" on="0"/>
        <pt x="178" y="512" on="0"/>
        <pt x="147" y="410" on="0"/>
      </contour>
    </TTGlyph>
    <TTGlyph name="OE" xMin="40" yMin="-12" xMax="873" yMax="712">
      <contour>
        <pt x="370" y="712" on="1"/>
        <pt x="398" y="712" on="0"/>
        <pt x="464" y="705" on="0"/>
        <pt x="494" y="700" on="1"/>
        <pt x="873" y="700" on="1"/>
        <pt x="873" y="618" on="1"/>
        <pt x="555" y="618" on="1"/>
        <pt x="555" y="405" on="1"/>
        <pt x="828" y="405" on="1"/>
        <pt x="828" y="325" on="1"/>
        <pt x="555" y="325" on="1"/>
        <pt x="555" y="82" on="1"/>
        <pt x="873" y="82" on="1"/>
        <pt x="873" y="0" on="1"/>
        <pt x="493" y="0" on="1"/>
        <pt x="481" y="-2" on="0"/>
        <pt x="449" y="-7" on="0"/>
        <pt x="416" y="-10" on="0"/>
        <pt x="383" y="-12" on="0"/>
        <pt x="370" y="-12" on="1"/>
        <pt x="292" y="-12" on="0"/>
        <pt x="170" y="45" on="0"/>
        <pt x="85" y="144" on="0"/>
        <pt x="40" y="276" on="0"/>
        <pt x="40" y="351" on="1"/>
        <pt x="40" y="428" on="0"/>
        <pt x="85" y="560" on="0"/>
        <pt x="170" y="657" on="0"/>
        <pt x="292" y="712" on="0"/>
      </contour>
      <contour>
        <pt x="370" y="70" on="1"/>
        <pt x="396" y="70" on="0"/>
        <pt x="441" y="75" on="0"/>
        <pt x="463" y="81" on="1"/>
        <pt x="463" y="618" on="1"/>
        <pt x="439" y="625" on="0"/>
        <pt x="396" y="630" on="0"/>
        <pt x="370" y="630" on="1"/>
        <pt x="315" y="630" on="0"/>
        <pt x="228" y="587" on="0"/>
        <pt x="168" y="512" on="0"/>
        <pt x="137" y="410" on="0"/>
        <pt x="137" y="351" on="1"/>
        <pt x="137" y="297" on="0"/>
        <pt x="168" y="195" on="0"/>
        <pt x="228" y="117" on="0"/>
        <pt x="315" y="70" on="0"/>
      </contour>
    </TTGlyph>
    <TTGlyph name="Oacute" xMin="50" yMin="-12" xMax="711" yMax="920">
      <component glyphName="O" x="0" y="0" flags="0x204"/>
      <component glyphName="acute.cap" x="247" y="180" flags="0x4"/>
    </TTGlyph>
    <TTGlyph name="Ocircumflex" xMin="50" yMin="-12" xMax="711" yMax="900">
      <component glyphName="O" x="0" y="0" flags="0x204"/>
      <component glyphName="circumflex.cap" x="153" y="170" flags="0x4"/>
    </TTGlyph>
    <TTGlyph name="Odieresis" xMin="50" yMin="-12" xMax="711" yMax="880">
      <component glyphName="O" x="0" y="0" flags="0x204"/>
      <component glyphName="dieresis.cap" x="185" y="183" flags="0x4"/>
    </TTGlyph>
    <TTGlyph name="Ograve" xMin="50" yMin="-12" xMax="711" yMax="920">
      <component glyphName="O" x="0" y="0" flags="0x204"/>
      <component glyphName="grave.cap" x="229" y="180" flags="0x4"/>
    </TTGlyph>
    <TTGlyph name="Oslash" xMin="50" yMin="-118" xMax="711" yMax="809">
      <contour>
        <pt x="50" y="351" on="1"/>
        <pt x="50" y="428" on="0"/>
        <pt x="95" y="560" on="0"/>
        <pt x="180" y="657" on="0"/>
        <pt x="302" y="712" on="0"/>
        <pt x="380" y="712" on="1"/>
        <pt x="415" y="712" on="0"/>
        <pt x="476" y="699" on="0"/>
        <pt x="505" y="688" on="1"/>
        <pt x="557" y="809" on="1"/>
        <pt x="639" y="771" on="1"/>
        <pt x="574" y="650" on="1"/>
        <pt x="640" y="601" on="0"/>
        <pt x="711" y="445" on="0"/>
        <pt x="711" y="351" on="1"/>
        <pt x="711" y="276" on="0"/>
        <pt x="666" y="144" on="0"/>
        <pt x="580" y="45" on="0"/>
        <pt x="458" y="-12" on="0"/>
        <pt x="380" y="-12" on="1"/>
        <pt x="349" y="-12" on="0"/>
        <pt x="293" y="-2" on="0"/>
        <pt x="267" y="6" on="1"/>
        <pt x="214" y="-118" on="1"/>
        <pt x="132" y="-80" on="1"/>
        <pt x="196" y="41" on="1"/>
        <pt x="125" y="89" on="0"/>
        <pt x="50" y="252" on="0"/>
      </contour>
      <contour>
        <pt x="147" y="351" on="1"/>
        <pt x="147" y="284" on="0"/>
        <pt x="193" y="164" on="0"/>
        <pt x="237" y="124" on="1"/>
        <pt x="469" y="611" on="1"/>
        <pt x="429" y="630" on="0"/>
        <pt x="380" y="630" on="1"/>
        <pt x="325" y="630" on="0"/>
        <pt x="238" y="587" on="0"/>
        <pt x="178" y="512" on="0"/>
        <pt x="147" y="410" on="0"/>
      </contour>
      <contour>
        <pt x="614" y="351" on="1"/>
        <pt x="614" y="413" on="0"/>
        <pt x="572" y="527" on="0"/>
        <pt x="532" y="566" on="1"/>
        <pt x="302" y="84" on="1"/>
        <pt x="338" y="70" on="0"/>
        <pt x="380" y="70" on="1"/>
        <pt x="438" y="70" on="0"/>
        <pt x="525" y="113" on="0"/>
        <pt x="584" y="188" on="0"/>
        <pt x="614" y="291" on="0"/>
      </contour>
    </TTGlyph>
    <TTGlyph name="Otilde" xMin="50" yMin="-12" xMax="711" yMax="872">
      <component glyphName="O" x="0" y="0" flags="0x204"/>
      <component glyphName="tilde.cap" x="176" y="180" flags="0x4"/>
    </TTGlyph>
    <TTGlyph name="P" xMin="90" yMin="0" xMax="556" yMax="708">
      <contour>
        <pt x="90" y="698" on="1"/>
        <pt x="132" y="703" on="0"/>
        <pt x="229" y="708" on="0"/>
        <pt x="283" y="708" on="1"/>
        <pt x="348" y="708" on="0"/>
        <pt x="450" y="676" on="0"/>
        <pt x="520" y="620" on="0"/>
        <pt x="556" y="541" on="0"/>
        <pt x="556" y="495" on="1"/>
        <pt x="556" y="439" on="0"/>
        <pt x="513" y="352" on="0"/>
        <pt x="436" y="292" on="0"/>
        <pt x="328" y="261" on="0"/>
        <pt x="263" y="261" on="1"/>
        <pt x="221" y="261" on="0"/>
        <pt x="185" y="264" on="1"/>
        <pt x="185" y="0" on="1"/>
        <pt x="90" y="0" on="1"/>
      </contour>
      <contour>
        <pt x="275" y="340" on="1"/>
        <pt x="365" y="340" on="0"/>
        <pt x="462" y="419" on="0"/>
        <pt x="462" y="487" on="1"/>
        <pt x="462" y="552" on="0"/>
        <pt x="369" y="628" on="0"/>
        <pt x="281" y="628" on="1"/>
        <pt x="254" y="628" on="0"/>
        <pt x="206" y="626" on="0"/>
        <pt x="185" y="624" on="1"/>
        <pt x="185" y="345" on="1"/>
        <pt x="201" y="343" on="0"/>
        <pt x="246" y="340" on="0"/>
      </contour>
    </TTGlyph>
    <TTGlyph name="Q" xMin="50" yMin="-12" xMax="716" yMax="712">
      <contour>
        <pt x="50" y="351" on="1"/>
        <pt x="50" y="428" on="0"/>
        <pt x="94" y="560" on="0"/>
        <pt x="178" y="657" on="0"/>
        <pt x="298" y="712" on="0"/>
        <pt x="375" y="712" on="1"/>
        <pt x="451" y="712" on="0"/>
        <pt x="572" y="655" on="0"/>
        <pt x="656" y="557" on="0"/>
        <pt x="701" y="426" on="0"/>
        <pt x="701" y="351" on="1"/>
        <pt x="701" y="273" on="0"/>
        <pt x="657" y="158" on="0"/>
        <pt x="627" y="116" on="1"/>
        <pt x="716" y="67" on="1"/>
        <pt x="673" y="-12" on="1"/>
        <pt x="576" y="60" on="1"/>
        <pt x="538" y="29" on="0"/>
        <pt x="439" y="-12" on="0"/>
        <pt x="375" y="-12" on="1"/>
        <pt x="298" y="-12" on="0"/>
        <pt x="178" y="45" on="0"/>
        <pt x="94" y="144" on="0"/>
        <pt x="50" y="276" on="0"/>
      </contour>
      <contour>
        <pt x="429" y="153" on="1"/>
        <pt x="469" y="226" on="1"/>
        <pt x="559" y="161" on="1"/>
        <pt x="583" y="200" on="0"/>
        <pt x="604" y="292" on="0"/>
        <pt x="604" y="351" on="1"/>
        <pt x="604" y="405" on="0"/>
        <pt x="573" y="505" on="0"/>
        <pt x="514" y="583" on="0"/>
        <pt x="429" y="630" on="0"/>
        <pt x="375" y="630" on="1"/>
        <pt x="321" y="630" on="0"/>
        <pt x="236" y="588" on="0"/>
        <pt x="178" y="513" on="0"/>
        <pt x="147" y="411" on="0"/>
        <pt x="147" y="351" on="1"/>
        <pt x="147" y="297" on="0"/>
        <pt x="177" y="195" on="0"/>
        <pt x="235" y="117" on="0"/>
        <pt x="319" y="70" on="0"/>
        <pt x="373" y="70" on="1"/>
        <pt x="415" y="70" on="0"/>
        <pt x="481" y="90" on="0"/>
        <pt x="505" y="105" on="1"/>
      </contour>
    </TTGlyph>
    <TTGlyph name="R" xMin="90" yMin="-12" xMax="587" yMax="708">
      <contour>
        <pt x="498" y="-12" on="1"/>
        <pt x="411" y="178" on="1"/>
        <pt x="378" y="249" on="0"/>
        <pt x="278" y="309" on="0"/>
        <pt x="200" y="309" on="1"/>
        <pt x="185" y="309" on="1"/>
        <pt x="185" y="0" on="1"/>
        <pt x="90" y="0" on="1"/>
        <pt x="90" y="698" on="1"/>
        <pt x="144" y="703" on="0"/>
        <pt x="239" y="708" on="0"/>
        <pt x="295" y="708" on="1"/>
        <pt x="359" y="708" on="0"/>
        <pt x="455" y="681" on="0"/>
        <pt x="519" y="631" on="0"/>
        <pt x="552" y="563" on="0"/>
        <pt x="552" y="522" on="1"/>
        <pt x="552" y="449" on="0"/>
        <pt x="465" y="360" on="0"/>
        <pt x="383" y="338" on="1"/>
        <pt x="403" y="329" on="0"/>
        <pt x="437" y="306" on="0"/>
        <pt x="467" y="273" on="0"/>
        <pt x="496" y="227" on="0"/>
        <pt x="511" y="194" on="1"/>
        <pt x="587" y="30" on="1"/>
      </contour>
      <contour>
        <pt x="295" y="628" on="1"/>
        <pt x="261" y="628" on="0"/>
        <pt x="207" y="626" on="0"/>
        <pt x="185" y="624" on="1"/>
        <pt x="185" y="389" on="1"/>
        <pt x="295" y="389" on="1"/>
        <pt x="367" y="389" on="0"/>
        <pt x="457" y="453" on="0"/>
        <pt x="457" y="513" on="1"/>
        <pt x="457" y="563" on="0"/>
        <pt x="373" y="628" on="0"/>
      </contour>
    </TTGlyph>
    <TTGlyph name="Racute" xMin="90" yMin="-12" xMax="587" yMax="920">
      <component glyphName="R" x="0" y="0" flags="0x204"/>
      <component glyphName="acute.cap" x="156" y="180" flags="0x4"/>
    </TTGlyph>
    <TTGlyph name="Rcaron" xMin="90" yMin="-12" xMax="587" yMax="907">
      <component glyphName="R" x="0" y="0" flags="0x204"/>
      <component glyphName="caron.cap" x="70" y="180" flags="0x4"/>
    </TTGlyph>
    <TTGlyph name="Rcommaaccent" xMin="90" yMin="-224" xMax="587" yMax="708">
      <component glyphName="R" x="0" y="0" flags="0x204"/>
      <component glyphName="commaaccent" x="176" y="38" flags="0x4"/>
    </TTGlyph>
    <TTGlyph name="S" xMin="30" yMin="-12" xMax="518" yMax="712">
      <contour>
        <pt x="78" y="139" on="1"/>
        <pt x="114" y="109" on="0"/>
        <pt x="204" y="71" on="0"/>
        <pt x="264" y="71" on="1"/>
        <pt x="336" y="71" on="0"/>
        <pt x="420" y="131" on="0"/>
        <pt x="420" y="182" on="1"/>
        <pt x="420" y="203" on="0"/>
        <pt x="408" y="239" on="0"/>
        <pt x="373" y="272" on="0"/>
        <pt x="310" y="305" on="0"/>
        <pt x="260" y="324" on="1"/>
        <pt x="206" y="345" on="0"/>
        <pt x="131" y="386" on="0"/>
        <pt x="85" y="435" on="0"/>
        <pt x="65" y="494" on="0"/>
        <pt x="65" y="532" on="1"/>
        <pt x="65" y="569" on="0"/>
        <pt x="96" y="635" on="0"/>
        <pt x="157" y="684" on="0"/>
        <pt x="246" y="712" on="0"/>
        <pt x="303" y="712" on="1"/>
        <pt x="365" y="712" on="0"/>
        <pt x="463" y="687" on="0"/>
        <pt x="511" y="664" on="1"/>
        <pt x="476" y="583" on="1"/>
        <pt x="442" y="603" on="0"/>
        <pt x="351" y="630" on="0"/>
        <pt x="301" y="630" on="1"/>
        <pt x="235" y="630" on="0"/>
        <pt x="159" y="579" on="0"/>
        <pt x="159" y="537" on="1"/>
        <pt x="159" y="517" on="0"/>
        <pt x="170" y="486" on="0"/>
        <pt x="203" y="457" on="0"/>
        <pt x="262" y="427" on="0"/>
        <pt x="311" y="409" on="1"/>
        <pt x="369" y="387" on="0"/>
        <pt x="449" y="341" on="0"/>
        <pt x="497" y="289" on="0"/>
        <pt x="518" y="229" on="0"/>
        <pt x="518" y="193" on="1"/>
        <pt x="518" y="144" on="0"/>
        <pt x="480" y="68" on="0"/>
        <pt x="413" y="15" on="0"/>
        <pt x="319" y="-12" on="0"/>
        <pt x="264" y="-12" on="1"/>
        <pt x="191" y="-12" on="0"/>
        <pt x="71" y="27" on="0"/>
        <pt x="30" y="59" on="1"/>
      </contour>
    </TTGlyph>
    <TTGlyph name="T" xMin="10" yMin="0" xMax="535" yMax="700">
      <contour>
        <pt x="10" y="700" on="1"/>
        <pt x="535" y="700" on="1"/>
        <pt x="535" y="616" on="1"/>
        <pt x="320" y="616" on="1"/>
        <pt x="320" y="0" on="1"/>
        <pt x="225" y="0" on="1"/>
        <pt x="225" y="616" on="1"/>
        <pt x="10" y="616" on="1"/>
      </contour>
    </TTGlyph>
    <TTGlyph name="Thorn" xMin="90" yMin="0" xMax="557" yMax="700">
      <contour>
        <pt x="90" y="0" on="1"/>
        <pt x="90" y="700" on="1"/>
        <pt x="185" y="700" on="1"/>
        <pt x="185" y="579" on="1"/>
        <pt x="231" y="582" on="0"/>
        <pt x="283" y="582" on="1"/>
        <pt x="349" y="582" on="0"/>
        <pt x="451" y="550" on="0"/>
        <pt x="521" y="494" on="0"/>
        <pt x="557" y="415" on="0"/>
        <pt x="557" y="369" on="1"/>
        <pt x="557" y="313" on="0"/>
        <pt x="514" y="225" on="0"/>
        <pt x="437" y="165" on="0"/>
        <pt x="329" y="134" on="0"/>
        <pt x="263" y="134" on="1"/>
        <pt x="236" y="134" on="0"/>
        <pt x="199" y="135" on="0"/>
        <pt x="185" y="136" on="1"/>
        <pt x="185" y="0" on="1"/>
      </contour>
      <contour>
        <pt x="281" y="502" on="1"/>
        <pt x="254" y="502" on="0"/>
        <pt x="206" y="500" on="0"/>
        <pt x="185" y="498" on="1"/>
        <pt x="185" y="218" on="1"/>
        <pt x="196" y="216" on="0"/>
        <pt x="235" y="214" on="0"/>
        <pt x="275" y="214" on="1"/>
        <pt x="365" y="214" on="0"/>
        <pt x="462" y="293" on="0"/>
        <pt x="462" y="361" on="1"/>
        <pt x="462" y="426" on="0"/>
        <pt x="369" y="502" on="0"/>
      </contour>
    </TTGlyph>
    <TTGlyph name="U" xMin="75" yMin="-12" xMax="595" yMax="700">
      <contour>
        <pt x="503" y="700" on="1"/>
        <pt x="595" y="700" on="1"/>
        <pt x="595" y="270" on="1"/>
        <pt x="595" y="204" on="0"/>
        <pt x="558" y="99" on="0"/>
        <pt x="489" y="26" on="0"/>
        <pt x="393" y="-12" on="0"/>
        <pt x="334" y="-12" on="1"/>
        <pt x="212" y="-12" on="0"/>
        <pt x="75" y="131" on="0"/>
        <pt x="75" y="266" on="1"/>
        <pt x="75" y="700" on="1"/>
        <pt x="170" y="700" on="1"/>
        <pt x="170" y="281" on="1"/>
        <pt x="170" y="180" on="0"/>
        <pt x="251" y="71" on="0"/>
        <pt x="334" y="71" on="1"/>
        <pt x="419" y="71" on="0"/>
        <pt x="503" y="178" on="0"/>
        <pt x="503" y="281" on="1"/>
      </contour>
    </TTGlyph>
    <TTGlyph name="Uacute" xMin="75" yMin="-12" xMax="595" yMax="920">
      <component glyphName="U" x="0" y="0" flags="0x204"/>
      <component glyphName="acute.cap" x="195" y="180" flags="0x4"/>
    </TTGlyph>
    <TTGlyph name="Ucircumflex" xMin="75" yMin="-12" xMax="595" yMax="900">
      <component glyphName="U" x="0" y="0" flags="0x204"/>
      <component glyphName="circumflex.cap" x="108" y="170" flags="0x4"/>
    </TTGlyph>
    <TTGlyph name="Udieresis" xMin="75" yMin="-12" xMax="595" yMax="880">
      <component glyphName="U" x="0" y="0" flags="0x204"/>
      <component glyphName="dieresis.cap" x="136" y="183" flags="0x4"/>
    </TTGlyph>
    <TTGlyph name="Ugrave" xMin="75" yMin="-12" xMax="595" yMax="920">
      <component glyphName="U" x="0" y="0" flags="0x204"/>
      <component glyphName="grave.cap" x="177" y="180" flags="0x4"/>
    </TTGlyph>
    <TTGlyph name="V" xMin="10" yMin="0" xMax="630" yMax="711">
      <contour>
        <pt x="10" y="675" on="1"/>
        <pt x="103" y="711" on="1"/>
        <pt x="323" y="104" on="1"/>
        <pt x="544" y="708" on="1"/>
        <pt x="630" y="675" on="1"/>
        <pt x="374" y="0" on="1"/>
        <pt x="267" y="0" on="1"/>
      </contour>
    </TTGlyph>
    <TTGlyph name="W" xMin="15" yMin="0" xMax="928" yMax="707">
      <contour>
        <pt x="15" y="677" on="1"/>
        <pt x="109" y="707" on="1"/>
        <pt x="267" y="101" on="1"/>
        <pt x="416" y="627" on="1"/>
        <pt x="535" y="627" on="1"/>
        <pt x="683" y="101" on="1"/>
        <pt x="840" y="704" on="1"/>
        <pt x="928" y="677" on="1"/>
        <pt x="739" y="0" on="1"/>
        <pt x="621" y="0" on="1"/>
        <pt x="473" y="526" on="1"/>
        <pt x="323" y="0" on="1"/>
        <pt x="205" y="0" on="1"/>
      </contour>
    </TTGlyph>
    <TTGlyph name="X" xMin="10" yMin="-10" xMax="597" yMax="709">
      <contour>
        <pt x="245" y="356" on="1"/>
        <pt x="20" y="650" on="1"/>
        <pt x="99" y="709" on="1"/>
        <pt x="302" y="425" on="1"/>
        <pt x="503" y="706" on="1"/>
        <pt x="577" y="650" on="1"/>
        <pt x="359" y="361" on="1"/>
        <pt x="597" y="49" on="1"/>
        <pt x="520" y="-10" on="1"/>
        <pt x="299" y="290" on="1"/>
        <pt x="85" y="-8" on="1"/>
        <pt x="10" y="49" on="1"/>
      </contour>
    </TTGlyph>
    <TTGlyph name="Y" xMin="10" yMin="0" xMax="589" yMax="709">
      <contour>
        <pt x="304" y="354" on="1"/>
        <pt x="514" y="705" on="1"/>
        <pt x="589" y="661" on="1"/>
        <pt x="348" y="266" on="1"/>
        <pt x="348" y="0" on="1"/>
        <pt x="253" y="0" on="1"/>
        <pt x="253" y="266" on="1"/>
        <pt x="10" y="661" on="1"/>
        <pt x="90" y="709" on="1"/>
      </contour>
    </TTGlyph>
    <TTGlyph name="Yacute" xMin="10" yMin="0" xMax="589" yMax="920">
      <component glyphName="Y" x="0" y="0" flags="0x204"/>
      <component glyphName="acute.cap" x="153" y="180" flags="0x4"/>
    </TTGlyph>
    <TTGlyph name="Z" xMin="40" yMin="0" xMax="535" yMax="700">
      <contour>
        <pt x="40" y="74" on="1"/>
        <pt x="412" y="618" on="1"/>
        <pt x="57" y="618" on="1"/>
        <pt x="57" y="700" on="1"/>
        <pt x="521" y="700" on="1"/>
        <pt x="521" y="628" on="1"/>
        <pt x="149" y="84" on="1"/>
        <pt x="535" y="84" on="1"/>
        <pt x="535" y="0" on="1"/>
        <pt x="40" y="0" on="1"/>
      </contour>
    </TTGlyph>
    <TTGlyph name="a" xMin="45" yMin="-12" xMax="577" yMax="532">
      <contour>
        <pt x="45" y="257" on="1"/>
        <pt x="45" y="315" on="0"/>
        <pt x="81" y="416" on="0"/>
        <pt x="146" y="490" on="0"/>
        <pt x="237" y="532" on="0"/>
        <pt x="291" y="532" on="1"/>
        <pt x="336" y="532" on="0"/>
        <pt x="409" y="501" on="0"/>
        <pt x="436" y="478" on="1"/>
        <pt x="436" y="520" on="1"/>
        <pt x="518" y="520" on="1"/>
        <pt x="518" y="126" on="1"/>
        <pt x="518" y="88" on="0"/>
        <pt x="555" y="65" on="0"/>
        <pt x="577" y="65" on="1"/>
        <pt x="558" y="-5" on="1"/>
        <pt x="462" y="-5" on="0"/>
        <pt x="442" y="73" on="1"/>
        <pt x="430" y="57" on="0"/>
        <pt x="399" y="26" on="0"/>
        <pt x="359" y="2" on="0"/>
        <pt x="309" y="-12" on="0"/>
        <pt x="279" y="-12" on="1"/>
        <pt x="230" y="-12" on="0"/>
        <pt x="145" y="26" on="0"/>
        <pt x="82" y="96" on="0"/>
        <pt x="45" y="195" on="0"/>
      </contour>
      <contour>
        <pt x="299" y="68" on="1"/>
        <pt x="337" y="68" on="0"/>
        <pt x="405" y="104" on="0"/>
        <pt x="428" y="133" on="1"/>
        <pt x="428" y="412" on="1"/>
        <pt x="401" y="431" on="0"/>
        <pt x="336" y="454" on="0"/>
        <pt x="300" y="454" on="1"/>
        <pt x="264" y="454" on="0"/>
        <pt x="204" y="426" on="0"/>
        <pt x="161" y="375" on="0"/>
        <pt x="137" y="303" on="0"/>
        <pt x="137" y="260" on="1"/>
        <pt x="137" y="218" on="0"/>
        <pt x="161" y="147" on="0"/>
        <pt x="205" y="96" on="0"/>
        <pt x="264" y="68" on="0"/>
      </contour>
    </TTGlyph>
    <TTGlyph name="aacute" xMin="45" yMin="-12" xMax="577" yMax="761">
      <component glyphName="a" x="0" y="0" flags="0x204"/>
      <component glyphName="acute" x="159" y="0" flags="0x4"/>
    </TTGlyph>
    <TTGlyph name="acircumflex" xMin="45" yMin="-12" xMax="577" yMax="740">
      <component glyphName="a" x="0" y="0" flags="0x204"/>
      <component glyphName="circumflex" x="78" y="0" flags="0x4"/>
    </TTGlyph>
    <TTGlyph name="acute" xMin="40" yMin="575" xMax="271" yMax="761">
      <contour>
        <pt x="40" y="636" on="1"/>
        <pt x="229" y="761" on="1"/>
        <pt x="271" y="677" on="1"/>
        <pt x="71" y="575" on="1"/>
      </contour>
    </TTGlyph>
    <TTGlyph name="acute.cap" xMin="40" yMin="554" xMax="271" yMax="740">
      <contour>
        <pt x="40" y="615" on="1"/>
        <pt x="229" y="740" on="1"/>
        <pt x="271" y="656" on="1"/>
        <pt x="71" y="554" on="1"/>
      </contour>
    </TTGlyph>
    <TTGlyph name="adieresis" xMin="45" yMin="-12" xMax="577" yMax="727">
      <component glyphName="a" x="0" y="0" flags="0x204"/>
      <component glyphName="dieresis" x="105" y="0" flags="0x4"/>
    </TTGlyph>
    <TTGlyph name="ae" xMin="40" yMin="-12" xMax="864" yMax="532">
      <contour>
        <pt x="101" y="501" on="1"/>
        <pt x="136" y="515" on="0"/>
        <pt x="207" y="532" on="0"/>
        <pt x="252" y="532" on="1"/>
        <pt x="324" y="532" on="0"/>
        <pt x="425" y="476" on="0"/>
        <pt x="452" y="417" on="1"/>
        <pt x="483" y="472" on="0"/>
        <pt x="577" y="532" on="0"/>
        <pt x="640" y="532" on="1"/>
        <pt x="696" y="532" on="0"/>
        <pt x="780" y="494" on="0"/>
        <pt x="836" y="428" on="0"/>
        <pt x="864" y="340" on="0"/>
        <pt x="864" y="291" on="1"/>
        <pt x="864" y="256" on="0"/>
        <pt x="861" y="223" on="1"/>
        <pt x="497" y="223" on="1"/>
        <pt x="506" y="150" on="0"/>
        <pt x="590" y="68" on="0"/>
        <pt x="659" y="68" on="1"/>
        <pt x="704" y="68" on="0"/>
        <pt x="776" y="87" on="0"/>
        <pt x="809" y="102" on="1"/>
        <pt x="830" y="25" on="1"/>
        <pt x="794" y="8" on="0"/>
        <pt x="704" y="-12" on="0"/>
        <pt x="648" y="-12" on="1"/>
        <pt x="573" y="-12" on="0"/>
        <pt x="473" y="52" on="0"/>
        <pt x="443" y="109" on="1"/>
        <pt x="410" y="56" on="0"/>
        <pt x="309" y="-12" on="0"/>
        <pt x="230" y="-12" on="1"/>
        <pt x="187" y="-12" on="0"/>
        <pt x="117" y="13" on="0"/>
        <pt x="67" y="56" on="0"/>
        <pt x="40" y="114" on="0"/>
        <pt x="40" y="148" on="1"/>
        <pt x="40" y="188" on="0"/>
        <pt x="73" y="252" on="0"/>
        <pt x="131" y="297" on="0"/>
        <pt x="213" y="321" on="0"/>
        <pt x="262" y="321" on="1"/>
        <pt x="305" y="321" on="0"/>
        <pt x="371" y="311" on="0"/>
        <pt x="404" y="303" on="1"/>
        <pt x="394" y="375" on="0"/>
        <pt x="311" y="454" on="0"/>
        <pt x="243" y="454" on="1"/>
        <pt x="207" y="454" on="0"/>
        <pt x="149" y="438" on="0"/>
        <pt x="120" y="425" on="1"/>
      </contour>
      <contour>
        <pt x="241" y="68" on="1"/>
        <pt x="271" y="68" on="0"/>
        <pt x="326" y="89" on="0"/>
        <pt x="371" y="129" on="0"/>
        <pt x="401" y="190" on="0"/>
        <pt x="405" y="230" on="1"/>
        <pt x="370" y="240" on="0"/>
        <pt x="304" y="248" on="0"/>
        <pt x="265" y="248" on="1"/>
        <pt x="204" y="248" on="0"/>
        <pt x="132" y="196" on="0"/>
        <pt x="132" y="155" on="1"/>
        <pt x="132" y="116" on="0"/>
        <pt x="195" y="68" on="0"/>
      </contour>
      <contour>
        <pt x="638" y="454" on="1"/>
        <pt x="579" y="454" on="0"/>
        <pt x="504" y="374" on="0"/>
        <pt x="496" y="296" on="1"/>
        <pt x="781" y="296" on="1"/>
        <pt x="781" y="372" on="0"/>
        <pt x="705" y="454" on="0"/>
      </contour>
    </TTGlyph>
    <TTGlyph name="agrave" xMin="45" yMin="-12" xMax="577" yMax="761">
      <component glyphName="a" x="0" y="0" flags="0x204"/>
      <component glyphName="grave" x="147" y="0" flags="0x4"/>
    </TTGlyph>
    <TTGlyph name="ampersand" xMin="90" yMin="-12" xMax="687" yMax="712">
      <contour>
        <pt x="273" y="336" on="1"/>
        <pt x="228" y="305" on="0"/>
        <pt x="185" y="238" on="0"/>
        <pt x="185" y="191" on="1"/>
        <pt x="185" y="165" on="0"/>
        <pt x="206" y="121" on="0"/>
        <pt x="243" y="88" on="0"/>
        <pt x="294" y="70" on="0"/>
        <pt x="324" y="70" on="1"/>
        <pt x="367" y="70" on="0"/>
        <pt x="441" y="111" on="0"/>
        <pt x="470" y="147" on="1"/>
      </contour>
      <contour>
        <pt x="237" y="545" on="1"/>
        <pt x="237" y="511" on="0"/>
        <pt x="268" y="449" on="0"/>
        <pt x="302" y="416" on="1"/>
        <pt x="365" y="448" on="0"/>
        <pt x="417" y="511" on="0"/>
        <pt x="417" y="553" on="1"/>
        <pt x="417" y="589" on="0"/>
        <pt x="369" y="640" on="0"/>
        <pt x="329" y="640" on="1"/>
        <pt x="289" y="640" on="0"/>
        <pt x="237" y="586" on="0"/>
      </contour>
      <contour>
        <pt x="228" y="384" on="1"/>
        <pt x="190" y="425" on="0"/>
        <pt x="154" y="496" on="0"/>
        <pt x="154" y="544" on="1"/>
        <pt x="154" y="580" on="0"/>
        <pt x="179" y="641" on="0"/>
        <pt x="225" y="686" on="0"/>
        <pt x="290" y="712" on="0"/>
        <pt x="331" y="712" on="1"/>
        <pt x="371" y="712" on="0"/>
        <pt x="434" y="688" on="0"/>
        <pt x="477" y="647" on="0"/>
        <pt x="500" y="593" on="0"/>
        <pt x="500" y="562" on="1"/>
        <pt x="500" y="498" on="0"/>
        <pt x="426" y="408" on="0"/>
        <pt x="346" y="369" on="1"/>
        <pt x="511" y="212" on="1"/>
        <pt x="521" y="231" on="0"/>
        <pt x="533" y="275" on="0"/>
        <pt x="542" y="319" on="0"/>
        <pt x="555" y="360" on="0"/>
        <pt x="579" y="391" on="0"/>
        <pt x="619" y="410" on="0"/>
        <pt x="651" y="410" on="1"/>
        <pt x="673" y="339" on="1"/>
        <pt x="652" y="339" on="0"/>
        <pt x="627" y="322" on="0"/>
        <pt x="612" y="294" on="0"/>
        <pt x="603" y="257" on="0"/>
        <pt x="593" y="217" on="0"/>
        <pt x="580" y="177" on="0"/>
        <pt x="569" y="160" on="1"/>
        <pt x="687" y="52" on="1"/>
        <pt x="631" y="-8" on="1"/>
        <pt x="525" y="92" on="1"/>
        <pt x="484" y="45" on="0"/>
        <pt x="384" y="-12" on="0"/>
        <pt x="310" y="-12" on="1"/>
        <pt x="265" y="-12" on="0"/>
        <pt x="185" y="15" on="0"/>
        <pt x="125" y="65" on="0"/>
        <pt x="90" y="135" on="0"/>
        <pt x="90" y="178" on="1"/>
        <pt x="90" y="241" on="0"/>
        <pt x="154" y="343" on="0"/>
      </contour>
    </TTGlyph>
    <TTGlyph name="aring" xMin="45" yMin="-12" xMax="577" yMax="822">
      <component glyphName="a" x="0" y="0" flags="0x204"/>
      <component glyphName="ring" x="132" y="0" flags="0x4"/>
    </TTGlyph>
    <TTGlyph name="asciicircum" xMin="94" yMin="510" xMax="506" yMax="740">
      <contour>
        <pt x="150" y="510" on="1"/>
        <pt x="94" y="572" on="1"/>
        <pt x="280" y="740" on="1"/>
        <pt x="322" y="740" on="1"/>
        <pt x="506" y="572" on="1"/>
        <pt x="449" y="510" on="1"/>
        <pt x="301" y="657" on="1"/>
      </contour>
    </TTGlyph>
    <TTGlyph name="asciitilde" xMin="76" yMin="253" xMax="524" yMax="391">
      <contour>
        <pt x="524" y="322" on="1"/>
        <pt x="495" y="294" on="0"/>
        <pt x="425" y="253" on="0"/>
        <pt x="385" y="253" on="1"/>
        <pt x="359" y="253" on="0"/>
        <pt x="314" y="271" on="0"/>
        <pt x="272" y="293" on="0"/>
        <pt x="230" y="311" on="0"/>
        <pt x="208" y="311" on="1"/>
        <pt x="178" y="311" on="0"/>
        <pt x="128" y="279" on="0"/>
        <pt x="111" y="264" on="1"/>
        <pt x="76" y="327" on="1"/>
        <pt x="86" y="337" on="0"/>
        <pt x="115" y="360" on="0"/>
        <pt x="149" y="379" on="0"/>
        <pt x="186" y="391" on="0"/>
        <pt x="206" y="391" on="1"/>
        <pt x="233" y="391" on="0"/>
        <pt x="279" y="373" on="0"/>
        <pt x="320" y="351" on="0"/>
        <pt x="360" y="333" on="0"/>
        <pt x="381" y="333" on="1"/>
        <pt x="416" y="333" on="0"/>
        <pt x="468" y="368" on="0"/>
        <pt x="488" y="388" on="1"/>
      </contour>
    </TTGlyph>
    <TTGlyph name="asterisk" xMin="57" yMin="418" xMax="394" yMax="740">
      <contour>
        <pt x="195" y="617" on="1"/>
        <pt x="186" y="740" on="1"/>
        <pt x="266" y="740" on="1"/>
        <pt x="257" y="619" on="1"/>
        <pt x="371" y="663" on="1"/>
        <pt x="394" y="588" on="1"/>
        <pt x="278" y="559" on="1"/>
        <pt x="355" y="465" on="1"/>
        <pt x="291" y="419" on="1"/>
        <pt x="227" y="522" on="1"/>
        <pt x="161" y="418" on="1"/>
        <pt x="98" y="465" on="1"/>
        <pt x="174" y="557" on="1"/>
        <pt x="57" y="587" on="1"/>
        <pt x="81" y="663" on="1"/>
      </contour>
    </TTGlyph>
    <TTGlyph name="at" xMin="72" yMin="-232" xMax="977" yMax="712">
      <contour>
        <pt x="746" y="-12" on="1"/>
        <pt x="695" y="-12" on="0"/>
        <pt x="634" y="39" on="0"/>
        <pt x="628" y="83" on="1"/>
        <pt x="600" y="49" on="0"/>
        <pt x="522" y="0" on="0"/>
        <pt x="471" y="0" on="1"/>
        <pt x="433" y="0" on="0"/>
        <pt x="365" y="29" on="0"/>
        <pt x="313" y="84" on="0"/>
        <pt x="282" y="163" on="0"/>
        <pt x="282" y="214" on="1"/>
        <pt x="282" y="271" on="0"/>
        <pt x="318" y="369" on="0"/>
        <pt x="380" y="441" on="0"/>
        <pt x="464" y="482" on="0"/>
        <pt x="512" y="482" on="1"/>
        <pt x="564" y="482" on="0"/>
        <pt x="637" y="440" on="0"/>
        <pt x="658" y="408" on="1"/>
        <pt x="667" y="475" on="1"/>
        <pt x="746" y="475" on="1"/>
        <pt x="705" y="148" on="1"/>
        <pt x="702" y="125" on="0"/>
        <pt x="702" y="113" on="1"/>
        <pt x="702" y="84" on="0"/>
        <pt x="726" y="52" on="0"/>
        <pt x="754" y="52" on="1"/>
        <pt x="780" y="52" on="0"/>
        <pt x="828" y="90" on="0"/>
        <pt x="864" y="159" on="0"/>
        <pt x="885" y="254" on="0"/>
        <pt x="885" y="311" on="1"/>
        <pt x="885" y="380" on="0"/>
        <pt x="836" y="498" on="0"/>
        <pt x="747" y="584" on="0"/>
        <pt x="625" y="632" on="0"/>
        <pt x="552" y="632" on="1"/>
        <pt x="459" y="632" on="0"/>
        <pt x="314" y="559" on="0"/>
        <pt x="215" y="441" on="0"/>
        <pt x="164" y="292" on="0"/>
        <pt x="164" y="215" on="1"/>
        <pt x="164" y="128" on="0"/>
        <pt x="218" y="-8" on="0"/>
        <pt x="314" y="-103" on="0"/>
        <pt x="444" y="-152" on="0"/>
        <pt x="520" y="-152" on="1"/>
        <pt x="596" y="-152" on="0"/>
        <pt x="715" y="-116" on="0"/>
        <pt x="769" y="-90" on="1"/>
        <pt x="798" y="-166" on="1"/>
        <pt x="746" y="-194" on="0"/>
        <pt x="599" y="-232" on="0"/>
        <pt x="514" y="-232" on="1"/>
        <pt x="418" y="-232" on="0"/>
        <pt x="256" y="-174" on="0"/>
        <pt x="138" y="-61" on="0"/>
        <pt x="72" y="104" on="0"/>
        <pt x="72" y="212" on="1"/>
        <pt x="72" y="312" on="0"/>
        <pt x="141" y="493" on="0"/>
        <pt x="268" y="631" on="0"/>
        <pt x="447" y="712" on="0"/>
        <pt x="558" y="712" on="1"/>
        <pt x="652" y="712" on="0"/>
        <pt x="807" y="651" on="0"/>
        <pt x="917" y="545" on="0"/>
        <pt x="977" y="400" on="0"/>
        <pt x="977" y="316" on="1"/>
        <pt x="977" y="244" on="0"/>
        <pt x="942" y="123" on="0"/>
        <pt x="881" y="36" on="0"/>
        <pt x="796" y="-12" on="0"/>
      </contour>
      <contour>
        <pt x="498" y="74" on="1"/>
        <pt x="537" y="74" on="0"/>
        <pt x="603" y="117" on="0"/>
        <pt x="623" y="142" on="1"/>
        <pt x="647" y="340" on="1"/>
        <pt x="627" y="372" on="0"/>
        <pt x="563" y="412" on="0"/>
        <pt x="522" y="412" on="1"/>
        <pt x="492" y="412" on="0"/>
        <pt x="436" y="385" on="0"/>
        <pt x="393" y="336" on="0"/>
        <pt x="368" y="268" on="0"/>
        <pt x="368" y="227" on="1"/>
        <pt x="368" y="151" on="0"/>
        <pt x="444" y="74" on="0"/>
      </contour>
    </TTGlyph>
    <TTGlyph name="atilde" xMin="45" yMin="-12" xMax="577" yMax="722">
      <component glyphName="a" x="0" y="0" flags="0x204"/>
      <component glyphName="tilde" x="99" y="0" flags="0x4"/>
    </TTGlyph>
    <TTGlyph name="b" xMin="80" yMin="-12" xMax="549" yMax="740">
      <contour>
        <pt x="80" y="740" on="1"/>
        <pt x="170" y="740" on="1"/>
        <pt x="170" y="466" on="1"/>
        <pt x="180" y="477" on="0"/>
        <pt x="210" y="501" on="0"/>
        <pt x="247" y="520" on="0"/>
        <pt x="293" y="532" on="0"/>
        <pt x="320" y="532" on="1"/>
        <pt x="365" y="532" on="0"/>
        <pt x="448" y="496" on="0"/>
        <pt x="511" y="428" on="0"/>
        <pt x="549" y="328" on="0"/>
        <pt x="549" y="265" on="1"/>
        <pt x="549" y="203" on="0"/>
        <pt x="509" y="101" on="0"/>
        <pt x="443" y="28" on="0"/>
        <pt x="358" y="-12" on="0"/>
        <pt x="314" y="-12" on="1"/>
        <pt x="269" y="-12" on="0"/>
        <pt x="190" y="20" on="0"/>
        <pt x="164" y="43" on="1"/>
        <pt x="164" y="0" on="1"/>
        <pt x="80" y="0" on="1"/>
      </contour>
      <contour>
        <pt x="457" y="262" on="1"/>
        <pt x="457" y="307" on="0"/>
        <pt x="432" y="378" on="0"/>
        <pt x="389" y="428" on="0"/>
        <pt x="332" y="454" on="0"/>
        <pt x="300" y="454" on="1"/>
        <pt x="257" y="454" on="0"/>
        <pt x="188" y="411" on="0"/>
        <pt x="170" y="386" on="1"/>
        <pt x="170" y="108" on="1"/>
        <pt x="193" y="90" on="0"/>
        <pt x="255" y="68" on="0"/>
        <pt x="290" y="68" on="1"/>
        <pt x="326" y="68" on="0"/>
        <pt x="388" y="96" on="0"/>
        <pt x="432" y="147" on="0"/>
        <pt x="457" y="218" on="0"/>
      </contour>
    </TTGlyph>
    <TTGlyph name="backslash" xMin="47" yMin="-71" xMax="403" yMax="773">
      <contour>
        <pt x="329" y="-71" on="1"/>
        <pt x="47" y="748" on="1"/>
        <pt x="121" y="773" on="1"/>
        <pt x="403" y="-46" on="1"/>
      </contour>
    </TTGlyph>
    <TTGlyph name="bar" xMin="111" yMin="-100" xMax="189" yMax="770">
      <contour>
        <pt x="111" y="-100" on="1"/>
        <pt x="111" y="770" on="1"/>
        <pt x="189" y="770" on="1"/>
        <pt x="189" y="-100" on="1"/>
      </contour>
    </TTGlyph>
    <TTGlyph name="braceleft" xMin="7" yMin="-118" xMax="293" yMax="758">
      <contour>
        <pt x="7" y="352" on="1"/>
        <pt x="35" y="356" on="0"/>
        <pt x="73" y="375" on="0"/>
        <pt x="94" y="414" on="0"/>
        <pt x="103" y="476" on="0"/>
        <pt x="103" y="522" on="1"/>
        <pt x="103" y="584" on="0"/>
        <pt x="126" y="670" on="0"/>
        <pt x="173" y="725" on="0"/>
        <pt x="245" y="753" on="0"/>
        <pt x="293" y="758" on="1"/>
        <pt x="293" y="701" on="1"/>
        <pt x="265" y="694" on="0"/>
        <pt x="226" y="672" on="0"/>
        <pt x="201" y="633" on="0"/>
        <pt x="190" y="572" on="0"/>
        <pt x="190" y="526" on="1"/>
        <pt x="190" y="470" on="0"/>
        <pt x="178" y="397" on="0"/>
        <pt x="151" y="352" on="0"/>
        <pt x="107" y="327" on="0"/>
        <pt x="76" y="320" on="1"/>
        <pt x="107" y="312" on="0"/>
        <pt x="151" y="288" on="0"/>
        <pt x="178" y="243" on="0"/>
        <pt x="190" y="170" on="0"/>
        <pt x="190" y="114" on="1"/>
        <pt x="190" y="68" on="0"/>
        <pt x="201" y="7" on="0"/>
        <pt x="226" y="-32" on="0"/>
        <pt x="265" y="-54" on="0"/>
        <pt x="293" y="-61" on="1"/>
        <pt x="293" y="-118" on="1"/>
        <pt x="245" y="-114" on="0"/>
        <pt x="173" y="-85" on="0"/>
        <pt x="126" y="-30" on="0"/>
        <pt x="103" y="56" on="0"/>
        <pt x="103" y="118" on="1"/>
        <pt x="103" y="164" on="0"/>
        <pt x="94" y="226" on="0"/>
        <pt x="73" y="265" on="0"/>
        <pt x="35" y="284" on="0"/>
        <pt x="7" y="288" on="1"/>
      </contour>
    </TTGlyph>
    <TTGlyph name="braceright" xMin="7" yMin="-118" xMax="293" yMax="758">
      <contour>
        <pt x="224" y="320" on="1"/>
        <pt x="192" y="327" on="0"/>
        <pt x="149" y="352" on="0"/>
        <pt x="122" y="397" on="0"/>
        <pt x="110" y="470" on="0"/>
        <pt x="110" y="526" on="1"/>
        <pt x="110" y="572" on="0"/>
        <pt x="99" y="633" on="0"/>
        <pt x="74" y="672" on="0"/>
        <pt x="35" y="694" on="0"/>
        <pt x="7" y="701" on="1"/>
        <pt x="7" y="758" on="1"/>
        <pt x="55" y="753" on="0"/>
        <pt x="127" y="725" on="0"/>
        <pt x="174" y="670" on="0"/>
        <pt x="197" y="584" on="0"/>
        <pt x="197" y="522" on="1"/>
        <pt x="197" y="476" on="0"/>
        <pt x="206" y="414" on="0"/>
        <pt x="227" y="375" on="0"/>
        <pt x="264" y="356" on="0"/>
        <pt x="293" y="352" on="1"/>
        <pt x="293" y="288" on="1"/>
        <pt x="264" y="284" on="0"/>
        <pt x="227" y="265" on="0"/>
        <pt x="206" y="226" on="0"/>
        <pt x="197" y="164" on="0"/>
        <pt x="197" y="118" on="1"/>
        <pt x="197" y="56" on="0"/>
        <pt x="174" y="-30" on="0"/>
        <pt x="127" y="-85" on="0"/>
        <pt x="55" y="-114" on="0"/>
        <pt x="7" y="-118" on="1"/>
        <pt x="7" y="-61" on="1"/>
        <pt x="35" y="-54" on="0"/>
        <pt x="74" y="-32" on="0"/>
        <pt x="99" y="7" on="0"/>
        <pt x="110" y="68" on="0"/>
        <pt x="110" y="114" on="1"/>
        <pt x="110" y="170" on="0"/>
        <pt x="122" y="243" on="0"/>
        <pt x="149" y="288" on="0"/>
        <pt x="192" y="312" on="0"/>
      </contour>
    </TTGlyph>
    <TTGlyph name="bracketleft" xMin="80" yMin="-100" xMax="255" yMax="740">
      <contour>
        <pt x="80" y="740" on="1"/>
        <pt x="255" y="740" on="1"/>
        <pt x="255" y="665" on="1"/>
        <pt x="160" y="665" on="1"/>
        <pt x="160" y="-25" on="1"/>
        <pt x="255" y="-25" on="1"/>
        <pt x="255" y="-100" on="1"/>
        <pt x="80" y="-100" on="1"/>
      </contour>
    </TTGlyph>
    <TTGlyph name="bracketright" xMin="45" yMin="-100" xMax="220" yMax="740">
      <contour>
        <pt x="45" y="-100" on="1"/>
        <pt x="45" y="-25" on="1"/>
        <pt x="140" y="-25" on="1"/>
        <pt x="140" y="665" on="1"/>
        <pt x="45" y="665" on="1"/>
        <pt x="45" y="740" on="1"/>
        <pt x="220" y="740" on="1"/>
        <pt x="220" y="-100" on="1"/>
      </contour>
    </TTGlyph>
    <TTGlyph name="brokenbar" xMin="111" yMin="-100" xMax="189" yMax="770">
      <contour>
        <pt x="111" y="257" on="1"/>
        <pt x="189" y="257" on="1"/>
        <pt x="189" y="-100" on="1"/>
        <pt x="111" y="-100" on="1"/>
      </contour>
      <contour>
        <pt x="111" y="770" on="1"/>
        <pt x="189" y="770" on="1"/>
        <pt x="189" y="422" on="1"/>
        <pt x="111" y="422" on="1"/>
      </contour>
    </TTGlyph>
    <TTGlyph name="bullet" xMin="91" yMin="221" xMax="359" yMax="489">
      <contour>
        <pt x="225" y="221" on="1"/>
        <pt x="197" y="221" on="0"/>
        <pt x="148" y="242" on="0"/>
        <pt x="112" y="278" on="0"/>
        <pt x="91" y="327" on="0"/>
        <pt x="91" y="355" on="1"/>
        <pt x="91" y="417" on="0"/>
        <pt x="162" y="489" on="0"/>
        <pt x="225" y="489" on="1"/>
        <pt x="253" y="489" on="0"/>
        <pt x="302" y="468" on="0"/>
        <pt x="338" y="432" on="0"/>
        <pt x="359" y="383" on="0"/>
        <pt x="359" y="355" on="1"/>
        <pt x="359" y="293" on="0"/>
        <pt x="288" y="221" on="0"/>
      </contour>
    </TTGlyph>
    <TTGlyph name="c" xMin="45" yMin="-12" xMax="447" yMax="532">
      <contour>
        <pt x="412" y="425" on="1"/>
        <pt x="383" y="439" on="0"/>
        <pt x="333" y="452" on="0"/>
        <pt x="302" y="452" on="1"/>
        <pt x="267" y="452" on="0"/>
        <pt x="206" y="426" on="0"/>
        <pt x="162" y="377" on="0"/>
        <pt x="137" y="307" on="0"/>
        <pt x="137" y="262" on="1"/>
        <pt x="137" y="221" on="0"/>
        <pt x="160" y="151" on="0"/>
        <pt x="202" y="98" on="0"/>
        <pt x="260" y="68" on="0"/>
        <pt x="296" y="68" on="1"/>
        <pt x="334" y="68" on="0"/>
        <pt x="388" y="84" on="0"/>
        <pt x="419" y="101" on="1"/>
        <pt x="447" y="25" on="1"/>
        <pt x="415" y="8" on="0"/>
        <pt x="339" y="-12" on="0"/>
        <pt x="290" y="-12" on="1"/>
        <pt x="234" y="-12" on="0"/>
        <pt x="144" y="28" on="0"/>
        <pt x="80" y="100" on="0"/>
        <pt x="45" y="200" on="0"/>
        <pt x="45" y="260" on="1"/>
        <pt x="45" y="316" on="0"/>
        <pt x="80" y="415" on="0"/>
        <pt x="146" y="489" on="0"/>
        <pt x="239" y="532" on="0"/>
        <pt x="297" y="532" on="1"/>
        <pt x="342" y="532" on="0"/>
        <pt x="408" y="516" on="0"/>
        <pt x="439" y="501" on="1"/>
      </contour>
    </TTGlyph>
    <TTGlyph name="caron" xMin="50" yMin="587" xMax="406" yMax="755">
      <contour>
        <pt x="228" y="650" on="1"/>
        <pt x="359" y="755" on="1"/>
        <pt x="406" y="681" on="1"/>
        <pt x="260" y="587" on="1"/>
        <pt x="196" y="587" on="1"/>
        <pt x="50" y="681" on="1"/>
        <pt x="97" y="755" on="1"/>
      </contour>
    </TTGlyph>
    <TTGlyph name="caron.cap" xMin="50" yMin="569" xMax="407" yMax="727">
      <contour>
        <pt x="364" y="727" on="1"/>
        <pt x="407" y="649" on="1"/>
        <pt x="261" y="569" on="1"/>
        <pt x="197" y="569" on="1"/>
        <pt x="50" y="649" on="1"/>
        <pt x="93" y="727" on="1"/>
        <pt x="229" y="632" on="1"/>
      </contour>
    </TTGlyph>
    <TTGlyph name="ccedilla" xMin="45" yMin="-244" xMax="447" yMax="532">
      <contour>
        <pt x="398" y="-148" on="1"/>
        <pt x="398" y="-167" on="0"/>
        <pt x="381" y="-201" on="0"/>
        <pt x="347" y="-228" on="0"/>
        <pt x="295" y="-244" on="0"/>
        <pt x="261" y="-244" on="1"/>
        <pt x="234" y="-244" on="0"/>
        <pt x="184" y="-235" on="0"/>
        <pt x="161" y="-224" on="1"/>
        <pt x="185" y="-161" on="1"/>
        <pt x="218" y="-178" on="0"/>
        <pt x="257" y="-178" on="1"/>
        <pt x="283" y="-178" on="0"/>
        <pt x="317" y="-160" on="0"/>
        <pt x="317" y="-141" on="1"/>
        <pt x="317" y="-123" on="0"/>
        <pt x="270" y="-95" on="0"/>
        <pt x="204" y="-95" on="1"/>
        <pt x="236" y="-7" on="1"/>
        <pt x="192" y="2" on="0"/>
        <pt x="121" y="48" on="0"/>
        <pt x="71" y="117" on="0"/>
        <pt x="45" y="207" on="0"/>
        <pt x="45" y="260" on="1"/>
        <pt x="45" y="316" on="0"/>
        <pt x="80" y="415" on="0"/>
        <pt x="146" y="489" on="0"/>
        <pt x="239" y="532" on="0"/>
        <pt x="297" y="532" on="1"/>
        <pt x="342" y="532" on="0"/>
        <pt x="408" y="516" on="0"/>
        <pt x="439" y="501" on="1"/>
        <pt x="412" y="425" on="1"/>
        <pt x="383" y="439" on="0"/>
        <pt x="333" y="452" on="0"/>
        <pt x="302" y="452" on="1"/>
        <pt x="267" y="452" on="0"/>
        <pt x="206" y="426" on="0"/>
        <pt x="162" y="377" on="0"/>
        <pt x="137" y="307" on="0"/>
        <pt x="137" y="262" on="1"/>
        <pt x="137" y="221" on="0"/>
        <pt x="160" y="151" on="0"/>
        <pt x="202" y="98" on="0"/>
        <pt x="260" y="68" on="0"/>
        <pt x="296" y="68" on="1"/>
        <pt x="334" y="68" on="0"/>
        <pt x="388" y="84" on="0"/>
        <pt x="419" y="101" on="1"/>
        <pt x="447" y="25" on="1"/>
        <pt x="417" y="8" on="0"/>
        <pt x="347" y="-10" on="0"/>
        <pt x="302" y="-12" on="1"/>
        <pt x="286" y="-59" on="1"/>
        <pt x="337" y="-59" on="0"/>
        <pt x="398" y="-103" on="0"/>
      </contour>
    </TTGlyph>
    <TTGlyph name="cedilla" xMin="30" yMin="-244" xMax="267" yMax="0">
      <contour>
        <pt x="267" y="-148" on="1"/>
        <pt x="267" y="-167" on="0"/>
        <pt x="250" y="-201" on="0"/>
        <pt x="216" y="-228" on="0"/>
        <pt x="164" y="-244" on="0"/>
        <pt x="130" y="-244" on="1"/>
        <pt x="103" y="-244" on="0"/>
        <pt x="53" y="-235" on="0"/>
        <pt x="30" y="-224" on="1"/>
        <pt x="54" y="-161" on="1"/>
        <pt x="87" y="-178" on="0"/>
        <pt x="126" y="-178" on="1"/>
        <pt x="152" y="-178" on="0"/>
        <pt x="186" y="-160" on="0"/>
        <pt x="186" y="-141" on="1"/>
        <pt x="186" y="-123" on="0"/>
        <pt x="139" y="-95" on="0"/>
        <pt x="73" y="-95" on="1"/>
        <pt x="108" y="0" on="1"/>
        <pt x="176" y="0" on="1"/>
        <pt x="155" y="-59" on="1"/>
        <pt x="206" y="-59" on="0"/>
        <pt x="267" y="-103" on="0"/>
      </contour>
    </TTGlyph>
    <TTGlyph name="cent" xMin="34" yMin="-95" xMax="436" yMax="666">
      <contour>
        <pt x="401" y="453" on="1"/>
        <pt x="372" y="467" on="0"/>
        <pt x="322" y="480" on="0"/>
        <pt x="291" y="480" on="1"/>
        <pt x="256" y="480" on="0"/>
        <pt x="195" y="454" on="0"/>
        <pt x="151" y="405" on="0"/>
        <pt x="126" y="335" on="0"/>
        <pt x="126" y="290" on="1"/>
        <pt x="126" y="249" on="0"/>
        <pt x="149" y="179" on="0"/>
        <pt x="191" y="126" on="0"/>
        <pt x="249" y="96" on="0"/>
        <pt x="285" y="96" on="1"/>
        <pt x="323" y="96" on="0"/>
        <pt x="377" y="112" on="0"/>
        <pt x="408" y="129" on="1"/>
        <pt x="436" y="53" on="1"/>
        <pt x="411" y="39" on="0"/>
        <pt x="353" y="21" on="0"/>
        <pt x="318" y="17" on="1"/>
        <pt x="327" y="-95" on="1"/>
        <pt x="239" y="-95" on="1"/>
        <pt x="247" y="18" on="1"/>
        <pt x="198" y="24" on="0"/>
        <pt x="119" y="67" on="0"/>
        <pt x="64" y="138" on="0"/>
        <pt x="34" y="232" on="0"/>
        <pt x="34" y="288" on="1"/>
        <pt x="34" y="339" on="0"/>
        <pt x="63" y="431" on="0"/>
        <pt x="119" y="503" on="0"/>
        <pt x="197" y="550" on="0"/>
        <pt x="247" y="557" on="1"/>
        <pt x="239" y="666" on="1"/>
        <pt x="327" y="666" on="1"/>
        <pt x="319" y="559" on="1"/>
        <pt x="351" y="556" on="0"/>
        <pt x="403" y="541" on="0"/>
        <pt x="428" y="529" on="1"/>
      </contour>
    </TTGlyph>
    <TTGlyph name="circumflex" xMin="50" yMin="572" xMax="406" yMax="740">
      <contour>
        <pt x="97" y="572" on="1"/>
        <pt x="50" y="646" on="1"/>
        <pt x="196" y="740" on="1"/>
        <pt x="260" y="740" on="1"/>
        <pt x="406" y="646" on="1"/>
        <pt x="359" y="572" on="1"/>
        <pt x="228" y="677" on="1"/>
      </contour>
    </TTGlyph>
    <TTGlyph name="circumflex.cap" xMin="50" yMin="572" xMax="407" yMax="730">
      <contour>
        <pt x="93" y="572" on="1"/>
        <pt x="50" y="650" on="1"/>
        <pt x="197" y="730" on="1"/>
        <pt x="261" y="730" on="1"/>
        <pt x="407" y="650" on="1"/>
        <pt x="364" y="572" on="1"/>
        <pt x="229" y="667" on="1"/>
      </contour>
    </TTGlyph>
    <TTGlyph name="colon" xMin="83" yMin="-12" xMax="217" yMax="532">
      <component glyphName="period" x="0" y="410" flags="0x204"/>
      <component glyphName="period" x="0" y="0" flags="0x4"/>
    </TTGlyph>
    <TTGlyph name="comma" xMin="30" yMin="-160" xMax="220" yMax="90">
      <contour>
        <pt x="220" y="65" on="1"/>
        <pt x="209" y="-12" on="0"/>
        <pt x="136" y="-125" on="0"/>
        <pt x="79" y="-160" on="1"/>
        <pt x="30" y="-132" on="1"/>
        <pt x="70" y="-81" on="0"/>
        <pt x="118" y="23" on="0"/>
        <pt x="132" y="90" on="1"/>
      </contour>
    </TTGlyph>
    <TTGlyph name="commaaccent" xMin="40" yMin="-262" xMax="202" yMax="-50">
      <contour>
        <pt x="202" y="-71" on="1"/>
        <pt x="193" y="-137" on="0"/>
        <pt x="130" y="-232" on="0"/>
        <pt x="82" y="-262" on="1"/>
        <pt x="40" y="-238" on="1"/>
        <pt x="74" y="-195" on="0"/>
        <pt x="116" y="-107" on="0"/>
        <pt x="127" y="-50" on="1"/>
      </contour>
    </TTGlyph>
    <TTGlyph name="copyright" xMin="101" yMin="-12" xMax="799" yMax="712">
      <contour>
        <pt x="353" y="353" on="1"/>
        <pt x="353" y="284" on="0"/>
        <pt x="419" y="203" on="0"/>
        <pt x="470" y="203" on="1"/>
        <pt x="497" y="203" on="0"/>
        <pt x="543" y="220" on="0"/>
        <pt x="568" y="234" on="1"/>
        <pt x="594" y="161" on="1"/>
        <pt x="567" y="145" on="0"/>
        <pt x="502" y="126" on="0"/>
        <pt x="463" y="126" on="1"/>
        <pt x="420" y="126" on="0"/>
        <pt x="348" y="157" on="0"/>
        <pt x="297" y="215" on="0"/>
        <pt x="268" y="298" on="0"/>
        <pt x="268" y="350" on="1"/>
        <pt x="268" y="400" on="0"/>
        <pt x="297" y="484" on="0"/>
        <pt x="350" y="544" on="0"/>
        <pt x="425" y="578" on="0"/>
        <pt x="471" y="578" on="1"/>
        <pt x="503" y="578" on="0"/>
        <pt x="560" y="564" on="0"/>
        <pt x="587" y="551" on="1"/>
        <pt x="559" y="477" on="1"/>
        <pt x="538" y="488" on="0"/>
        <pt x="495" y="501" on="0"/>
        <pt x="470" y="501" on="1"/>
        <pt x="419" y="501" on="0"/>
        <pt x="353" y="424" on="0"/>
      </contour>
      <contour>
        <pt x="450" y="51" on="1"/>
        <pt x="517" y="51" on="0"/>
        <pt x="620" y="95" on="0"/>
        <pt x="690" y="175" on="0"/>
        <pt x="726" y="285" on="0"/>
        <pt x="726" y="350" on="1"/>
        <pt x="726" y="416" on="0"/>
        <pt x="690" y="525" on="0"/>
        <pt x="620" y="605" on="0"/>
        <pt x="517" y="649" on="0"/>
        <pt x="450" y="649" on="1"/>
        <pt x="383" y="649" on="0"/>
        <pt x="280" y="604" on="0"/>
        <pt x="210" y="525" on="0"/>
        <pt x="174" y="415" on="0"/>
        <pt x="174" y="350" on="1"/>
        <pt x="174" y="284" on="0"/>
        <pt x="210" y="175" on="0"/>
        <pt x="280" y="95" on="0"/>
        <pt x="383" y="51" on="0"/>
      </contour>
      <contour>
        <pt x="449" y="-12" on="1"/>
        <pt x="365" y="-12" on="0"/>
        <pt x="235" y="43" on="0"/>
        <pt x="146" y="139" on="0"/>
        <pt x="101" y="272" on="0"/>
        <pt x="101" y="350" on="1"/>
        <pt x="101" y="425" on="0"/>
        <pt x="148" y="557" on="0"/>
        <pt x="237" y="655" on="0"/>
        <pt x="367" y="712" on="0"/>
        <pt x="450" y="712" on="1"/>
        <pt x="534" y="712" on="0"/>
        <pt x="665" y="657" on="0"/>
        <pt x="753" y="561" on="0"/>
        <pt x="799" y="428" on="0"/>
        <pt x="799" y="350" on="1"/>
        <pt x="799" y="275" on="0"/>
        <pt x="752" y="143" on="0"/>
        <pt x="662" y="45" on="0"/>
        <pt x="532" y="-12" on="0"/>
      </contour>
    </TTGlyph>
    <TTGlyph name="currency" xMin="92" yMin="90" xMax="508" yMax="586">
      <contour>
        <pt x="300" y="532" on="1"/>
        <pt x="347" y="532" on="0"/>
        <pt x="390" y="513" on="1"/>
        <pt x="445" y="586" on="1"/>
        <pt x="508" y="533" on="1"/>
        <pt x="450" y="467" on="1"/>
        <pt x="471" y="441" on="0"/>
        <pt x="495" y="376" on="0"/>
        <pt x="495" y="338" on="1"/>
        <pt x="495" y="299" on="0"/>
        <pt x="471" y="234" on="0"/>
        <pt x="450" y="209" on="1"/>
        <pt x="508" y="143" on="1"/>
        <pt x="445" y="90" on="1"/>
        <pt x="390" y="164" on="1"/>
        <pt x="348" y="144" on="0"/>
        <pt x="300" y="144" on="1"/>
        <pt x="253" y="144" on="0"/>
        <pt x="210" y="163" on="1"/>
        <pt x="155" y="90" on="1"/>
        <pt x="92" y="143" on="1"/>
        <pt x="150" y="209" on="1"/>
        <pt x="129" y="235" on="0"/>
        <pt x="105" y="300" on="0"/>
        <pt x="105" y="338" on="1"/>
        <pt x="105" y="377" on="0"/>
        <pt x="129" y="442" on="0"/>
        <pt x="150" y="467" on="1"/>
        <pt x="92" y="533" on="1"/>
        <pt x="155" y="586" on="1"/>
        <pt x="210" y="512" on="1"/>
        <pt x="252" y="532" on="0"/>
      </contour>
      <contour>
        <pt x="300" y="216" on="1"/>
        <pt x="354" y="216" on="0"/>
        <pt x="412" y="282" on="0"/>
        <pt x="412" y="337" on="1"/>
        <pt x="412" y="362" on="0"/>
        <pt x="395" y="407" on="0"/>
        <pt x="365" y="440" on="0"/>
        <pt x="324" y="460" on="0"/>
        <pt x="300" y="460" on="1"/>
        <pt x="246" y="460" on="0"/>
        <pt x="188" y="394" on="0"/>
        <pt x="188" y="339" on="1"/>
        <pt x="188" y="314" on="0"/>
        <pt x="205" y="269" on="0"/>
        <pt x="235" y="236" on="0"/>
        <pt x="276" y="216" on="0"/>
      </contour>
    </TTGlyph>
    <TTGlyph name="d" xMin="45" yMin="-12" xMax="573" yMax="740">
      <contour>
        <pt x="277" y="-12" on="1"/>
        <pt x="229" y="-12" on="0"/>
        <pt x="144" y="26" on="0"/>
        <pt x="81" y="96" on="0"/>
        <pt x="45" y="195" on="0"/>
        <pt x="45" y="257" on="1"/>
        <pt x="45" y="316" on="0"/>
        <pt x="82" y="417" on="0"/>
        <pt x="145" y="490" on="0"/>
        <pt x="229" y="532" on="0"/>
        <pt x="276" y="532" on="1"/>
        <pt x="328" y="532" on="0"/>
        <pt x="403" y="490" on="0"/>
        <pt x="424" y="468" on="1"/>
        <pt x="424" y="740" on="1"/>
        <pt x="514" y="740" on="1"/>
        <pt x="514" y="126" on="1"/>
        <pt x="514" y="88" on="0"/>
        <pt x="551" y="65" on="0"/>
        <pt x="573" y="65" on="1"/>
        <pt x="554" y="-5" on="1"/>
        <pt x="459" y="-5" on="0"/>
        <pt x="438" y="71" on="1"/>
        <pt x="415" y="39" on="0"/>
        <pt x="337" y="-12" on="0"/>
      </contour>
      <contour>
        <pt x="297" y="68" on="1"/>
        <pt x="334" y="68" on="0"/>
        <pt x="401" y="103" on="0"/>
        <pt x="424" y="131" on="1"/>
        <pt x="424" y="389" on="1"/>
        <pt x="405" y="413" on="0"/>
        <pt x="338" y="454" on="0"/>
        <pt x="296" y="454" on="1"/>
        <pt x="260" y="454" on="0"/>
        <pt x="201" y="424" on="0"/>
        <pt x="159" y="372" on="0"/>
        <pt x="137" y="301" on="0"/>
        <pt x="137" y="260" on="1"/>
        <pt x="137" y="218" on="0"/>
        <pt x="161" y="148" on="0"/>
        <pt x="204" y="97" on="0"/>
        <pt x="263" y="68" on="0"/>
      </contour>
    </TTGlyph>
    <TTGlyph name="degree" xMin="50" yMin="458" xMax="340" yMax="740">
      <contour>
        <pt x="129" y="599" on="1"/>
        <pt x="129" y="569" on="0"/>
        <pt x="165" y="529" on="0"/>
        <pt x="195" y="529" on="1"/>
        <pt x="225" y="529" on="0"/>
        <pt x="261" y="565" on="0"/>
        <pt x="261" y="599" on="1"/>
        <pt x="261" y="629" on="0"/>
        <pt x="225" y="669" on="0"/>
        <pt x="195" y="669" on="1"/>
        <pt x="165" y="669" on="0"/>
        <pt x="129" y="635" on="0"/>
      </contour>
      <contour>
        <pt x="50" y="599" on="1"/>
        <pt x="50" y="629" on="0"/>
        <pt x="73" y="681" on="0"/>
        <pt x="113" y="719" on="0"/>
        <pt x="165" y="740" on="0"/>
        <pt x="195" y="740" on="1"/>
        <pt x="225" y="740" on="0"/>
        <pt x="277" y="719" on="0"/>
        <pt x="317" y="681" on="0"/>
        <pt x="340" y="629" on="0"/>
        <pt x="340" y="599" on="1"/>
        <pt x="340" y="569" on="0"/>
        <pt x="317" y="517" on="0"/>
        <pt x="277" y="479" on="0"/>
        <pt x="225" y="458" on="0"/>
        <pt x="195" y="458" on="1"/>
        <pt x="165" y="458" on="0"/>
        <pt x="113" y="479" on="0"/>
        <pt x="73" y="517" on="0"/>
        <pt x="50" y="569" on="0"/>
      </contour>
    </TTGlyph>
    <TTGlyph name="dieresis" xMin="50" yMin="607" xMax="352" yMax="727">
      <contour>
        <pt x="110" y="607" on="1"/>
        <pt x="85" y="607" on="0"/>
        <pt x="50" y="643" on="0"/>
        <pt x="50" y="667" on="1"/>
        <pt x="50" y="694" on="0"/>
        <pt x="82" y="727" on="0"/>
        <pt x="110" y="727" on="1"/>
        <pt x="135" y="727" on="0"/>
        <pt x="170" y="691" on="0"/>
        <pt x="170" y="667" on="1"/>
        <pt x="170" y="640" on="0"/>
        <pt x="138" y="607" on="0"/>
      </contour>
      <contour>
        <pt x="292" y="607" on="1"/>
        <pt x="267" y="607" on="0"/>
        <pt x="232" y="643" on="0"/>
        <pt x="232" y="667" on="1"/>
        <pt x="232" y="694" on="0"/>
        <pt x="264" y="727" on="0"/>
        <pt x="292" y="727" on="1"/>
        <pt x="317" y="727" on="0"/>
        <pt x="352" y="691" on="0"/>
        <pt x="352" y="667" on="1"/>
        <pt x="352" y="640" on="0"/>
        <pt x="320" y="607" on="0"/>
      </contour>
    </TTGlyph>
    <TTGlyph name="dieresis.cap" xMin="50" yMin="577" xMax="352" yMax="697">
      <contour>
        <pt x="110" y="577" on="1"/>
        <pt x="85" y="577" on="0"/>
        <pt x="50" y="613" on="0"/>
        <pt x="50" y="637" on="1"/>
        <pt x="50" y="664" on="0"/>
        <pt x="82" y="697" on="0"/>
        <pt x="110" y="697" on="1"/>
        <pt x="135" y="697" on="0"/>
        <pt x="170" y="661" on="0"/>
        <pt x="170" y="637" on="1"/>
        <pt x="170" y="610" on="0"/>
        <pt x="138" y="577" on="0"/>
      </contour>
      <contour>
        <pt x="292" y="577" on="1"/>
        <pt x="267" y="577" on="0"/>
        <pt x="232" y="613" on="0"/>
        <pt x="232" y="637" on="1"/>
        <pt x="232" y="664" on="0"/>
        <pt x="264" y="697" on="0"/>
        <pt x="292" y="697" on="1"/>
        <pt x="317" y="697" on="0"/>
        <pt x="352" y="661" on="0"/>
        <pt x="352" y="637" on="1"/>
        <pt x="352" y="610" on="0"/>
        <pt x="320" y="577" on="0"/>
      </contour>
    </TTGlyph>
    <TTGlyph name="divide" xMin="130" yMin="71" xMax="470" yMax="615">
      <contour>
        <pt x="130" y="302" on="1"/>
        <pt x="130" y="384" on="1"/>
        <pt x="470" y="384" on="1"/>
        <pt x="470" y="302" on="1"/>
      </contour>
      <contour>
        <pt x="234" y="548" on="1"/>
        <pt x="234" y="579" on="0"/>
        <pt x="269" y="615" on="0"/>
        <pt x="301" y="615" on="1"/>
        <pt x="327" y="615" on="0"/>
        <pt x="368" y="575" on="0"/>
        <pt x="368" y="548" on="1"/>
        <pt x="368" y="518" on="0"/>
        <pt x="330" y="481" on="0"/>
        <pt x="301" y="481" on="1"/>
        <pt x="274" y="481" on="0"/>
        <pt x="234" y="521" on="0"/>
      </contour>
      <contour>
        <pt x="234" y="138" on="1"/>
        <pt x="234" y="169" on="0"/>
        <pt x="269" y="205" on="0"/>
        <pt x="301" y="205" on="1"/>
        <pt x="327" y="205" on="0"/>
        <pt x="368" y="165" on="0"/>
        <pt x="368" y="138" on="1"/>
        <pt x="368" y="108" on="0"/>
        <pt x="330" y="71" on="0"/>
        <pt x="301" y="71" on="1"/>
        <pt x="274" y="71" on="0"/>
        <pt x="234" y="111" on="0"/>
      </contour>
    </TTGlyph>
    <TTGlyph name="dollar" xMin="66" yMin="-95" xMax="514" yMax="795">
      <contour>
        <pt x="110" y="156" on="1"/>
        <pt x="143" y="128" on="0"/>
        <pt x="225" y="93" on="0"/>
        <pt x="281" y="93" on="1"/>
        <pt x="347" y="93" on="0"/>
        <pt x="424" y="148" on="0"/>
        <pt x="424" y="195" on="1"/>
        <pt x="424" y="215" on="0"/>
        <pt x="413" y="248" on="0"/>
        <pt x="381" y="278" on="0"/>
        <pt x="323" y="308" on="0"/>
        <pt x="277" y="326" on="1"/>
        <pt x="227" y="345" on="0"/>
        <pt x="159" y="384" on="0"/>
        <pt x="117" y="429" on="0"/>
        <pt x="98" y="482" on="0"/>
        <pt x="98" y="517" on="1"/>
        <pt x="98" y="548" on="0"/>
        <pt x="122" y="605" on="0"/>
        <pt x="169" y="648" on="0"/>
        <pt x="237" y="677" on="0"/>
        <pt x="281" y="681" on="1"/>
        <pt x="273" y="795" on="1"/>
        <pt x="361" y="795" on="1"/>
        <pt x="352" y="681" on="1"/>
        <pt x="397" y="678" on="0"/>
        <pt x="472" y="656" on="0"/>
        <pt x="508" y="639" on="1"/>
        <pt x="476" y="564" on="1"/>
        <pt x="444" y="582" on="0"/>
        <pt x="361" y="608" on="0"/>
        <pt x="315" y="608" on="1"/>
        <pt x="254" y="608" on="0"/>
        <pt x="184" y="560" on="0"/>
        <pt x="184" y="522" on="1"/>
        <pt x="184" y="504" on="0"/>
        <pt x="194" y="475" on="0"/>
        <pt x="224" y="448" on="0"/>
        <pt x="279" y="420" on="0"/>
        <pt x="324" y="404" on="1"/>
        <pt x="378" y="384" on="0"/>
        <pt x="451" y="342" on="0"/>
        <pt x="495" y="294" on="0"/>
        <pt x="514" y="239" on="0"/>
        <pt x="514" y="206" on="1"/>
        <pt x="514" y="166" on="0"/>
        <pt x="487" y="102" on="0"/>
        <pt x="438" y="55" on="0"/>
        <pt x="370" y="25" on="0"/>
        <pt x="330" y="20" on="1"/>
        <pt x="339" y="-95" on="1"/>
        <pt x="251" y="-95" on="1"/>
        <pt x="259" y="17" on="1"/>
        <pt x="199" y="21" on="0"/>
        <pt x="99" y="55" on="0"/>
        <pt x="66" y="82" on="1"/>
      </contour>
    </TTGlyph>
    <TTGlyph name="dotaccentcmb" xMin="40" yMin="609" xMax="166" yMax="735">
      <contour>
        <pt x="103" y="609" on="1"/>
        <pt x="77" y="609" on="0"/>
        <pt x="40" y="646" on="0"/>
        <pt x="40" y="672" on="1"/>
        <pt x="40" y="701" on="0"/>
        <pt x="74" y="735" on="0"/>
        <pt x="103" y="735" on="1"/>
        <pt x="129" y="735" on="0"/>
        <pt x="166" y="698" on="0"/>
        <pt x="166" y="672" on="1"/>
        <pt x="166" y="643" on="0"/>
        <pt x="132" y="609" on="0"/>
      </contour>
    </TTGlyph>
    <TTGlyph name="dotaccentcmb.cap" xMin="40" yMin="574" xMax="166" yMax="700">
      <contour>
        <pt x="103" y="574" on="1"/>
        <pt x="77" y="574" on="0"/>
        <pt x="40" y="611" on="0"/>
        <pt x="40" y="637" on="1"/>
        <pt x="40" y="666" on="0"/>
        <pt x="74" y="700" on="0"/>
        <pt x="103" y="700" on="1"/>
        <pt x="129" y="700" on="0"/>
        <pt x="166" y="663" on="0"/>
        <pt x="166" y="637" on="1"/>
        <pt x="166" y="608" on="0"/>
        <pt x="132" y="574" on="0"/>
      </contour>
    </TTGlyph>
    <TTGlyph name="dotlessi" xMin="80" yMin="0" xMax="170" yMax="520">
      <contour>
        <pt x="170" y="0" on="1"/>
        <pt x="80" y="0" on="1"/>
        <pt x="80" y="520" on="1"/>
        <pt x="170" y="520" on="1"/>
      </contour>
    </TTGlyph>
    <TTGlyph name="dotlessj" xMin="-85" yMin="-232" xMax="181" yMax="520">
      <contour>
        <pt x="91" y="-48" on="1"/>
        <pt x="91" y="520" on="1"/>
        <pt x="181" y="520" on="1"/>
        <pt x="181" y="-57" on="1"/>
        <pt x="181" y="-103" on="0"/>
        <pt x="155" y="-169" on="0"/>
        <pt x="111" y="-212" on="0"/>
        <pt x="51" y="-232" on="0"/>
        <pt x="17" y="-232" on="1"/>
        <pt x="-44" y="-232" on="0"/>
        <pt x="-85" y="-209" on="1"/>
        <pt x="-63" y="-134" on="1"/>
        <pt x="-50" y="-142" on="0"/>
        <pt x="-13" y="-154" on="0"/>
        <pt x="6" y="-154" on="1"/>
        <pt x="91" y="-154" on="0"/>
      </contour>
    </TTGlyph>
    <TTGlyph name="e" xMin="45" yMin="-12" xMax="504" yMax="532">
      <contour>
        <pt x="137" y="223" on="1"/>
        <pt x="146" y="150" on="0"/>
        <pt x="230" y="68" on="0"/>
        <pt x="299" y="68" on="1"/>
        <pt x="344" y="68" on="0"/>
        <pt x="416" y="87" on="0"/>
        <pt x="449" y="102" on="1"/>
        <pt x="470" y="25" on="1"/>
        <pt x="434" y="8" on="0"/>
        <pt x="344" y="-12" on="0"/>
        <pt x="288" y="-12" on="1"/>
        <pt x="232" y="-12" on="0"/>
        <pt x="142" y="25" on="0"/>
        <pt x="79" y="94" on="0"/>
        <pt x="45" y="195" on="0"/>
        <pt x="45" y="260" on="1"/>
        <pt x="45" y="318" on="0"/>
        <pt x="79" y="418" on="0"/>
        <pt x="141" y="491" on="0"/>
        <pt x="227" y="532" on="0"/>
        <pt x="280" y="532" on="1"/>
        <pt x="336" y="532" on="0"/>
        <pt x="420" y="494" on="0"/>
        <pt x="476" y="428" on="0"/>
        <pt x="504" y="340" on="0"/>
        <pt x="504" y="291" on="1"/>
        <pt x="504" y="256" on="0"/>
        <pt x="501" y="223" on="1"/>
      </contour>
      <contour>
        <pt x="278" y="454" on="1"/>
        <pt x="219" y="454" on="0"/>
        <pt x="144" y="374" on="0"/>
        <pt x="136" y="296" on="1"/>
        <pt x="421" y="296" on="1"/>
        <pt x="421" y="372" on="0"/>
        <pt x="345" y="454" on="0"/>
      </contour>
    </TTGlyph>
    <TTGlyph name="eacute" xMin="45" yMin="-12" xMax="504" yMax="761">
      <component glyphName="e" x="0" y="0" flags="0x204"/>
      <component glyphName="acute" x="133" y="0" flags="0x4"/>
    </TTGlyph>
    <TTGlyph name="ecircumflex" xMin="45" yMin="-12" xMax="504" yMax="740">
      <component glyphName="e" x="0" y="0" flags="0x204"/>
      <component glyphName="circumflex" x="56" y="0" flags="0x4"/>
    </TTGlyph>
    <TTGlyph name="edieresis" xMin="45" yMin="-12" xMax="504" yMax="727">
      <component glyphName="e" x="0" y="0" flags="0x204"/>
      <component glyphName="dieresis" x="85" y="0" flags="0x4"/>
    </TTGlyph>
    <TTGlyph name="egrave" xMin="45" yMin="-12" xMax="504" yMax="761">
      <component glyphName="e" x="0" y="0" flags="0x204"/>
      <component glyphName="grave" x="132" y="0" flags="0x4"/>
    </TTGlyph>
    <TTGlyph name="eight" xMin="56" yMin="-12" xMax="544" yMax="712">
      <contour>
        <pt x="203" y="377" on="1"/>
        <pt x="149" y="406" on="0"/>
        <pt x="93" y="483" on="0"/>
        <pt x="93" y="540" on="1"/>
        <pt x="93" y="578" on="0"/>
        <pt x="124" y="641" on="0"/>
        <pt x="179" y="687" on="0"/>
        <pt x="254" y="712" on="0"/>
        <pt x="297" y="712" on="1"/>
        <pt x="343" y="712" on="0"/>
        <pt x="420" y="686" on="0"/>
        <pt x="475" y="639" on="0"/>
        <pt x="506" y="577" on="0"/>
        <pt x="506" y="541" on="1"/>
        <pt x="506" y="480" on="0"/>
        <pt x="444" y="404" on="0"/>
        <pt x="392" y="378" on="1"/>
        <pt x="466" y="346" on="0"/>
        <pt x="544" y="255" on="0"/>
        <pt x="544" y="189" on="1"/>
        <pt x="544" y="144" on="0"/>
        <pt x="508" y="69" on="0"/>
        <pt x="444" y="17" on="0"/>
        <pt x="356" y="-12" on="0"/>
        <pt x="305" y="-12" on="1"/>
        <pt x="248" y="-12" on="0"/>
        <pt x="155" y="18" on="0"/>
        <pt x="91" y="71" on="0"/>
        <pt x="56" y="142" on="0"/>
        <pt x="56" y="183" on="1"/>
        <pt x="56" y="249" on="0"/>
        <pt x="126" y="344" on="0"/>
      </contour>
      <contour>
        <pt x="452" y="187" on="1"/>
        <pt x="452" y="235" on="0"/>
        <pt x="367" y="311" on="0"/>
        <pt x="292" y="338" on="1"/>
        <pt x="263" y="331" on="0"/>
        <pt x="211" y="306" on="0"/>
        <pt x="172" y="271" on="0"/>
        <pt x="148" y="226" on="0"/>
        <pt x="148" y="199" on="1"/>
        <pt x="148" y="171" on="0"/>
        <pt x="172" y="123" on="0"/>
        <pt x="214" y="88" on="0"/>
        <pt x="272" y="68" on="0"/>
        <pt x="306" y="68" on="1"/>
        <pt x="370" y="68" on="0"/>
        <pt x="452" y="134" on="0"/>
      </contour>
      <contour>
        <pt x="180" y="542" on="1"/>
        <pt x="180" y="498" on="0"/>
        <pt x="250" y="429" on="0"/>
        <pt x="310" y="411" on="1"/>
        <pt x="332" y="418" on="0"/>
        <pt x="371" y="442" on="0"/>
        <pt x="401" y="472" on="0"/>
        <pt x="419" y="510" on="0"/>
        <pt x="419" y="532" on="1"/>
        <pt x="419" y="555" on="0"/>
        <pt x="400" y="594" on="0"/>
        <pt x="367" y="622" on="0"/>
        <pt x="323" y="638" on="0"/>
        <pt x="297" y="638" on="1"/>
        <pt x="246" y="638" on="0"/>
        <pt x="180" y="585" on="0"/>
      </contour>
    </TTGlyph>
    <TTGlyph name="emdash" xMin="75" yMin="302" xMax="675" yMax="384">
      <contour>
        <pt x="75" y="302" on="1"/>
        <pt x="75" y="384" on="1"/>
        <pt x="675" y="384" on="1"/>
        <pt x="675" y="302" on="1"/>
      </contour>
    </TTGlyph>
    <TTGlyph name="endash" xMin="70" yMin="302" xMax="530" yMax="384">
      <contour>
        <pt x="70" y="302" on="1"/>
        <pt x="70" y="384" on="1"/>
        <pt x="530" y="384" on="1"/>
        <pt x="530" y="302" on="1"/>
      </contour>
    </TTGlyph>
    <TTGlyph name="equal" xMin="103" yMin="213" xMax="497" yMax="474">
      <contour>
        <pt x="103" y="395" on="1"/>
        <pt x="103" y="474" on="1"/>
        <pt x="497" y="474" on="1"/>
        <pt x="497" y="395" on="1"/>
      </contour>
      <contour>
        <pt x="103" y="213" on="1"/>
        <pt x="103" y="292" on="1"/>
        <pt x="497" y="292" on="1"/>
        <pt x="497" y="213" on="1"/>
      </contour>
    </TTGlyph>
    <TTGlyph name="eth" xMin="25" yMin="-12" xMax="492" yMax="758">
      <contour>
        <pt x="182" y="545" on="1"/>
        <pt x="241" y="612" on="1"/>
        <pt x="189" y="634" on="0"/>
        <pt x="131" y="634" on="1"/>
        <pt x="123" y="634" on="0"/>
        <pt x="103" y="633" on="0"/>
        <pt x="95" y="632" on="1"/>
        <pt x="95" y="713" on="1"/>
        <pt x="103" y="714" on="0"/>
        <pt x="124" y="715" on="0"/>
        <pt x="132" y="715" on="1"/>
        <pt x="220" y="715" on="0"/>
        <pt x="296" y="678" on="1"/>
        <pt x="357" y="758" on="1"/>
        <pt x="414" y="711" on="1"/>
        <pt x="354" y="642" on="1"/>
        <pt x="418" y="594" on="0"/>
        <pt x="492" y="441" on="0"/>
        <pt x="492" y="342" on="1"/>
        <pt x="492" y="263" on="0"/>
        <pt x="459" y="132" on="0"/>
        <pt x="395" y="39" on="0"/>
        <pt x="301" y="-12" on="0"/>
        <pt x="241" y="-12" on="1"/>
        <pt x="199" y="-12" on="0"/>
        <pt x="121" y="17" on="0"/>
        <pt x="61" y="73" on="0"/>
        <pt x="25" y="155" on="0"/>
        <pt x="25" y="207" on="1"/>
        <pt x="25" y="259" on="0"/>
        <pt x="61" y="343" on="0"/>
        <pt x="120" y="402" on="0"/>
        <pt x="196" y="433" on="0"/>
        <pt x="237" y="433" on="1"/>
        <pt x="291" y="433" on="0"/>
        <pt x="371" y="393" on="0"/>
        <pt x="400" y="366" on="1"/>
        <pt x="397" y="434" on="0"/>
        <pt x="344" y="542" on="0"/>
        <pt x="299" y="577" on="1"/>
        <pt x="240" y="498" on="1"/>
      </contour>
      <contour>
        <pt x="248" y="68" on="1"/>
        <pt x="313" y="68" on="0"/>
        <pt x="391" y="177" on="0"/>
        <pt x="400" y="289" on="1"/>
        <pt x="371" y="318" on="0"/>
        <pt x="297" y="357" on="0"/>
        <pt x="253" y="357" on="1"/>
        <pt x="226" y="357" on="0"/>
        <pt x="176" y="338" on="0"/>
        <pt x="138" y="302" on="0"/>
        <pt x="115" y="248" on="0"/>
        <pt x="115" y="214" on="1"/>
        <pt x="115" y="179" on="0"/>
        <pt x="136" y="125" on="0"/>
        <pt x="172" y="87" on="0"/>
        <pt x="220" y="68" on="0"/>
      </contour>
    </TTGlyph>
    <TTGlyph name="exclam" xMin="90" yMin="-12" xMax="224" yMax="729">
      <contour>
        <pt x="106" y="729" on="1"/>
        <pt x="206" y="729" on="1"/>
        <pt x="206" y="480" on="1"/>
        <pt x="193" y="207" on="1"/>
        <pt x="119" y="207" on="1"/>
        <pt x="106" y="480" on="1"/>
      </contour>
      <contour>
        <pt x="90" y="55" on="1"/>
        <pt x="90" y="86" on="0"/>
        <pt x="125" y="122" on="0"/>
        <pt x="157" y="122" on="1"/>
        <pt x="183" y="122" on="0"/>
        <pt x="224" y="82" on="0"/>
        <pt x="224" y="55" on="1"/>
        <pt x="224" y="25" on="0"/>
        <pt x="186" y="-12" on="0"/>
        <pt x="157" y="-12" on="1"/>
        <pt x="130" y="-12" on="0"/>
        <pt x="90" y="28" on="0"/>
      </contour>
    </TTGlyph>
    <TTGlyph name="exclamdown" xMin="90" yMin="-220" xMax="224" yMax="532">
      <contour>
        <pt x="105" y="41" on="1"/>
        <pt x="118" y="314" on="1"/>
        <pt x="192" y="314" on="1"/>
        <pt x="205" y="41" on="1"/>
        <pt x="205" y="-220" on="1"/>
        <pt x="105" y="-220" on="1"/>
      </contour>
      <contour>
        <pt x="90" y="465" on="1"/>
        <pt x="90" y="496" on="0"/>
        <pt x="125" y="532" on="0"/>
        <pt x="157" y="532" on="1"/>
        <pt x="183" y="532" on="0"/>
        <pt x="224" y="492" on="0"/>
        <pt x="224" y="465" on="1"/>
        <pt x="224" y="435" on="0"/>
        <pt x="186" y="398" on="0"/>
        <pt x="157" y="398" on="1"/>
        <pt x="130" y="398" on="0"/>
        <pt x="90" y="438" on="0"/>
      </contour>
    </TTGlyph>
    <TTGlyph name="f" xMin="10" yMin="0" xMax="398" yMax="752">
      <contour>
        <pt x="371" y="643" on="1"/>
        <pt x="350" y="654" on="0"/>
        <pt x="302" y="672" on="0"/>
        <pt x="273" y="672" on="1"/>
        <pt x="231" y="672" on="0"/>
        <pt x="180" y="619" on="0"/>
        <pt x="180" y="568" on="1"/>
        <pt x="180" y="501" on="1"/>
        <pt x="334" y="501" on="1"/>
        <pt x="334" y="423" on="1"/>
        <pt x="180" y="423" on="1"/>
        <pt x="180" y="0" on="1"/>
        <pt x="90" y="0" on="1"/>
        <pt x="90" y="423" on="1"/>
        <pt x="10" y="423" on="1"/>
        <pt x="10" y="501" on="1"/>
        <pt x="90" y="501" on="1"/>
        <pt x="90" y="562" on="1"/>
        <pt x="90" y="606" on="0"/>
        <pt x="116" y="676" on="0"/>
        <pt x="162" y="726" on="0"/>
        <pt x="228" y="752" on="0"/>
        <pt x="267" y="752" on="1"/>
        <pt x="309" y="752" on="0"/>
        <pt x="370" y="733" on="0"/>
        <pt x="398" y="719" on="1"/>
      </contour>
    </TTGlyph>
    <TTGlyph name="five" xMin="85" yMin="-12" xMax="515" yMax="700">
      <contour>
        <pt x="515" y="217" on="1"/>
        <pt x="515" y="167" on="0"/>
        <pt x="480" y="83" on="0"/>
        <pt x="415" y="22" on="0"/>
        <pt x="325" y="-12" on="0"/>
        <pt x="270" y="-12" on="1"/>
        <pt x="208" y="-12" on="0"/>
        <pt x="121" y="15" on="0"/>
        <pt x="85" y="40" on="1"/>
        <pt x="132" y="117" on="1"/>
        <pt x="160" y="97" on="0"/>
        <pt x="228" y="70" on="0"/>
        <pt x="271" y="70" on="1"/>
        <pt x="304" y="70" on="0"/>
        <pt x="359" y="90" on="0"/>
        <pt x="398" y="127" on="0"/>
        <pt x="420" y="177" on="0"/>
        <pt x="420" y="207" on="1"/>
        <pt x="420" y="270" on="0"/>
        <pt x="335" y="348" on="0"/>
        <pt x="256" y="348" on="1"/>
        <pt x="132" y="348" on="1"/>
        <pt x="132" y="700" on="1"/>
        <pt x="478" y="700" on="1"/>
        <pt x="478" y="619" on="1"/>
        <pt x="217" y="619" on="1"/>
        <pt x="217" y="429" on="1"/>
        <pt x="267" y="429" on="1"/>
        <pt x="325" y="429" on="0"/>
        <pt x="417" y="398" on="0"/>
        <pt x="481" y="341" on="0"/>
        <pt x="515" y="263" on="0"/>
      </contour>
    </TTGlyph>
    <TTGlyph name="foundryicon" xMin="144" yMin="0" xMax="720" yMax="576">
      <contour>
        <pt x="144" y="0" on="1"/>
        <pt x="144" y="576" on="1"/>
        <pt x="432" y="576" on="1"/>
        <pt x="432" y="288" on="1"/>
        <pt x="720" y="288" on="1"/>
        <pt x="720" y="0" on="1"/>
      </contour>
      <contour>
        <pt x="576" y="432" on="1"/>
        <pt x="576" y="576" on="1"/>
        <pt x="720" y="576" on="1"/>
        <pt x="720" y="432" on="1"/>
      </contour>
    </TTGlyph>
    <TTGlyph name="four" xMin="64" yMin="0" xMax="536" yMax="707">
      <contour>
        <pt x="453" y="149" on="1"/>
        <pt x="453" y="0" on="1"/>
        <pt x="363" y="0" on="1"/>
        <pt x="363" y="149" on="1"/>
        <pt x="64" y="149" on="1"/>
        <pt x="64" y="221" on="1"/>
        <pt x="273" y="707" on="1"/>
        <pt x="351" y="674" on="1"/>
        <pt x="162" y="231" on="1"/>
        <pt x="363" y="231" on="1"/>
        <pt x="363" y="430" on="1"/>
        <pt x="453" y="430" on="1"/>
        <pt x="453" y="231" on="1"/>
        <pt x="536" y="231" on="1"/>
        <pt x="536" y="149" on="1"/>
      </contour>
    </TTGlyph>
    <TTGlyph name="g" xMin="45" yMin="-232" xMax="510" yMax="532">
      <contour>
        <pt x="286" y="532" on="1"/>
        <pt x="331" y="532" on="0"/>
        <pt x="402" y="502" on="0"/>
        <pt x="428" y="480" on="1"/>
        <pt x="428" y="520" on="1"/>
        <pt x="510" y="520" on="1"/>
        <pt x="510" y="12" on="1"/>
        <pt x="510" y="-53" on="0"/>
        <pt x="476" y="-145" on="0"/>
        <pt x="413" y="-204" on="0"/>
        <pt x="325" y="-232" on="0"/>
        <pt x="271" y="-232" on="1"/>
        <pt x="224" y="-232" on="0"/>
        <pt x="138" y="-210" on="0"/>
        <pt x="104" y="-188" on="1"/>
        <pt x="137" y="-110" on="1"/>
        <pt x="161" y="-129" on="0"/>
        <pt x="225" y="-154" on="0"/>
        <pt x="271" y="-154" on="1"/>
        <pt x="342" y="-154" on="0"/>
        <pt x="423" y="-80" on="0"/>
        <pt x="423" y="3" on="1"/>
        <pt x="423" y="67" on="1"/>
        <pt x="403" y="43" on="0"/>
        <pt x="328" y="0" on="0"/>
        <pt x="276" y="0" on="1"/>
        <pt x="232" y="0" on="0"/>
        <pt x="148" y="35" on="0"/>
        <pt x="84" y="102" on="0"/>
        <pt x="45" y="199" on="0"/>
        <pt x="45" y="262" on="1"/>
        <pt x="45" y="320" on="0"/>
        <pt x="83" y="419" on="0"/>
        <pt x="148" y="491" on="0"/>
        <pt x="236" y="532" on="0"/>
      </contour>
      <contour>
        <pt x="296" y="80" on="1"/>
        <pt x="336" y="80" on="0"/>
        <pt x="400" y="116" on="0"/>
        <pt x="420" y="140" on="1"/>
        <pt x="420" y="412" on="1"/>
        <pt x="397" y="428" on="0"/>
        <pt x="337" y="454" on="0"/>
        <pt x="295" y="454" on="1"/>
        <pt x="264" y="454" on="0"/>
        <pt x="207" y="429" on="0"/>
        <pt x="163" y="381" on="0"/>
        <pt x="137" y="312" on="0"/>
        <pt x="137" y="267" on="1"/>
        <pt x="137" y="224" on="0"/>
        <pt x="163" y="155" on="0"/>
        <pt x="207" y="106" on="0"/>
        <pt x="264" y="80" on="0"/>
      </contour>
    </TTGlyph>
    <TTGlyph name="germandbls" xMin="30" yMin="-220" xMax="590" yMax="752">
      <contour>
        <pt x="370" y="-12" on="1"/>
        <pt x="310" y="-12" on="0"/>
        <pt x="269" y="7" on="1"/>
        <pt x="289" y="85" on="1"/>
        <pt x="323" y="68" on="0"/>
        <pt x="367" y="68" on="1"/>
        <pt x="424" y="68" on="0"/>
        <pt x="498" y="139" on="0"/>
        <pt x="498" y="202" on="1"/>
        <pt x="498" y="233" on="0"/>
        <pt x="474" y="287" on="0"/>
        <pt x="428" y="328" on="0"/>
        <pt x="362" y="352" on="0"/>
        <pt x="319" y="352" on="1"/>
        <pt x="319" y="425" on="1"/>
        <pt x="361" y="425" on="0"/>
        <pt x="422" y="449" on="0"/>
        <pt x="461" y="487" on="0"/>
        <pt x="479" y="536" on="0"/>
        <pt x="479" y="560" on="1"/>
        <pt x="479" y="611" on="0"/>
        <pt x="411" y="672" on="0"/>
        <pt x="360" y="672" on="1"/>
        <pt x="328" y="672" on="0"/>
        <pt x="273" y="648" on="0"/>
        <pt x="233" y="589" on="0"/>
        <pt x="210" y="490" on="0"/>
        <pt x="210" y="415" on="1"/>
        <pt x="210" y="-220" on="1"/>
        <pt x="120" y="-220" on="1"/>
        <pt x="120" y="349" on="1"/>
        <pt x="120" y="399" on="0"/>
        <pt x="72" y="439" on="0"/>
        <pt x="30" y="439" on="1"/>
        <pt x="53" y="520" on="1"/>
        <pt x="86" y="520" on="0"/>
        <pt x="126" y="498" on="0"/>
        <pt x="138" y="477" on="1"/>
        <pt x="138" y="548" on="0"/>
        <pt x="171" y="652" on="0"/>
        <pt x="232" y="719" on="0"/>
        <pt x="317" y="752" on="0"/>
        <pt x="368" y="752" on="1"/>
        <pt x="411" y="752" on="0"/>
        <pt x="485" y="724" on="0"/>
        <pt x="537" y="675" on="0"/>
        <pt x="567" y="610" on="0"/>
        <pt x="567" y="574" on="1"/>
        <pt x="567" y="509" on="0"/>
        <pt x="506" y="424" on="0"/>
        <pt x="443" y="397" on="1"/>
        <pt x="516" y="372" on="0"/>
        <pt x="590" y="274" on="0"/>
        <pt x="590" y="204" on="1"/>
        <pt x="590" y="158" on="0"/>
        <pt x="559" y="79" on="0"/>
        <pt x="502" y="21" on="0"/>
        <pt x="421" y="-12" on="0"/>
      </contour>
    </TTGlyph>
    <TTGlyph name="grave" xMin="40" yMin="575" xMax="271" yMax="761">
      <contour>
        <pt x="240" y="575" on="1"/>
        <pt x="40" y="677" on="1"/>
        <pt x="82" y="761" on="1"/>
        <pt x="271" y="636" on="1"/>
      </contour>
    </TTGlyph>
    <TTGlyph name="grave.cap" xMin="40" yMin="554" xMax="271" yMax="740">
      <contour>
        <pt x="240" y="554" on="1"/>
        <pt x="40" y="656" on="1"/>
        <pt x="82" y="740" on="1"/>
        <pt x="271" y="615" on="1"/>
      </contour>
    </TTGlyph>
    <TTGlyph name="greater" xMin="123" yMin="114" xMax="487" yMax="572">
      <contour>
        <pt x="167" y="572" on="1"/>
        <pt x="487" y="371" on="1"/>
        <pt x="487" y="314" on="1"/>
        <pt x="168" y="114" on="1"/>
        <pt x="123" y="185" on="1"/>
        <pt x="382" y="343" on="1"/>
        <pt x="123" y="502" on="1"/>
      </contour>
    </TTGlyph>
    <TTGlyph name="guillemotleft" xMin="60" yMin="129" xMax="476" yMax="559">
      <component glyphName="guilsinglleft" x="0" y="0" flags="0x4"/>
      <component glyphName="guilsinglleft" x="200" y="0" flags="0x4"/>
    </TTGlyph>
    <TTGlyph name="guillemotright" xMin="90" yMin="129" xMax="506" yMax="559">
      <component glyphName="guilsinglright" x="0" y="0" flags="0x4"/>
      <component glyphName="guilsinglright" x="200" y="0" flags="0x4"/>
    </TTGlyph>
    <TTGlyph name="guilsinglleft" xMin="60" yMin="129" xMax="276" yMax="559">
      <contour>
        <pt x="218" y="129" on="1"/>
        <pt x="60" y="323" on="1"/>
        <pt x="60" y="365" on="1"/>
        <pt x="218" y="559" on="1"/>
        <pt x="276" y="510" on="1"/>
        <pt x="134" y="344" on="1"/>
        <pt x="276" y="178" on="1"/>
      </contour>
    </TTGlyph>
    <TTGlyph name="guilsinglright" xMin="90" yMin="129" xMax="306" yMax="559">
      <contour>
        <pt x="90" y="178" on="1"/>
        <pt x="232" y="344" on="1"/>
        <pt x="90" y="510" on="1"/>
        <pt x="148" y="559" on="1"/>
        <pt x="306" y="365" on="1"/>
        <pt x="306" y="323" on="1"/>
        <pt x="148" y="129" on="1"/>
      </contour>
    </TTGlyph>
    <TTGlyph name="h" xMin="80" yMin="0" xMax="517" yMax="740">
      <contour>
        <pt x="170" y="437" on="1"/>
        <pt x="198" y="478" on="0"/>
        <pt x="283" y="532" on="0"/>
        <pt x="342" y="532" on="1"/>
        <pt x="430" y="532" on="0"/>
        <pt x="517" y="426" on="0"/>
        <pt x="517" y="339" on="1"/>
        <pt x="517" y="0" on="1"/>
        <pt x="427" y="0" on="1"/>
        <pt x="427" y="329" on="1"/>
        <pt x="427" y="386" on="0"/>
        <pt x="376" y="453" on="0"/>
        <pt x="328" y="453" on="1"/>
        <pt x="305" y="453" on="0"/>
        <pt x="260" y="436" on="0"/>
        <pt x="220" y="406" on="0"/>
        <pt x="184" y="366" on="0"/>
        <pt x="170" y="344" on="1"/>
        <pt x="170" y="0" on="1"/>
        <pt x="80" y="0" on="1"/>
        <pt x="80" y="740" on="1"/>
        <pt x="170" y="740" on="1"/>
      </contour>
    </TTGlyph>
    <TTGlyph name="hbar" xMin="10" yMin="0" xMax="526" yMax="740">
      <contour>
        <pt x="179" y="651" on="1"/>
        <pt x="301" y="651" on="1"/>
        <pt x="301" y="585" on="1"/>
        <pt x="179" y="585" on="1"/>
        <pt x="179" y="437" on="1"/>
        <pt x="207" y="478" on="0"/>
        <pt x="292" y="532" on="0"/>
        <pt x="351" y="532" on="1"/>
        <pt x="439" y="532" on="0"/>
        <pt x="526" y="426" on="0"/>
        <pt x="526" y="339" on="1"/>
        <pt x="526" y="0" on="1"/>
        <pt x="436" y="0" on="1"/>
        <pt x="436" y="329" on="1"/>
        <pt x="436" y="386" on="0"/>
        <pt x="385" y="453" on="0"/>
        <pt x="337" y="453" on="1"/>
        <pt x="314" y="453" on="0"/>
        <pt x="269" y="436" on="0"/>
        <pt x="229" y="406" on="0"/>
        <pt x="193" y="366" on="0"/>
        <pt x="179" y="344" on="1"/>
        <pt x="179" y="0" on="1"/>
        <pt x="89" y="0" on="1"/>
        <pt x="89" y="585" on="1"/>
        <pt x="10" y="585" on="1"/>
        <pt x="10" y="651" on="1"/>
        <pt x="89" y="651" on="1"/>
        <pt x="89" y="740" on="1"/>
        <pt x="179" y="740" on="1"/>
      </contour>
    </TTGlyph>
    <TTGlyph name="hyphen" xMin="130" yMin="302" xMax="470" yMax="384">
      <contour>
        <pt x="130" y="302" on="1"/>
        <pt x="130" y="384" on="1"/>
        <pt x="470" y="384" on="1"/>
        <pt x="470" y="302" on="1"/>
      </contour>
    </TTGlyph>
    <TTGlyph name="i" xMin="62" yMin="0" xMax="188" yMax="735">
      <contour>
        <pt x="170" y="0" on="1"/>
        <pt x="80" y="0" on="1"/>
        <pt x="80" y="520" on="1"/>
        <pt x="170" y="520" on="1"/>
      </contour>
      <contour>
        <pt x="125" y="609" on="1"/>
        <pt x="99" y="609" on="0"/>
        <pt x="62" y="646" on="0"/>
        <pt x="62" y="672" on="1"/>
        <pt x="62" y="701" on="0"/>
        <pt x="96" y="735" on="0"/>
        <pt x="125" y="735" on="1"/>
        <pt x="151" y="735" on="0"/>
        <pt x="188" y="698" on="0"/>
        <pt x="188" y="672" on="1"/>
        <pt x="188" y="643" on="0"/>
        <pt x="154" y="609" on="0"/>
      </contour>
    </TTGlyph>
    <TTGlyph name="iacute" xMin="12" yMin="0" xMax="243" yMax="761">
      <component glyphName="dotlessi" x="0" y="0" flags="0x204"/>
      <component glyphName="acute" x="-28" y="0" flags="0x4"/>
    </TTGlyph>
    <TTGlyph name="icircumflex" xMin="-52" yMin="0" xMax="304" yMax="740">
      <component glyphName="dotlessi" x="0" y="0" flags="0x204"/>
      <component glyphName="circumflex" x="-102" y="0" flags="0x4"/>
    </TTGlyph>
    <TTGlyph name="idieresis" xMin="-25" yMin="0" xMax="277" yMax="727">
      <component glyphName="dotlessi" x="0" y="0" flags="0x204"/>
      <component glyphName="dieresis" x="-75" y="0" flags="0x4"/>
    </TTGlyph>
    <TTGlyph name="igrave" xMin="14" yMin="0" xMax="245" yMax="761">
      <component glyphName="dotlessi" x="0" y="0" flags="0x204"/>
      <component glyphName="grave" x="-26" y="0" flags="0x4"/>
    </TTGlyph>
    <TTGlyph name="ij" xMin="61" yMin="-232" xMax="449" yMax="735">
      <component glyphName="i" x="-1" y="0" flags="0x4"/>
      <component glyphName="j" x="250" y="0" flags="0x4"/>
    </TTGlyph>
    <TTGlyph name="itilde" xMin="-35" yMin="0" xMax="288" yMax="722">
      <component glyphName="dotlessi" x="0" y="0" flags="0x204"/>
      <component glyphName="tilde" x="-85" y="0" flags="0x4"/>
    </TTGlyph>
    <TTGlyph name="j" xMin="-85" yMin="-232" xMax="199" yMax="735">
      <contour>
        <pt x="91" y="520" on="1"/>
        <pt x="181" y="520" on="1"/>
        <pt x="181" y="-57" on="1"/>
        <pt x="181" y="-103" on="0"/>
        <pt x="155" y="-169" on="0"/>
        <pt x="111" y="-212" on="0"/>
        <pt x="51" y="-232" on="0"/>
        <pt x="17" y="-232" on="1"/>
        <pt x="-44" y="-232" on="0"/>
        <pt x="-85" y="-209" on="1"/>
        <pt x="-63" y="-134" on="1"/>
        <pt x="-50" y="-142" on="0"/>
        <pt x="-13" y="-154" on="0"/>
        <pt x="6" y="-154" on="1"/>
        <pt x="91" y="-154" on="0"/>
        <pt x="91" y="-48" on="1"/>
      </contour>
      <contour>
        <pt x="136" y="609" on="1"/>
        <pt x="110" y="609" on="0"/>
        <pt x="73" y="646" on="0"/>
        <pt x="73" y="672" on="1"/>
        <pt x="73" y="701" on="0"/>
        <pt x="107" y="735" on="0"/>
        <pt x="136" y="735" on="1"/>
        <pt x="162" y="735" on="0"/>
        <pt x="199" y="698" on="0"/>
        <pt x="199" y="672" on="1"/>
        <pt x="199" y="643" on="0"/>
        <pt x="165" y="609" on="0"/>
      </contour>
    </TTGlyph>
    <TTGlyph name="jcircumflex" xMin="-85" yMin="-232" xMax="315" yMax="740">
      <component glyphName="circumflex" x="-91" y="0" flags="0x4"/>
      <component glyphName="dotlessj" x="0" y="0" flags="0x4"/>
    </TTGlyph>
    <TTGlyph name="k" xMin="80" yMin="-10" xMax="501" yMax="740">
      <contour>
        <pt x="80" y="740" on="1"/>
        <pt x="170" y="740" on="1"/>
        <pt x="170" y="317" on="1"/>
        <pt x="405" y="530" on="1"/>
        <pt x="457" y="473" on="1"/>
        <pt x="256" y="295" on="1"/>
        <pt x="501" y="50" on="1"/>
        <pt x="439" y="-10" on="1"/>
        <pt x="170" y="267" on="1"/>
        <pt x="170" y="0" on="1"/>
        <pt x="80" y="0" on="1"/>
      </contour>
    </TTGlyph>
    <TTGlyph name="kcommaaccent" xMin="80" yMin="-224" xMax="501" yMax="740">
      <component glyphName="k" x="0" y="0" flags="0x204"/>
      <component glyphName="commaaccent" x="131" y="38" flags="0x4"/>
    </TTGlyph>
    <TTGlyph name="kgreenlandic" xMin="80" yMin="-7" xMax="487" yMax="527">
      <contour>
        <pt x="80" y="520" on="1"/>
        <pt x="170" y="520" on="1"/>
        <pt x="170" y="295" on="1"/>
        <pt x="398" y="527" on="1"/>
        <pt x="454" y="471" on="1"/>
        <pt x="252" y="274" on="1"/>
        <pt x="487" y="54" on="1"/>
        <pt x="426" y="-7" on="1"/>
        <pt x="170" y="246" on="1"/>
        <pt x="170" y="0" on="1"/>
        <pt x="80" y="0" on="1"/>
      </contour>
    </TTGlyph>
    <TTGlyph name="l" xMin="75" yMin="-12" xMax="341" yMax="740">
      <contour>
        <pt x="165" y="172" on="1"/>
        <pt x="165" y="118" on="0"/>
        <pt x="210" y="66" on="0"/>
        <pt x="250" y="66" on="1"/>
        <pt x="269" y="66" on="0"/>
        <pt x="305" y="75" on="0"/>
        <pt x="319" y="81" on="1"/>
        <pt x="341" y="8" on="1"/>
        <pt x="323" y="0" on="0"/>
        <pt x="270" y="-12" on="0"/>
        <pt x="238" y="-12" on="1"/>
        <pt x="203" y="-12" on="0"/>
        <pt x="144" y="8" on="0"/>
        <pt x="100" y="50" on="0"/>
        <pt x="75" y="116" on="0"/>
        <pt x="75" y="163" on="1"/>
        <pt x="75" y="740" on="1"/>
        <pt x="165" y="740" on="1"/>
      </contour>
    </TTGlyph>
    <TTGlyph name="ldot" xMin="75" yMin="-12" xMax="363" yMax="740">
      <component glyphName="l" x="0" y="0" flags="0x4"/>
      <component glyphName="period" x="146" y="300" flags="0x4"/>
    </TTGlyph>
    <TTGlyph name="less" xMin="113" yMin="114" xMax="477" yMax="572">
      <contour>
        <pt x="477" y="185" on="1"/>
        <pt x="432" y="114" on="1"/>
        <pt x="113" y="314" on="1"/>
        <pt x="113" y="371" on="1"/>
        <pt x="433" y="572" on="1"/>
        <pt x="477" y="502" on="1"/>
        <pt x="218" y="343" on="1"/>
      </contour>
    </TTGlyph>
    <TTGlyph name="logicalnot" xMin="65" yMin="120" xMax="535" yMax="383">
      <contour>
        <pt x="535" y="120" on="1"/>
        <pt x="445" y="120" on="1"/>
        <pt x="445" y="301" on="1"/>
        <pt x="65" y="301" on="1"/>
        <pt x="65" y="383" on="1"/>
        <pt x="535" y="383" on="1"/>
      </contour>
    </TTGlyph>
    <TTGlyph name="lslash" xMin="0" yMin="-12" xMax="356" yMax="740">
      <contour>
        <pt x="180" y="439" on="1"/>
        <pt x="305" y="497" on="1"/>
        <pt x="336" y="430" on="1"/>
        <pt x="180" y="358" on="1"/>
        <pt x="180" y="172" on="1"/>
        <pt x="180" y="118" on="0"/>
        <pt x="225" y="66" on="0"/>
        <pt x="265" y="66" on="1"/>
        <pt x="284" y="66" on="0"/>
        <pt x="320" y="75" on="0"/>
        <pt x="334" y="81" on="1"/>
        <pt x="356" y="8" on="1"/>
        <pt x="338" y="0" on="0"/>
        <pt x="285" y="-12" on="0"/>
        <pt x="253" y="-12" on="1"/>
        <pt x="218" y="-12" on="0"/>
        <pt x="159" y="8" on="0"/>
        <pt x="115" y="50" on="0"/>
        <pt x="90" y="116" on="0"/>
        <pt x="90" y="163" on="1"/>
        <pt x="90" y="316" on="1"/>
        <pt x="31" y="289" on="1"/>
        <pt x="0" y="356" on="1"/>
        <pt x="90" y="398" on="1"/>
        <pt x="90" y="740" on="1"/>
        <pt x="180" y="740" on="1"/>
      </contour>
    </TTGlyph>
    <TTGlyph name="m" xMin="80" yMin="0" xMax="840" yMax="532">
      <contour>
        <pt x="167" y="433" on="1"/>
        <pt x="195" y="475" on="0"/>
        <pt x="280" y="532" on="0"/>
        <pt x="336" y="532" on="1"/>
        <pt x="398" y="532" on="0"/>
        <pt x="476" y="473" on="0"/>
        <pt x="493" y="422" on="1"/>
        <pt x="524" y="468" on="0"/>
        <pt x="609" y="532" on="0"/>
        <pt x="672" y="532" on="1"/>
        <pt x="714" y="532" on="0"/>
        <pt x="777" y="504" on="0"/>
        <pt x="819" y="453" on="0"/>
        <pt x="840" y="382" on="0"/>
        <pt x="840" y="339" on="1"/>
        <pt x="840" y="0" on="1"/>
        <pt x="750" y="0" on="1"/>
        <pt x="750" y="332" on="1"/>
        <pt x="750" y="386" on="0"/>
        <pt x="700" y="453" on="0"/>
        <pt x="656" y="453" on="1"/>
        <pt x="633" y="453" on="0"/>
        <pt x="591" y="435" on="0"/>
        <pt x="553" y="404" on="0"/>
        <pt x="519" y="363" on="0"/>
        <pt x="505" y="341" on="1"/>
        <pt x="505" y="0" on="1"/>
        <pt x="415" y="0" on="1"/>
        <pt x="415" y="332" on="1"/>
        <pt x="415" y="386" on="0"/>
        <pt x="365" y="453" on="0"/>
        <pt x="321" y="453" on="1"/>
        <pt x="299" y="453" on="0"/>
        <pt x="257" y="436" on="0"/>
        <pt x="218" y="406" on="0"/>
        <pt x="184" y="366" on="0"/>
        <pt x="170" y="344" on="1"/>
        <pt x="170" y="0" on="1"/>
        <pt x="80" y="0" on="1"/>
        <pt x="80" y="520" on="1"/>
        <pt x="167" y="520" on="1"/>
      </contour>
    </TTGlyph>
    <TTGlyph name="macron" xMin="60" yMin="627" xMax="350" yMax="700">
      <contour>
        <pt x="60" y="627" on="1"/>
        <pt x="60" y="700" on="1"/>
        <pt x="350" y="700" on="1"/>
        <pt x="350" y="627" on="1"/>
      </contour>
    </TTGlyph>
    <TTGlyph name="mu" xMin="90" yMin="-220" xMax="510" yMax="520">
      <contour>
        <pt x="90" y="520" on="1"/>
        <pt x="176" y="520" on="1"/>
        <pt x="176" y="189" on="1"/>
        <pt x="176" y="157" on="0"/>
        <pt x="194" y="111" on="0"/>
        <pt x="224" y="82" on="0"/>
        <pt x="264" y="68" on="0"/>
        <pt x="285" y="68" on="1"/>
        <pt x="319" y="68" on="0"/>
        <pt x="391" y="97" on="0"/>
        <pt x="424" y="127" on="1"/>
        <pt x="424" y="520" on="1"/>
        <pt x="510" y="520" on="1"/>
        <pt x="510" y="0" on="1"/>
        <pt x="427" y="0" on="1"/>
        <pt x="427" y="59" on="1"/>
        <pt x="392" y="25" on="0"/>
        <pt x="312" y="-12" on="0"/>
        <pt x="271" y="-12" on="1"/>
        <pt x="233" y="-12" on="0"/>
        <pt x="186" y="10" on="0"/>
        <pt x="171" y="29" on="1"/>
        <pt x="171" y="-220" on="1"/>
        <pt x="90" y="-220" on="1"/>
      </contour>
    </TTGlyph>
    <TTGlyph name="multiply" xMin="111" yMin="156" xMax="489" yMax="534">
      <contour>
        <pt x="111" y="479" on="1"/>
        <pt x="166" y="534" on="1"/>
        <pt x="300" y="398" on="1"/>
        <pt x="434" y="534" on="1"/>
        <pt x="489" y="479" on="1"/>
        <pt x="354" y="344" on="1"/>
        <pt x="489" y="210" on="1"/>
        <pt x="434" y="156" on="1"/>
        <pt x="300" y="290" on="1"/>
        <pt x="166" y="156" on="1"/>
        <pt x="111" y="210" on="1"/>
        <pt x="246" y="344" on="1"/>
      </contour>
    </TTGlyph>
    <TTGlyph name="n" xMin="80" yMin="0" xMax="517" yMax="532">
      <contour>
        <pt x="167" y="433" on="1"/>
        <pt x="195" y="475" on="0"/>
        <pt x="282" y="532" on="0"/>
        <pt x="342" y="532" on="1"/>
        <pt x="430" y="532" on="0"/>
        <pt x="517" y="426" on="0"/>
        <pt x="517" y="339" on="1"/>
        <pt x="517" y="0" on="1"/>
        <pt x="427" y="0" on="1"/>
        <pt x="427" y="329" on="1"/>
        <pt x="427" y="386" on="0"/>
        <pt x="375" y="453" on="0"/>
        <pt x="327" y="453" on="1"/>
        <pt x="304" y="453" on="0"/>
        <pt x="260" y="436" on="0"/>
        <pt x="219" y="406" on="0"/>
        <pt x="184" y="366" on="0"/>
        <pt x="170" y="344" on="1"/>
        <pt x="170" y="0" on="1"/>
        <pt x="80" y="0" on="1"/>
        <pt x="80" y="520" on="1"/>
        <pt x="167" y="520" on="1"/>
      </contour>
    </TTGlyph>
    <TTGlyph name="nacute" xMin="80" yMin="0" xMax="517" yMax="761">
      <component glyphName="n" x="0" y="0" flags="0x204"/>
      <component glyphName="acute" x="160" y="0" flags="0x4"/>
    </TTGlyph>
    <TTGlyph name="nine" xMin="65" yMin="-12" xMax="515" yMax="712">
      <contour>
        <pt x="135" y="133" on="1"/>
        <pt x="195" y="70" on="0"/>
        <pt x="269" y="70" on="1"/>
        <pt x="300" y="70" on="0"/>
        <pt x="356" y="101" on="0"/>
        <pt x="398" y="165" on="0"/>
        <pt x="423" y="266" on="0"/>
        <pt x="423" y="336" on="1"/>
        <pt x="392" y="307" on="0"/>
        <pt x="317" y="270" on="0"/>
        <pt x="272" y="270" on="1"/>
        <pt x="232" y="270" on="0"/>
        <pt x="158" y="297" on="0"/>
        <pt x="100" y="351" on="0"/>
        <pt x="65" y="431" on="0"/>
        <pt x="65" y="484" on="1"/>
        <pt x="65" y="531" on="0"/>
        <pt x="98" y="614" on="0"/>
        <pt x="157" y="676" on="0"/>
        <pt x="240" y="712" on="0"/>
        <pt x="291" y="712" on="1"/>
        <pt x="343" y="712" on="0"/>
        <pt x="417" y="680" on="0"/>
        <pt x="442" y="654" on="1"/>
        <pt x="460" y="635" on="0"/>
        <pt x="487" y="589" on="0"/>
        <pt x="506" y="523" on="0"/>
        <pt x="515" y="431" on="0"/>
        <pt x="515" y="366" on="1"/>
        <pt x="515" y="266" on="0"/>
        <pt x="477" y="123" on="0"/>
        <pt x="409" y="31" on="0"/>
        <pt x="318" y="-12" on="0"/>
        <pt x="264" y="-12" on="1"/>
        <pt x="206" y="-12" on="0"/>
        <pt x="114" y="29" on="0"/>
        <pt x="76" y="66" on="1"/>
      </contour>
      <contour>
        <pt x="287" y="344" on="1"/>
        <pt x="325" y="344" on="0"/>
        <pt x="396" y="382" on="0"/>
        <pt x="423" y="409" on="1"/>
        <pt x="423" y="439" on="1"/>
        <pt x="423" y="534" on="0"/>
        <pt x="350" y="632" on="0"/>
        <pt x="288" y="632" on="1"/>
        <pt x="259" y="632" on="0"/>
        <pt x="210" y="611" on="0"/>
        <pt x="173" y="574" on="0"/>
        <pt x="152" y="521" on="0"/>
        <pt x="152" y="488" on="1"/>
        <pt x="152" y="454" on="0"/>
        <pt x="174" y="401" on="0"/>
        <pt x="211" y="364" on="0"/>
        <pt x="260" y="344" on="0"/>
      </contour>
    </TTGlyph>
    <TTGlyph name="ntilde" xMin="80" yMin="0" xMax="517" yMax="722">
      <component glyphName="n" x="0" y="0" flags="0x204"/>
      <component glyphName="tilde" x="96" y="0" flags="0x4"/>
    </TTGlyph>
    <TTGlyph name="numbersign" xMin="71" yMin="0" xMax="679" yMax="644">
      <contour>
        <pt x="140" y="0" on="1"/>
        <pt x="162" y="124" on="1"/>
        <pt x="71" y="124" on="1"/>
        <pt x="83" y="197" on="1"/>
        <pt x="175" y="197" on="1"/>
        <pt x="218" y="447" on="1"/>
        <pt x="127" y="447" on="1"/>
        <pt x="139" y="520" on="1"/>
        <pt x="231" y="520" on="1"/>
        <pt x="253" y="644" on="1"/>
        <pt x="333" y="644" on="1"/>
        <pt x="311" y="520" on="1"/>
        <pt x="507" y="520" on="1"/>
        <pt x="529" y="644" on="1"/>
        <pt x="609" y="644" on="1"/>
        <pt x="587" y="520" on="1"/>
        <pt x="679" y="520" on="1"/>
        <pt x="667" y="447" on="1"/>
        <pt x="574" y="447" on="1"/>
        <pt x="531" y="197" on="1"/>
        <pt x="622" y="197" on="1"/>
        <pt x="610" y="124" on="1"/>
        <pt x="518" y="124" on="1"/>
        <pt x="496" y="0" on="1"/>
        <pt x="416" y="0" on="1"/>
        <pt x="438" y="124" on="1"/>
        <pt x="242" y="124" on="1"/>
        <pt x="220" y="0" on="1"/>
      </contour>
      <contour>
        <pt x="255" y="197" on="1"/>
        <pt x="451" y="197" on="1"/>
        <pt x="494" y="447" on="1"/>
        <pt x="298" y="447" on="1"/>
      </contour>
    </TTGlyph>
    <TTGlyph name="o" xMin="40" yMin="-12" xMax="558" yMax="532">
      <contour>
        <pt x="466" y="260" on="1"/>
        <pt x="466" y="299" on="0"/>
        <pt x="441" y="369" on="0"/>
        <pt x="396" y="421" on="0"/>
        <pt x="335" y="452" on="0"/>
        <pt x="299" y="452" on="1"/>
        <pt x="220" y="452" on="0"/>
        <pt x="132" y="348" on="0"/>
        <pt x="132" y="262" on="1"/>
        <pt x="132" y="223" on="0"/>
        <pt x="157" y="152" on="0"/>
        <pt x="202" y="99" on="0"/>
        <pt x="263" y="68" on="0"/>
        <pt x="299" y="68" on="1"/>
        <pt x="338" y="68" on="0"/>
        <pt x="400" y="96" on="0"/>
        <pt x="443" y="147" on="0"/>
        <pt x="466" y="217" on="0"/>
      </contour>
      <contour>
        <pt x="40" y="260" on="1"/>
        <pt x="40" y="323" on="0"/>
        <pt x="80" y="424" on="0"/>
        <pt x="149" y="494" on="0"/>
        <pt x="244" y="532" on="0"/>
        <pt x="299" y="532" on="1"/>
        <pt x="353" y="532" on="0"/>
        <pt x="448" y="494" on="0"/>
        <pt x="518" y="424" on="0"/>
        <pt x="558" y="324" on="0"/>
        <pt x="558" y="262" on="1"/>
        <pt x="558" y="200" on="0"/>
        <pt x="519" y="99" on="0"/>
        <pt x="449" y="27" on="0"/>
        <pt x="354" y="-12" on="0"/>
        <pt x="299" y="-12" on="1"/>
        <pt x="243" y="-12" on="0"/>
        <pt x="148" y="28" on="0"/>
        <pt x="79" y="100" on="0"/>
        <pt x="40" y="200" on="0"/>
      </contour>
    </TTGlyph>
    <TTGlyph name="oacute" xMin="40" yMin="-12" xMax="558" yMax="761">
      <component glyphName="o" x="0" y="0" flags="0x204"/>
      <component glyphName="acute" x="156" y="0" flags="0x4"/>
    </TTGlyph>
    <TTGlyph name="ocircumflex" xMin="40" yMin="-12" xMax="558" yMax="740">
      <component glyphName="o" x="0" y="0" flags="0x204"/>
      <component glyphName="circumflex" x="65" y="0" flags="0x4"/>
    </TTGlyph>
    <TTGlyph name="odieresis" xMin="40" yMin="-12" xMax="558" yMax="727">
      <component glyphName="o" x="0" y="0" flags="0x204"/>
      <component glyphName="dieresis" x="99" y="0" flags="0x4"/>
    </TTGlyph>
    <TTGlyph name="oe" xMin="40" yMin="-12" xMax="923" yMax="532">
      <contour>
        <pt x="40" y="260" on="1"/>
        <pt x="40" y="323" on="0"/>
        <pt x="80" y="424" on="0"/>
        <pt x="150" y="494" on="0"/>
        <pt x="244" y="532" on="0"/>
        <pt x="299" y="532" on="1"/>
        <pt x="370" y="532" on="0"/>
        <pt x="474" y="471" on="0"/>
        <pt x="509" y="417" on="1"/>
        <pt x="573" y="532" on="0"/>
        <pt x="699" y="532" on="1"/>
        <pt x="755" y="532" on="0"/>
        <pt x="839" y="494" on="0"/>
        <pt x="895" y="428" on="0"/>
        <pt x="923" y="340" on="0"/>
        <pt x="923" y="291" on="1"/>
        <pt x="923" y="256" on="0"/>
        <pt x="920" y="223" on="1"/>
        <pt x="556" y="223" on="1"/>
        <pt x="565" y="150" on="0"/>
        <pt x="649" y="68" on="0"/>
        <pt x="718" y="68" on="1"/>
        <pt x="763" y="68" on="0"/>
        <pt x="835" y="87" on="0"/>
        <pt x="868" y="102" on="1"/>
        <pt x="889" y="25" on="1"/>
        <pt x="853" y="8" on="0"/>
        <pt x="763" y="-12" on="0"/>
        <pt x="707" y="-12" on="1"/>
        <pt x="632" y="-12" on="0"/>
        <pt x="532" y="53" on="0"/>
        <pt x="503" y="109" on="1"/>
        <pt x="471" y="55" on="0"/>
        <pt x="369" y="-12" on="0"/>
        <pt x="297" y="-12" on="1"/>
        <pt x="242" y="-12" on="0"/>
        <pt x="148" y="28" on="0"/>
        <pt x="79" y="100" on="0"/>
        <pt x="40" y="200" on="0"/>
      </contour>
      <contour>
        <pt x="697" y="454" on="1"/>
        <pt x="638" y="454" on="0"/>
        <pt x="563" y="374" on="0"/>
        <pt x="555" y="296" on="1"/>
        <pt x="840" y="296" on="1"/>
        <pt x="840" y="372" on="0"/>
        <pt x="764" y="454" on="0"/>
      </contour>
      <contour>
        <pt x="466" y="260" on="1"/>
        <pt x="466" y="299" on="0"/>
        <pt x="441" y="369" on="0"/>
        <pt x="396" y="421" on="0"/>
        <pt x="335" y="452" on="0"/>
        <pt x="299" y="452" on="1"/>
        <pt x="220" y="452" on="0"/>
        <pt x="132" y="348" on="0"/>
        <pt x="132" y="262" on="1"/>
        <pt x="132" y="223" on="0"/>
        <pt x="157" y="152" on="0"/>
        <pt x="202" y="99" on="0"/>
        <pt x="263" y="68" on="0"/>
        <pt x="299" y="68" on="1"/>
        <pt x="338" y="68" on="0"/>
        <pt x="400" y="96" on="0"/>
        <pt x="443" y="147" on="0"/>
        <pt x="466" y="217" on="0"/>
      </contour>
    </TTGlyph>
    <TTGlyph name="ograve" xMin="40" yMin="-12" xMax="558" yMax="761">
      <component glyphName="o" x="0" y="0" flags="0x204"/>
      <component glyphName="grave" x="146" y="0" flags="0x4"/>
    </TTGlyph>
    <TTGlyph name="one" xMin="104" yMin="0" xMax="496" yMax="700">
      <contour>
        <pt x="377" y="700" on="1"/>
        <pt x="377" y="80" on="1"/>
        <pt x="496" y="80" on="1"/>
        <pt x="496" y="0" on="1"/>
        <pt x="144" y="0" on="1"/>
        <pt x="144" y="80" on="1"/>
        <pt x="287" y="80" on="1"/>
        <pt x="287" y="585" on="1"/>
        <pt x="153" y="484" on="1"/>
        <pt x="104" y="551" on="1"/>
        <pt x="311" y="700" on="1"/>
      </contour>
    </TTGlyph>
    <TTGlyph name="onehalf" xMin="32" yMin="-40" xMax="868" yMax="740">
      <contour>
        <pt x="214" y="-2" on="1"/>
        <pt x="651" y="740" on="1"/>
        <pt x="711" y="702" on="1"/>
        <pt x="274" y="-40" on="1"/>
      </contour>
      <contour>
        <pt x="240" y="700" on="1"/>
        <pt x="240" y="341" on="1"/>
        <pt x="320" y="341" on="1"/>
        <pt x="320" y="276" on="1"/>
        <pt x="64" y="276" on="1"/>
        <pt x="64" y="341" on="1"/>
        <pt x="160" y="341" on="1"/>
        <pt x="160" y="605" on="1"/>
        <pt x="78" y="552" on="1"/>
        <pt x="32" y="607" on="1"/>
        <pt x="183" y="700" on="1"/>
      </contour>
      <contour>
        <pt x="576" y="0" on="1"/>
        <pt x="575" y="8" on="0"/>
        <pt x="574" y="25" on="0"/>
        <pt x="574" y="36" on="1"/>
        <pt x="574" y="73" on="0"/>
        <pt x="605" y="133" on="0"/>
        <pt x="652" y="182" on="0"/>
        <pt x="707" y="223" on="0"/>
        <pt x="754" y="261" on="0"/>
        <pt x="785" y="296" on="0"/>
        <pt x="785" y="316" on="1"/>
        <pt x="785" y="337" on="0"/>
        <pt x="749" y="366" on="0"/>
        <pt x="722" y="366" on="1"/>
        <pt x="695" y="366" on="0"/>
        <pt x="649" y="345" on="0"/>
        <pt x="626" y="326" on="1"/>
        <pt x="579" y="376" on="1"/>
        <pt x="611" y="402" on="0"/>
        <pt x="685" y="431" on="0"/>
        <pt x="730" y="431" on="1"/>
        <pt x="793" y="431" on="0"/>
        <pt x="867" y="368" on="0"/>
        <pt x="867" y="321" on="1"/>
        <pt x="867" y="293" on="0"/>
        <pt x="839" y="246" on="0"/>
        <pt x="797" y="206" on="0"/>
        <pt x="747" y="169" on="0"/>
        <pt x="702" y="131" on="0"/>
        <pt x="668" y="91" on="0"/>
        <pt x="664" y="67" on="1"/>
        <pt x="868" y="67" on="1"/>
        <pt x="868" y="0" on="1"/>
      </contour>
    </TTGlyph>
    <TTGlyph name="onequarter" xMin="37" yMin="-40" xMax="863" yMax="740">
      <contour>
        <pt x="229" y="-2" on="1"/>
        <pt x="666" y="740" on="1"/>
        <pt x="726" y="702" on="1"/>
        <pt x="289" y="-40" on="1"/>
      </contour>
      <contour>
        <pt x="729" y="87" on="1"/>
        <pt x="529" y="87" on="1"/>
        <pt x="529" y="139" on="1"/>
        <pt x="673" y="430" on="1"/>
        <pt x="744" y="404" on="1"/>
        <pt x="621" y="153" on="1"/>
        <pt x="729" y="153" on="1"/>
        <pt x="729" y="267" on="1"/>
        <pt x="806" y="267" on="1"/>
        <pt x="806" y="153" on="1"/>
        <pt x="863" y="153" on="1"/>
        <pt x="863" y="87" on="1"/>
        <pt x="806" y="87" on="1"/>
        <pt x="806" y="0" on="1"/>
        <pt x="729" y="0" on="1"/>
      </contour>
      <contour>
        <pt x="245" y="700" on="1"/>
        <pt x="245" y="341" on="1"/>
        <pt x="325" y="341" on="1"/>
        <pt x="325" y="276" on="1"/>
        <pt x="69" y="276" on="1"/>
        <pt x="69" y="341" on="1"/>
        <pt x="165" y="341" on="1"/>
        <pt x="165" y="605" on="1"/>
        <pt x="83" y="552" on="1"/>
        <pt x="37" y="607" on="1"/>
        <pt x="188" y="700" on="1"/>
      </contour>
    </TTGlyph>
    <TTGlyph name="onesuperior" xMin="81" yMin="276" xMax="369" yMax="700">
      <contour>
        <pt x="289" y="700" on="1"/>
        <pt x="289" y="341" on="1"/>
        <pt x="369" y="341" on="1"/>
        <pt x="369" y="276" on="1"/>
        <pt x="113" y="276" on="1"/>
        <pt x="113" y="341" on="1"/>
        <pt x="209" y="341" on="1"/>
        <pt x="209" y="605" on="1"/>
        <pt x="127" y="552" on="1"/>
        <pt x="81" y="607" on="1"/>
        <pt x="232" y="700" on="1"/>
      </contour>
    </TTGlyph>
    <TTGlyph name="ordfeminine" xMin="102" yMin="132" xMax="498" yMax="707">
      <contour>
        <pt x="102" y="513" on="1"/>
        <pt x="102" y="557" on="0"/>
        <pt x="131" y="628" on="0"/>
        <pt x="180" y="679" on="0"/>
        <pt x="246" y="707" on="0"/>
        <pt x="283" y="707" on="1"/>
        <pt x="312" y="707" on="0"/>
        <pt x="359" y="690" on="0"/>
        <pt x="379" y="678" on="1"/>
        <pt x="379" y="700" on="1"/>
        <pt x="453" y="700" on="1"/>
        <pt x="453" y="434" on="1"/>
        <pt x="453" y="407" on="0"/>
        <pt x="481" y="390" on="0"/>
        <pt x="498" y="390" on="1"/>
        <pt x="480" y="327" on="1"/>
        <pt x="412" y="327" on="0"/>
        <pt x="389" y="375" on="1"/>
        <pt x="373" y="358" on="0"/>
        <pt x="316" y="323" on="0"/>
        <pt x="275" y="323" on="1"/>
        <pt x="242" y="323" on="0"/>
        <pt x="180" y="348" on="0"/>
        <pt x="131" y="396" on="0"/>
        <pt x="102" y="467" on="0"/>
      </contour>
      <contour>
        <pt x="288" y="393" on="1"/>
        <pt x="314" y="393" on="0"/>
        <pt x="357" y="417" on="0"/>
        <pt x="374" y="437" on="1"/>
        <pt x="374" y="613" on="1"/>
        <pt x="357" y="624" on="0"/>
        <pt x="316" y="638" on="0"/>
        <pt x="291" y="638" on="1"/>
        <pt x="245" y="638" on="0"/>
        <pt x="181" y="575" on="0"/>
        <pt x="181" y="515" on="1"/>
        <pt x="181" y="486" on="0"/>
        <pt x="199" y="441" on="0"/>
        <pt x="229" y="410" on="0"/>
        <pt x="267" y="393" on="0"/>
      </contour>
      <contour>
        <pt x="130" y="132" on="1"/>
        <pt x="130" y="214" on="1"/>
        <pt x="470" y="214" on="1"/>
        <pt x="470" y="132" on="1"/>
      </contour>
    </TTGlyph>
    <TTGlyph name="ordmasculine" xMin="109" yMin="132" xMax="491" yMax="707">
      <contour>
        <pt x="411" y="515" on="1"/>
        <pt x="411" y="540" on="0"/>
        <pt x="394" y="585" on="0"/>
        <pt x="365" y="618" on="0"/>
        <pt x="325" y="637" on="0"/>
        <pt x="301" y="637" on="1"/>
        <pt x="247" y="637" on="0"/>
        <pt x="189" y="571" on="0"/>
        <pt x="189" y="516" on="1"/>
        <pt x="189" y="491" on="0"/>
        <pt x="206" y="446" on="0"/>
        <pt x="236" y="413" on="0"/>
        <pt x="277" y="393" on="0"/>
        <pt x="301" y="393" on="1"/>
        <pt x="353" y="393" on="0"/>
        <pt x="411" y="460" on="0"/>
      </contour>
      <contour>
        <pt x="109" y="515" on="1"/>
        <pt x="109" y="560" on="0"/>
        <pt x="138" y="631" on="0"/>
        <pt x="190" y="680" on="0"/>
        <pt x="260" y="707" on="0"/>
        <pt x="301" y="707" on="1"/>
        <pt x="341" y="707" on="0"/>
        <pt x="410" y="680" on="0"/>
        <pt x="461" y="631" on="0"/>
        <pt x="491" y="560" on="0"/>
        <pt x="491" y="516" on="1"/>
        <pt x="491" y="472" on="0"/>
        <pt x="462" y="401" on="0"/>
        <pt x="411" y="350" on="0"/>
        <pt x="342" y="323" on="0"/>
        <pt x="301" y="323" on="1"/>
        <pt x="259" y="323" on="0"/>
        <pt x="189" y="351" on="0"/>
        <pt x="138" y="402" on="0"/>
        <pt x="109" y="472" on="0"/>
      </contour>
      <contour>
        <pt x="130" y="132" on="1"/>
        <pt x="130" y="214" on="1"/>
        <pt x="470" y="214" on="1"/>
        <pt x="470" y="132" on="1"/>
      </contour>
    </TTGlyph>
    <TTGlyph name="oslash" xMin="40" yMin="-119" xMax="558" yMax="637">
      <contour>
        <pt x="40" y="260" on="1"/>
        <pt x="40" y="323" on="0"/>
        <pt x="80" y="424" on="0"/>
        <pt x="149" y="494" on="0"/>
        <pt x="244" y="532" on="0"/>
        <pt x="299" y="532" on="1"/>
        <pt x="341" y="532" on="0"/>
        <pt x="379" y="520" on="1"/>
        <pt x="434" y="637" on="1"/>
        <pt x="505" y="600" on="1"/>
        <pt x="444" y="490" on="1"/>
        <pt x="496" y="456" on="0"/>
        <pt x="558" y="340" on="0"/>
        <pt x="558" y="262" on="1"/>
        <pt x="558" y="200" on="0"/>
        <pt x="519" y="99" on="0"/>
        <pt x="449" y="27" on="0"/>
        <pt x="354" y="-12" on="0"/>
        <pt x="299" y="-12" on="1"/>
        <pt x="250" y="-12" on="0"/>
        <pt x="210" y="2" on="1"/>
        <pt x="154" y="-119" on="1"/>
        <pt x="83" y="-82" on="1"/>
        <pt x="148" y="34" on="1"/>
        <pt x="97" y="69" on="0"/>
        <pt x="40" y="185" on="0"/>
      </contour>
      <contour>
        <pt x="466" y="260" on="1"/>
        <pt x="466" y="305" on="0"/>
        <pt x="432" y="384" on="0"/>
        <pt x="403" y="411" on="1"/>
        <pt x="246" y="77" on="1"/>
        <pt x="257" y="72" on="0"/>
        <pt x="285" y="68" on="0"/>
        <pt x="299" y="68" on="1"/>
        <pt x="338" y="68" on="0"/>
        <pt x="400" y="96" on="0"/>
        <pt x="443" y="147" on="0"/>
        <pt x="466" y="217" on="0"/>
      </contour>
      <contour>
        <pt x="132" y="262" on="1"/>
        <pt x="132" y="218" on="0"/>
        <pt x="162" y="142" on="0"/>
        <pt x="189" y="115" on="1"/>
        <pt x="344" y="445" on="1"/>
        <pt x="335" y="448" on="0"/>
        <pt x="311" y="452" on="0"/>
        <pt x="299" y="452" on="1"/>
        <pt x="220" y="452" on="0"/>
        <pt x="132" y="348" on="0"/>
      </contour>
    </TTGlyph>
    <TTGlyph name="otilde" xMin="40" yMin="-12" xMax="558" yMax="722">
      <component glyphName="o" x="0" y="0" flags="0x204"/>
      <component glyphName="tilde" x="84" y="0" flags="0x4"/>
    </TTGlyph>
    <TTGlyph name="p" xMin="40" yMin="-220" xMax="568" yMax="532">
      <contour>
        <pt x="59" y="520" on="1"/>
        <pt x="151" y="520" on="0"/>
        <pt x="174" y="447" on="1"/>
        <pt x="181" y="458" on="0"/>
        <pt x="210" y="488" on="0"/>
        <pt x="252" y="514" on="0"/>
        <pt x="306" y="532" on="0"/>
        <pt x="339" y="532" on="1"/>
        <pt x="384" y="532" on="0"/>
        <pt x="467" y="496" on="0"/>
        <pt x="530" y="428" on="0"/>
        <pt x="568" y="328" on="0"/>
        <pt x="568" y="265" on="1"/>
        <pt x="568" y="203" on="0"/>
        <pt x="531" y="101" on="0"/>
        <pt x="468" y="28" on="0"/>
        <pt x="386" y="-12" on="0"/>
        <pt x="341" y="-12" on="1"/>
        <pt x="294" y="-12" on="0"/>
        <pt x="215" y="25" on="0"/>
        <pt x="189" y="49" on="1"/>
        <pt x="189" y="-220" on="1"/>
        <pt x="99" y="-220" on="1"/>
        <pt x="99" y="387" on="1"/>
        <pt x="99" y="421" on="0"/>
        <pt x="66" y="450" on="0"/>
        <pt x="40" y="450" on="1"/>
      </contour>
      <contour>
        <pt x="476" y="262" on="1"/>
        <pt x="476" y="307" on="0"/>
        <pt x="451" y="378" on="0"/>
        <pt x="408" y="428" on="0"/>
        <pt x="351" y="454" on="0"/>
        <pt x="319" y="454" on="1"/>
        <pt x="276" y="454" on="0"/>
        <pt x="207" y="411" on="0"/>
        <pt x="189" y="386" on="1"/>
        <pt x="189" y="130" on="1"/>
        <pt x="215" y="103" on="0"/>
        <pt x="282" y="68" on="0"/>
        <pt x="323" y="68" on="1"/>
        <pt x="357" y="68" on="0"/>
        <pt x="413" y="96" on="0"/>
        <pt x="454" y="147" on="0"/>
        <pt x="476" y="218" on="0"/>
      </contour>
    </TTGlyph>
    <TTGlyph name="paragraph" xMin="106" yMin="-64" xMax="643" yMax="779">
      <contour>
        <pt x="425" y="-64" on="1"/>
        <pt x="425" y="402" on="1"/>
        <pt x="410" y="400" on="0"/>
        <pt x="373" y="397" on="0"/>
        <pt x="351" y="397" on="1"/>
        <pt x="236" y="397" on="0"/>
        <pt x="106" y="495" on="0"/>
        <pt x="106" y="581" on="1"/>
        <pt x="106" y="623" on="0"/>
        <pt x="138" y="696" on="0"/>
        <pt x="199" y="749" on="0"/>
        <pt x="289" y="779" on="0"/>
        <pt x="347" y="779" on="1"/>
        <pt x="393" y="779" on="0"/>
        <pt x="468" y="774" on="0"/>
        <pt x="503" y="770" on="1"/>
        <pt x="503" y="-64" on="1"/>
      </contour>
      <contour>
        <pt x="565" y="-64" on="1"/>
        <pt x="565" y="770" on="1"/>
        <pt x="643" y="770" on="1"/>
        <pt x="643" y="-64" on="1"/>
      </contour>
      <contour>
        <pt x="346" y="474" on="1"/>
        <pt x="372" y="474" on="0"/>
        <pt x="410" y="477" on="0"/>
        <pt x="425" y="479" on="1"/>
        <pt x="425" y="698" on="1"/>
        <pt x="405" y="700" on="0"/>
        <pt x="365" y="702" on="0"/>
        <pt x="342" y="702" on="1"/>
        <pt x="266" y="702" on="0"/>
        <pt x="196" y="634" on="0"/>
        <pt x="196" y="586" on="1"/>
        <pt x="196" y="536" on="0"/>
        <pt x="277" y="474" on="0"/>
      </contour>
    </TTGlyph>
    <TTGlyph name="parenleft" xMin="57" yMin="-123" xMax="242" yMax="763">
      <contour>
        <pt x="152" y="320" on="1"/>
        <pt x="152" y="198" on="0"/>
        <pt x="204" y="-6" on="0"/>
        <pt x="242" y="-93" on="1"/>
        <pt x="189" y="-123" on="1"/>
        <pt x="126" y="-12" on="0"/>
        <pt x="57" y="203" on="0"/>
        <pt x="57" y="320" on="1"/>
        <pt x="57" y="444" on="0"/>
        <pt x="127" y="658" on="0"/>
        <pt x="189" y="763" on="1"/>
        <pt x="242" y="733" on="1"/>
        <pt x="204" y="648" on="0"/>
        <pt x="152" y="442" on="0"/>
      </contour>
    </TTGlyph>
    <TTGlyph name="parenright" xMin="58" yMin="-123" xMax="243" yMax="763">
      <contour>
        <pt x="148" y="320" on="1"/>
        <pt x="148" y="442" on="0"/>
        <pt x="96" y="648" on="0"/>
        <pt x="58" y="733" on="1"/>
        <pt x="111" y="763" on="1"/>
        <pt x="142" y="710" on="0"/>
        <pt x="191" y="606" on="0"/>
        <pt x="225" y="497" on="0"/>
        <pt x="243" y="382" on="0"/>
        <pt x="243" y="320" on="1"/>
        <pt x="243" y="203" on="0"/>
        <pt x="174" y="-12" on="0"/>
        <pt x="111" y="-123" on="1"/>
        <pt x="58" y="-93" on="1"/>
        <pt x="96" y="-6" on="0"/>
        <pt x="148" y="198" on="0"/>
      </contour>
    </TTGlyph>
    <TTGlyph name="percent" xMin="38" yMin="-40" xMax="862" yMax="740">
      <contour>
        <pt x="199" y="-2" on="1"/>
        <pt x="636" y="740" on="1"/>
        <pt x="696" y="702" on="1"/>
        <pt x="259" y="-40" on="1"/>
      </contour>
      <contour>
        <pt x="380" y="490" on="1"/>
        <pt x="380" y="386" on="0"/>
        <pt x="292" y="270" on="0"/>
        <pt x="208" y="270" on="1"/>
        <pt x="124" y="270" on="0"/>
        <pt x="38" y="385" on="0"/>
        <pt x="38" y="490" on="1"/>
        <pt x="38" y="594" on="0"/>
        <pt x="126" y="707" on="0"/>
        <pt x="209" y="707" on="1"/>
        <pt x="292" y="707" on="0"/>
        <pt x="380" y="594" on="0"/>
      </contour>
      <contour>
        <pt x="297" y="490" on="1"/>
        <pt x="297" y="565" on="0"/>
        <pt x="251" y="641" on="0"/>
        <pt x="208" y="641" on="1"/>
        <pt x="167" y="641" on="0"/>
        <pt x="121" y="574" on="0"/>
        <pt x="121" y="490" on="1"/>
        <pt x="121" y="415" on="0"/>
        <pt x="167" y="337" on="0"/>
        <pt x="209" y="337" on="1"/>
        <pt x="230" y="337" on="0"/>
        <pt x="263" y="353" on="0"/>
        <pt x="285" y="389" on="0"/>
        <pt x="297" y="447" on="0"/>
      </contour>
      <contour>
        <pt x="862" y="214" on="1"/>
        <pt x="862" y="110" on="0"/>
        <pt x="774" y="-6" on="0"/>
        <pt x="690" y="-6" on="1"/>
        <pt x="606" y="-6" on="0"/>
        <pt x="520" y="109" on="0"/>
        <pt x="520" y="214" on="1"/>
        <pt x="520" y="318" on="0"/>
        <pt x="608" y="431" on="0"/>
        <pt x="691" y="431" on="1"/>
        <pt x="774" y="431" on="0"/>
        <pt x="862" y="318" on="0"/>
      </contour>
      <contour>
        <pt x="779" y="214" on="1"/>
        <pt x="779" y="289" on="0"/>
        <pt x="733" y="365" on="0"/>
        <pt x="690" y="365" on="1"/>
        <pt x="649" y="365" on="0"/>
        <pt x="603" y="298" on="0"/>
        <pt x="603" y="214" on="1"/>
        <pt x="603" y="139" on="0"/>
        <pt x="649" y="61" on="0"/>
        <pt x="691" y="61" on="1"/>
        <pt x="712" y="61" on="0"/>
        <pt x="745" y="77" on="0"/>
        <pt x="767" y="113" on="0"/>
        <pt x="779" y="171" on="0"/>
      </contour>
    </TTGlyph>
    <TTGlyph name="period" xMin="83" yMin="-12" xMax="217" yMax="122">
      <contour>
        <pt x="83" y="55" on="1"/>
        <pt x="83" y="86" on="0"/>
        <pt x="118" y="122" on="0"/>
        <pt x="150" y="122" on="1"/>
        <pt x="176" y="122" on="0"/>
        <pt x="217" y="82" on="0"/>
        <pt x="217" y="55" on="1"/>
        <pt x="217" y="25" on="0"/>
        <pt x="179" y="-12" on="0"/>
        <pt x="150" y="-12" on="1"/>
        <pt x="123" y="-12" on="0"/>
        <pt x="83" y="28" on="0"/>
      </contour>
    </TTGlyph>
    <TTGlyph name="periodcentered" xMin="83" yMin="288" xMax="217" yMax="422">
      <component glyphName="period" x="0" y="300" flags="0x204"/>
    </TTGlyph>
    <TTGlyph name="plus" xMin="105" yMin="141" xMax="495" yMax="545">
      <contour>
        <pt x="343" y="304" on="1"/>
        <pt x="343" y="141" on="1"/>
        <pt x="258" y="141" on="1"/>
        <pt x="258" y="304" on="1"/>
        <pt x="105" y="304" on="1"/>
        <pt x="105" y="382" on="1"/>
        <pt x="258" y="382" on="1"/>
        <pt x="258" y="545" on="1"/>
        <pt x="343" y="545" on="1"/>
        <pt x="343" y="382" on="1"/>
        <pt x="495" y="382" on="1"/>
        <pt x="495" y="304" on="1"/>
      </contour>
    </TTGlyph>
    <TTGlyph name="plusminus" xMin="130" yMin="72" xMax="470" yMax="608">
      <contour>
        <pt x="343" y="394" on="1"/>
        <pt x="343" y="259" on="1"/>
        <pt x="258" y="259" on="1"/>
        <pt x="258" y="394" on="1"/>
        <pt x="130" y="394" on="1"/>
        <pt x="130" y="472" on="1"/>
        <pt x="258" y="472" on="1"/>
        <pt x="258" y="608" on="1"/>
        <pt x="343" y="608" on="1"/>
        <pt x="343" y="472" on="1"/>
        <pt x="470" y="472" on="1"/>
        <pt x="470" y="394" on="1"/>
      </contour>
      <contour>
        <pt x="130" y="72" on="1"/>
        <pt x="130" y="154" on="1"/>
        <pt x="470" y="154" on="1"/>
        <pt x="470" y="72" on="1"/>
      </contour>
    </TTGlyph>
    <TTGlyph name="q" xMin="45" yMin="-220" xMax="514" yMax="532">
      <contour>
        <pt x="514" y="520" on="1"/>
        <pt x="514" y="-220" on="1"/>
        <pt x="424" y="-220" on="1"/>
        <pt x="424" y="53" on="1"/>
        <pt x="413" y="42" on="0"/>
        <pt x="384" y="19" on="0"/>
        <pt x="347" y="0" on="0"/>
        <pt x="303" y="-12" on="0"/>
        <pt x="278" y="-12" on="1"/>
        <pt x="233" y="-12" on="0"/>
        <pt x="148" y="23" on="0"/>
        <pt x="84" y="92" on="0"/>
        <pt x="45" y="192" on="0"/>
        <pt x="45" y="258" on="1"/>
        <pt x="45" y="319" on="0"/>
        <pt x="83" y="420" on="0"/>
        <pt x="149" y="492" on="0"/>
        <pt x="237" y="532" on="0"/>
        <pt x="287" y="532" on="1"/>
        <pt x="332" y="532" on="0"/>
        <pt x="405" y="501" on="0"/>
        <pt x="432" y="478" on="1"/>
        <pt x="432" y="520" on="1"/>
      </contour>
      <contour>
        <pt x="296" y="454" on="1"/>
        <pt x="264" y="454" on="0"/>
        <pt x="206" y="428" on="0"/>
        <pt x="162" y="378" on="0"/>
        <pt x="137" y="307" on="0"/>
        <pt x="137" y="261" on="1"/>
        <pt x="137" y="216" on="0"/>
        <pt x="163" y="144" on="0"/>
        <pt x="208" y="94" on="0"/>
        <pt x="266" y="68" on="0"/>
        <pt x="298" y="68" on="1"/>
        <pt x="338" y="68" on="0"/>
        <pt x="404" y="106" on="0"/>
        <pt x="424" y="131" on="1"/>
        <pt x="424" y="412" on="1"/>
        <pt x="397" y="431" on="0"/>
        <pt x="332" y="454" on="0"/>
      </contour>
    </TTGlyph>
    <TTGlyph name="question" xMin="45" yMin="-12" xMax="441" yMax="752">
      <contour>
        <pt x="45" y="647" on="1"/>
        <pt x="85" y="696" on="0"/>
        <pt x="183" y="752" on="0"/>
        <pt x="252" y="752" on="1"/>
        <pt x="294" y="752" on="0"/>
        <pt x="363" y="726" on="0"/>
        <pt x="413" y="682" on="0"/>
        <pt x="441" y="623" on="0"/>
        <pt x="441" y="589" on="1"/>
        <pt x="441" y="546" on="0"/>
        <pt x="412" y="486" on="0"/>
        <pt x="368" y="439" on="0"/>
        <pt x="317" y="399" on="0"/>
        <pt x="273" y="355" on="0"/>
        <pt x="244" y="301" on="0"/>
        <pt x="244" y="263" on="1"/>
        <pt x="244" y="207" on="1"/>
        <pt x="166" y="207" on="1"/>
        <pt x="161" y="224" on="0"/>
        <pt x="156" y="264" on="0"/>
        <pt x="156" y="281" on="1"/>
        <pt x="156" y="323" on="0"/>
        <pt x="184" y="385" on="0"/>
        <pt x="226" y="432" on="0"/>
        <pt x="274" y="470" on="0"/>
        <pt x="316" y="509" on="0"/>
        <pt x="344" y="553" on="0"/>
        <pt x="344" y="582" on="1"/>
        <pt x="344" y="617" on="0"/>
        <pt x="290" y="670" on="0"/>
        <pt x="244" y="670" on="1"/>
        <pt x="202" y="670" on="0"/>
        <pt x="137" y="630" on="0"/>
        <pt x="110" y="595" on="1"/>
      </contour>
      <contour>
        <pt x="143" y="55" on="1"/>
        <pt x="143" y="86" on="0"/>
        <pt x="178" y="122" on="0"/>
        <pt x="210" y="122" on="1"/>
        <pt x="236" y="122" on="0"/>
        <pt x="277" y="82" on="0"/>
        <pt x="277" y="55" on="1"/>
        <pt x="277" y="25" on="0"/>
        <pt x="239" y="-12" on="0"/>
        <pt x="210" y="-12" on="1"/>
        <pt x="183" y="-12" on="0"/>
        <pt x="143" y="28" on="0"/>
      </contour>
    </TTGlyph>
    <TTGlyph name="questiondown" xMin="50" yMin="-232" xMax="446" yMax="532">
      <contour>
        <pt x="446" y="-127" on="1"/>
        <pt x="406" y="-176" on="0"/>
        <pt x="308" y="-232" on="0"/>
        <pt x="239" y="-232" on="1"/>
        <pt x="197" y="-232" on="0"/>
        <pt x="128" y="-206" on="0"/>
        <pt x="78" y="-162" on="0"/>
        <pt x="50" y="-103" on="0"/>
        <pt x="50" y="-69" on="1"/>
        <pt x="50" y="-27" on="0"/>
        <pt x="79" y="34" on="0"/>
        <pt x="123" y="81" on="0"/>
        <pt x="174" y="121" on="0"/>
        <pt x="218" y="165" on="0"/>
        <pt x="247" y="219" on="0"/>
        <pt x="247" y="257" on="1"/>
        <pt x="247" y="313" on="1"/>
        <pt x="325" y="313" on="1"/>
        <pt x="330" y="296" on="0"/>
        <pt x="335" y="256" on="0"/>
        <pt x="335" y="239" on="1"/>
        <pt x="335" y="196" on="0"/>
        <pt x="307" y="135" on="0"/>
        <pt x="265" y="88" on="0"/>
        <pt x="217" y="50" on="0"/>
        <pt x="175" y="11" on="0"/>
        <pt x="147" y="-33" on="0"/>
        <pt x="147" y="-62" on="1"/>
        <pt x="147" y="-97" on="0"/>
        <pt x="201" y="-150" on="0"/>
        <pt x="247" y="-150" on="1"/>
        <pt x="289" y="-150" on="0"/>
        <pt x="354" y="-110" on="0"/>
        <pt x="381" y="-75" on="1"/>
      </contour>
      <contour>
        <pt x="214" y="465" on="1"/>
        <pt x="214" y="496" on="0"/>
        <pt x="249" y="532" on="0"/>
        <pt x="281" y="532" on="1"/>
        <pt x="307" y="532" on="0"/>
        <pt x="348" y="492" on="0"/>
        <pt x="348" y="465" on="1"/>
        <pt x="348" y="435" on="0"/>
        <pt x="310" y="398" on="0"/>
        <pt x="281" y="398" on="1"/>
        <pt x="254" y="398" on="0"/>
        <pt x="214" y="438" on="0"/>
      </contour>
    </TTGlyph>
    <TTGlyph name="quotedbl" xMin="26" yMin="477" xMax="274" yMax="700">
      <contour>
        <pt x="113" y="700" on="1"/>
        <pt x="105" y="477" on="1"/>
        <pt x="34" y="477" on="1"/>
        <pt x="26" y="700" on="1"/>
      </contour>
      <contour>
        <pt x="274" y="700" on="1"/>
        <pt x="266" y="477" on="1"/>
        <pt x="195" y="477" on="1"/>
        <pt x="187" y="700" on="1"/>
      </contour>
    </TTGlyph>
    <TTGlyph name="quotedblbase" xMin="40" yMin="-127" xMax="371" yMax="123">
      <component glyphName="quotedblright" x="0" y="-629" flags="0x204"/>
    </TTGlyph>
    <TTGlyph name="quotedblleft" xMin="40" yMin="532" xMax="371" yMax="782">
      <contour>
        <pt x="187" y="596" on="1"/>
        <pt x="187" y="567" on="0"/>
        <pt x="149" y="532" on="0"/>
        <pt x="120" y="532" on="1"/>
        <pt x="85" y="532" on="0"/>
        <pt x="40" y="578" on="0"/>
        <pt x="40" y="621" on="1"/>
        <pt x="40" y="667" on="0"/>
        <pt x="93" y="756" on="0"/>
        <pt x="141" y="782" on="1"/>
        <pt x="164" y="747" on="1"/>
        <pt x="138" y="729" on="0"/>
        <pt x="107" y="685" on="0"/>
        <pt x="102" y="656" on="1"/>
        <pt x="111" y="660" on="0"/>
        <pt x="123" y="660" on="1"/>
        <pt x="151" y="660" on="0"/>
        <pt x="187" y="624" on="0"/>
      </contour>
      <contour>
        <pt x="371" y="596" on="1"/>
        <pt x="371" y="567" on="0"/>
        <pt x="333" y="532" on="0"/>
        <pt x="304" y="532" on="1"/>
        <pt x="269" y="532" on="0"/>
        <pt x="224" y="578" on="0"/>
        <pt x="224" y="621" on="1"/>
        <pt x="224" y="667" on="0"/>
        <pt x="277" y="756" on="0"/>
        <pt x="325" y="782" on="1"/>
        <pt x="348" y="747" on="1"/>
        <pt x="322" y="729" on="0"/>
        <pt x="291" y="685" on="0"/>
        <pt x="286" y="656" on="1"/>
        <pt x="295" y="660" on="0"/>
        <pt x="307" y="660" on="1"/>
        <pt x="335" y="660" on="0"/>
        <pt x="371" y="624" on="0"/>
      </contour>
    </TTGlyph>
    <TTGlyph name="quotedblright" xMin="40" yMin="502" xMax="371" yMax="752">
      <contour>
        <pt x="224" y="688" on="1"/>
        <pt x="224" y="717" on="0"/>
        <pt x="262" y="752" on="0"/>
        <pt x="291" y="752" on="1"/>
        <pt x="326" y="752" on="0"/>
        <pt x="371" y="706" on="0"/>
        <pt x="371" y="663" on="1"/>
        <pt x="371" y="617" on="0"/>
        <pt x="318" y="528" on="0"/>
        <pt x="270" y="502" on="1"/>
        <pt x="247" y="537" on="1"/>
        <pt x="273" y="555" on="0"/>
        <pt x="304" y="599" on="0"/>
        <pt x="309" y="628" on="1"/>
        <pt x="300" y="624" on="0"/>
        <pt x="288" y="624" on="1"/>
        <pt x="260" y="624" on="0"/>
        <pt x="224" y="660" on="0"/>
      </contour>
      <contour>
        <pt x="40" y="688" on="1"/>
        <pt x="40" y="717" on="0"/>
        <pt x="78" y="752" on="0"/>
        <pt x="107" y="752" on="1"/>
        <pt x="142" y="752" on="0"/>
        <pt x="187" y="706" on="0"/>
        <pt x="187" y="663" on="1"/>
        <pt x="187" y="617" on="0"/>
        <pt x="134" y="528" on="0"/>
        <pt x="86" y="502" on="1"/>
        <pt x="63" y="537" on="1"/>
        <pt x="89" y="555" on="0"/>
        <pt x="120" y="599" on="0"/>
        <pt x="125" y="628" on="1"/>
        <pt x="116" y="624" on="0"/>
        <pt x="104" y="624" on="1"/>
        <pt x="76" y="624" on="0"/>
        <pt x="40" y="660" on="0"/>
      </contour>
    </TTGlyph>
    <TTGlyph name="quoteleft" xMin="40" yMin="532" xMax="187" yMax="782">
      <contour>
        <pt x="187" y="596" on="1"/>
        <pt x="187" y="567" on="0"/>
        <pt x="149" y="532" on="0"/>
        <pt x="120" y="532" on="1"/>
        <pt x="85" y="532" on="0"/>
        <pt x="40" y="578" on="0"/>
        <pt x="40" y="621" on="1"/>
        <pt x="40" y="667" on="0"/>
        <pt x="93" y="756" on="0"/>
        <pt x="141" y="782" on="1"/>
        <pt x="164" y="747" on="1"/>
        <pt x="138" y="729" on="0"/>
        <pt x="107" y="685" on="0"/>
        <pt x="102" y="656" on="1"/>
        <pt x="111" y="660" on="0"/>
        <pt x="123" y="660" on="1"/>
        <pt x="151" y="660" on="0"/>
        <pt x="187" y="624" on="0"/>
      </contour>
    </TTGlyph>
    <TTGlyph name="quoteright" xMin="40" yMin="502" xMax="187" yMax="752">
      <contour>
        <pt x="40" y="688" on="1"/>
        <pt x="40" y="717" on="0"/>
        <pt x="78" y="752" on="0"/>
        <pt x="107" y="752" on="1"/>
        <pt x="142" y="752" on="0"/>
        <pt x="187" y="706" on="0"/>
        <pt x="187" y="663" on="1"/>
        <pt x="187" y="617" on="0"/>
        <pt x="134" y="528" on="0"/>
        <pt x="86" y="502" on="1"/>
        <pt x="63" y="537" on="1"/>
        <pt x="89" y="555" on="0"/>
        <pt x="120" y="599" on="0"/>
        <pt x="125" y="628" on="1"/>
        <pt x="116" y="624" on="0"/>
        <pt x="104" y="624" on="1"/>
        <pt x="76" y="624" on="0"/>
        <pt x="40" y="660" on="0"/>
      </contour>
    </TTGlyph>
    <TTGlyph name="quotesinglbase" xMin="40" yMin="-127" xMax="187" yMax="123">
      <component glyphName="quoteright" x="0" y="-629" flags="0x204"/>
    </TTGlyph>
    <TTGlyph name="quotesingle" xMin="32" yMin="478" xMax="119" yMax="700">
      <contour>
        <pt x="119" y="700" on="1"/>
        <pt x="111" y="478" on="1"/>
        <pt x="40" y="478" on="1"/>
        <pt x="32" y="700" on="1"/>
      </contour>
    </TTGlyph>
    <TTGlyph name="r" xMin="80" yMin="0" xMax="389" yMax="532">
      <contour>
        <pt x="362" y="433" on="1"/>
        <pt x="343" y="441" on="0"/>
        <pt x="317" y="441" on="1"/>
        <pt x="289" y="441" on="0"/>
        <pt x="236" y="417" on="0"/>
        <pt x="195" y="369" on="0"/>
        <pt x="170" y="294" on="0"/>
        <pt x="170" y="243" on="1"/>
        <pt x="170" y="0" on="1"/>
        <pt x="80" y="0" on="1"/>
        <pt x="80" y="520" on="1"/>
        <pt x="167" y="520" on="1"/>
        <pt x="167" y="407" on="1"/>
        <pt x="176" y="431" on="0"/>
        <pt x="206" y="477" on="0"/>
        <pt x="247" y="511" on="0"/>
        <pt x="301" y="532" on="0"/>
        <pt x="334" y="532" on="1"/>
        <pt x="349" y="532" on="0"/>
        <pt x="378" y="529" on="0"/>
        <pt x="389" y="526" on="1"/>
      </contour>
    </TTGlyph>
    <TTGlyph name="rcaron" xMin="43" yMin="0" xMax="399" yMax="755">
      <component glyphName="r" x="0" y="0" flags="0x204"/>
      <component glyphName="caron" x="-7" y="0" flags="0x4"/>
    </TTGlyph>
    <TTGlyph name="rcommaaccent" xMin="5" yMin="-262" xMax="389" yMax="532">
      <component glyphName="r" x="0" y="0" flags="0x204"/>
      <component glyphName="commaaccent" x="-35" y="0" flags="0x4"/>
    </TTGlyph>
    <TTGlyph name="registered" xMin="101" yMin="-12" xMax="799" yMax="712">
      <contour>
        <pt x="449" y="-12" on="1"/>
        <pt x="365" y="-12" on="0"/>
        <pt x="235" y="43" on="0"/>
        <pt x="146" y="139" on="0"/>
        <pt x="101" y="272" on="0"/>
        <pt x="101" y="350" on="1"/>
        <pt x="101" y="425" on="0"/>
        <pt x="148" y="557" on="0"/>
        <pt x="237" y="655" on="0"/>
        <pt x="367" y="712" on="0"/>
        <pt x="450" y="712" on="1"/>
        <pt x="534" y="712" on="0"/>
        <pt x="665" y="657" on="0"/>
        <pt x="753" y="561" on="0"/>
        <pt x="799" y="428" on="0"/>
        <pt x="799" y="350" on="1"/>
        <pt x="799" y="275" on="0"/>
        <pt x="752" y="143" on="0"/>
        <pt x="662" y="45" on="0"/>
        <pt x="532" y="-12" on="0"/>
      </contour>
      <contour>
        <pt x="450" y="51" on="1"/>
        <pt x="517" y="51" on="0"/>
        <pt x="620" y="95" on="0"/>
        <pt x="690" y="175" on="0"/>
        <pt x="726" y="285" on="0"/>
        <pt x="726" y="350" on="1"/>
        <pt x="726" y="416" on="0"/>
        <pt x="690" y="525" on="0"/>
        <pt x="620" y="605" on="0"/>
        <pt x="517" y="649" on="0"/>
        <pt x="450" y="649" on="1"/>
        <pt x="383" y="649" on="0"/>
        <pt x="280" y="604" on="0"/>
        <pt x="210" y="525" on="0"/>
        <pt x="174" y="415" on="0"/>
        <pt x="174" y="350" on="1"/>
        <pt x="174" y="284" on="0"/>
        <pt x="210" y="175" on="0"/>
        <pt x="280" y="95" on="0"/>
        <pt x="383" y="51" on="0"/>
      </contour>
      <contour>
        <pt x="556" y="133" on="1"/>
        <pt x="502" y="253" on="1"/>
        <pt x="471" y="319" on="0"/>
        <pt x="396" y="320" on="1"/>
        <pt x="396" y="143" on="1"/>
        <pt x="317" y="143" on="1"/>
        <pt x="317" y="566" on="1"/>
        <pt x="344" y="569" on="0"/>
        <pt x="399" y="573" on="0"/>
        <pt x="437" y="573" on="1"/>
        <pt x="516" y="573" on="0"/>
        <pt x="605" y="514" on="0"/>
        <pt x="605" y="454" on="1"/>
        <pt x="605" y="412" on="0"/>
        <pt x="559" y="362" on="0"/>
        <pt x="514" y="348" on="1"/>
        <pt x="537" y="337" on="0"/>
        <pt x="568" y="301" on="0"/>
        <pt x="582" y="272" on="1"/>
        <pt x="630" y="167" on="1"/>
      </contour>
      <contour>
        <pt x="446" y="502" on="1"/>
        <pt x="432" y="502" on="0"/>
        <pt x="407" y="501" on="0"/>
        <pt x="396" y="500" on="1"/>
        <pt x="396" y="391" on="1"/>
        <pt x="446" y="391" on="1"/>
        <pt x="482" y="391" on="0"/>
        <pt x="527" y="420" on="0"/>
        <pt x="527" y="449" on="1"/>
        <pt x="527" y="472" on="0"/>
        <pt x="485" y="502" on="0"/>
      </contour>
    </TTGlyph>
    <TTGlyph name="ring" xMin="50" yMin="582" xMax="300" yMax="822">
      <contour>
        <pt x="127" y="702" on="1"/>
        <pt x="127" y="678" on="0"/>
        <pt x="153" y="644" on="0"/>
        <pt x="175" y="644" on="1"/>
        <pt x="196" y="644" on="0"/>
        <pt x="223" y="675" on="0"/>
        <pt x="223" y="702" on="1"/>
        <pt x="223" y="725" on="0"/>
        <pt x="198" y="760" on="0"/>
        <pt x="175" y="760" on="1"/>
        <pt x="153" y="760" on="0"/>
        <pt x="127" y="731" on="0"/>
      </contour>
      <contour>
        <pt x="50" y="702" on="1"/>
        <pt x="50" y="728" on="0"/>
        <pt x="70" y="772" on="0"/>
        <pt x="104" y="804" on="0"/>
        <pt x="149" y="822" on="0"/>
        <pt x="175" y="822" on="1"/>
        <pt x="200" y="822" on="0"/>
        <pt x="246" y="804" on="0"/>
        <pt x="280" y="772" on="0"/>
        <pt x="300" y="728" on="0"/>
        <pt x="300" y="702" on="1"/>
        <pt x="300" y="676" on="0"/>
        <pt x="280" y="632" on="0"/>
        <pt x="246" y="600" on="0"/>
        <pt x="200" y="582" on="0"/>
        <pt x="175" y="582" on="1"/>
        <pt x="149" y="582" on="0"/>
        <pt x="104" y="600" on="0"/>
        <pt x="70" y="632" on="0"/>
        <pt x="50" y="676" on="0"/>
      </contour>
    </TTGlyph>
    <TTGlyph name="ring.cap" xMin="50" yMin="512" xMax="300" yMax="752">
      <contour>
        <pt x="127" y="632" on="1"/>
        <pt x="127" y="608" on="0"/>
        <pt x="153" y="574" on="0"/>
        <pt x="175" y="574" on="1"/>
        <pt x="196" y="574" on="0"/>
        <pt x="223" y="605" on="0"/>
        <pt x="223" y="632" on="1"/>
        <pt x="223" y="655" on="0"/>
        <pt x="198" y="690" on="0"/>
        <pt x="175" y="690" on="1"/>
        <pt x="153" y="690" on="0"/>
        <pt x="127" y="661" on="0"/>
      </contour>
      <contour>
        <pt x="50" y="632" on="1"/>
        <pt x="50" y="658" on="0"/>
        <pt x="70" y="702" on="0"/>
        <pt x="104" y="734" on="0"/>
        <pt x="149" y="752" on="0"/>
        <pt x="175" y="752" on="1"/>
        <pt x="200" y="752" on="0"/>
        <pt x="246" y="734" on="0"/>
        <pt x="280" y="702" on="0"/>
        <pt x="300" y="658" on="0"/>
        <pt x="300" y="632" on="1"/>
        <pt x="300" y="606" on="0"/>
        <pt x="280" y="562" on="0"/>
        <pt x="246" y="530" on="0"/>
        <pt x="200" y="512" on="0"/>
        <pt x="175" y="512" on="1"/>
        <pt x="149" y="512" on="0"/>
        <pt x="104" y="530" on="0"/>
        <pt x="70" y="562" on="0"/>
        <pt x="50" y="606" on="0"/>
      </contour>
    </TTGlyph>
    <TTGlyph name="s" xMin="35" yMin="-12" xMax="428" yMax="532">
      <contour>
        <pt x="73" y="117" on="1"/>
        <pt x="99" y="94" on="0"/>
        <pt x="178" y="66" on="0"/>
        <pt x="223" y="66" on="1"/>
        <pt x="279" y="66" on="0"/>
        <pt x="336" y="103" on="0"/>
        <pt x="336" y="132" on="1"/>
        <pt x="336" y="147" on="0"/>
        <pt x="325" y="173" on="0"/>
        <pt x="296" y="197" on="0"/>
        <pt x="246" y="220" on="0"/>
        <pt x="206" y="234" on="1"/>
        <pt x="132" y="259" on="0"/>
        <pt x="60" y="328" on="0"/>
        <pt x="60" y="389" on="1"/>
        <pt x="60" y="419" on="0"/>
        <pt x="87" y="471" on="0"/>
        <pt x="138" y="510" on="0"/>
        <pt x="211" y="532" on="0"/>
        <pt x="258" y="532" on="1"/>
        <pt x="309" y="532" on="0"/>
        <pt x="386" y="511" on="0"/>
        <pt x="417" y="495" on="1"/>
        <pt x="392" y="421" on="1"/>
        <pt x="365" y="437" on="0"/>
        <pt x="296" y="457" on="0"/>
        <pt x="254" y="457" on="1"/>
        <pt x="202" y="457" on="0"/>
        <pt x="148" y="415" on="0"/>
        <pt x="148" y="390" on="1"/>
        <pt x="148" y="378" on="0"/>
        <pt x="157" y="358" on="0"/>
        <pt x="181" y="340" on="0"/>
        <pt x="221" y="322" on="0"/>
        <pt x="251" y="312" on="1"/>
        <pt x="300" y="295" on="0"/>
        <pt x="368" y="260" on="0"/>
        <pt x="410" y="218" on="0"/>
        <pt x="428" y="169" on="0"/>
        <pt x="428" y="139" on="1"/>
        <pt x="428" y="104" on="0"/>
        <pt x="398" y="48" on="0"/>
        <pt x="344" y="9" on="0"/>
        <pt x="267" y="-12" on="0"/>
        <pt x="220" y="-12" on="1"/>
        <pt x="160" y="-12" on="0"/>
        <pt x="66" y="18" on="0"/>
        <pt x="35" y="42" on="1"/>
      </contour>
    </TTGlyph>
    <TTGlyph name="section" xMin="108" yMin="-72" xMax="491" yMax="733">
      <contour>
        <pt x="303" y="227" on="1"/>
        <pt x="349" y="241" on="0"/>
        <pt x="408" y="295" on="0"/>
        <pt x="408" y="335" on="1"/>
        <pt x="408" y="368" on="0"/>
        <pt x="362" y="420" on="0"/>
        <pt x="307" y="440" on="1"/>
        <pt x="259" y="426" on="0"/>
        <pt x="197" y="372" on="0"/>
        <pt x="197" y="332" on="1"/>
        <pt x="197" y="299" on="0"/>
        <pt x="248" y="247" on="0"/>
      </contour>
      <contour>
        <pt x="365" y="195" on="1"/>
        <pt x="422" y="170" on="0"/>
        <pt x="475" y="108" on="0"/>
        <pt x="475" y="66" on="1"/>
        <pt x="475" y="34" on="0"/>
        <pt x="447" y="-17" on="0"/>
        <pt x="395" y="-53" on="0"/>
        <pt x="323" y="-72" on="0"/>
        <pt x="280" y="-72" on="1"/>
        <pt x="178" y="-72" on="0"/>
        <pt x="108" y="-25" on="1"/>
        <pt x="144" y="43" on="1"/>
        <pt x="204" y="0" on="0"/>
        <pt x="282" y="0" on="1"/>
        <pt x="333" y="0" on="0"/>
        <pt x="390" y="31" on="0"/>
        <pt x="390" y="59" on="1"/>
        <pt x="390" y="71" on="0"/>
        <pt x="379" y="95" on="0"/>
        <pt x="352" y="120" on="0"/>
        <pt x="305" y="147" on="0"/>
        <pt x="269" y="163" on="1"/>
        <pt x="227" y="181" on="0"/>
        <pt x="168" y="215" on="0"/>
        <pt x="131" y="253" on="0"/>
        <pt x="114" y="296" on="0"/>
        <pt x="114" y="323" on="1"/>
        <pt x="114" y="374" on="0"/>
        <pt x="183" y="449" on="0"/>
        <pt x="241" y="470" on="1"/>
        <pt x="186" y="495" on="0"/>
        <pt x="132" y="553" on="0"/>
        <pt x="132" y="597" on="1"/>
        <pt x="132" y="626" on="0"/>
        <pt x="159" y="676" on="0"/>
        <pt x="208" y="712" on="0"/>
        <pt x="278" y="733" on="0"/>
        <pt x="321" y="733" on="1"/>
        <pt x="364" y="733" on="0"/>
        <pt x="448" y="708" on="0"/>
        <pt x="480" y="689" on="1"/>
        <pt x="442" y="627" on="1"/>
        <pt x="420" y="641" on="0"/>
        <pt x="354" y="666" on="0"/>
        <pt x="319" y="666" on="1"/>
        <pt x="265" y="666" on="0"/>
        <pt x="214" y="626" on="0"/>
        <pt x="214" y="604" on="1"/>
        <pt x="214" y="590" on="0"/>
        <pt x="224" y="568" on="0"/>
        <pt x="254" y="544" on="0"/>
        <pt x="307" y="516" on="0"/>
        <pt x="350" y="498" on="1"/>
        <pt x="425" y="466" on="0"/>
        <pt x="491" y="394" on="0"/>
        <pt x="491" y="344" on="1"/>
        <pt x="491" y="291" on="0"/>
        <pt x="424" y="219" on="0"/>
      </contour>
    </TTGlyph>
    <TTGlyph name="semicolon" xMin="16" yMin="-160" xMax="220" yMax="532">
      <component glyphName="comma" x="-14" y="0" flags="0x204"/>
      <component glyphName="period" x="3" y="410" flags="0x4"/>
    </TTGlyph>
    <TTGlyph name="seven" xMin="93" yMin="0" xMax="537" yMax="700">
      <contour>
        <pt x="195" y="0" on="1"/>
        <pt x="195" y="115" on="0"/>
        <pt x="226" y="293" on="0"/>
        <pt x="285" y="439" on="0"/>
        <pt x="373" y="560" on="0"/>
        <pt x="430" y="618" on="1"/>
        <pt x="93" y="618" on="1"/>
        <pt x="93" y="700" on="1"/>
        <pt x="537" y="700" on="1"/>
        <pt x="537" y="628" on="1"/>
        <pt x="468" y="561" on="0"/>
        <pt x="376" y="435" on="0"/>
        <pt x="320" y="291" on="0"/>
        <pt x="296" y="116" on="0"/>
        <pt x="296" y="0" on="1"/>
      </contour>
    </TTGlyph>
    <TTGlyph name="six" xMin="70" yMin="-12" xMax="531" yMax="702">
      <contour>
        <pt x="430" y="620" on="1"/>
        <pt x="320" y="620" on="0"/>
        <pt x="180" y="487" on="0"/>
        <pt x="164" y="371" on="1"/>
        <pt x="192" y="398" on="0"/>
        <pt x="279" y="443" on="0"/>
        <pt x="336" y="443" on="1"/>
        <pt x="378" y="443" on="0"/>
        <pt x="449" y="413" on="0"/>
        <pt x="501" y="359" on="0"/>
        <pt x="531" y="282" on="0"/>
        <pt x="531" y="234" on="1"/>
        <pt x="531" y="179" on="0"/>
        <pt x="497" y="88" on="0"/>
        <pt x="437" y="24" on="0"/>
        <pt x="353" y="-12" on="0"/>
        <pt x="304" y="-12" on="1"/>
        <pt x="256" y="-12" on="0"/>
        <pt x="171" y="23" on="0"/>
        <pt x="107" y="96" on="0"/>
        <pt x="70" y="208" on="0"/>
        <pt x="70" y="284" on="1"/>
        <pt x="70" y="369" on="0"/>
        <pt x="116" y="521" on="0"/>
        <pt x="206" y="635" on="0"/>
        <pt x="340" y="702" on="0"/>
        <pt x="429" y="702" on="1"/>
        <pt x="438" y="702" on="0"/>
        <pt x="459" y="701" on="0"/>
        <pt x="467" y="700" on="1"/>
        <pt x="467" y="618" on="1"/>
        <pt x="459" y="619" on="0"/>
        <pt x="439" y="620" on="0"/>
      </contour>
      <contour>
        <pt x="313" y="368" on="1"/>
        <pt x="269" y="368" on="0"/>
        <pt x="192" y="326" on="0"/>
        <pt x="162" y="291" on="1"/>
        <pt x="162" y="269" on="1"/>
        <pt x="163" y="222" on="0"/>
        <pt x="186" y="148" on="0"/>
        <pt x="225" y="97" on="0"/>
        <pt x="278" y="70" on="0"/>
        <pt x="308" y="70" on="1"/>
        <pt x="338" y="70" on="0"/>
        <pt x="387" y="93" on="0"/>
        <pt x="422" y="134" on="0"/>
        <pt x="441" y="190" on="0"/>
        <pt x="441" y="223" on="1"/>
        <pt x="441" y="288" on="0"/>
        <pt x="371" y="368" on="0"/>
      </contour>
    </TTGlyph>
    <TTGlyph name="slash" xMin="47" yMin="-71" xMax="403" yMax="773">
      <contour>
        <pt x="47" y="-46" on="1"/>
        <pt x="329" y="773" on="1"/>
        <pt x="403" y="748" on="1"/>
        <pt x="121" y="-71" on="1"/>
      </contour>
    </TTGlyph>
    <TTGlyph name="sterling" xMin="86" yMin="0" xMax="514" yMax="712">
      <contour>
        <pt x="514" y="0" on="1"/>
        <pt x="87" y="0" on="1"/>
        <pt x="87" y="73" on="1"/>
        <pt x="107" y="101" on="0"/>
        <pt x="135" y="152" on="0"/>
        <pt x="152" y="208" on="0"/>
        <pt x="160" y="276" on="0"/>
        <pt x="161" y="321" on="1"/>
        <pt x="86" y="321" on="1"/>
        <pt x="86" y="397" on="1"/>
        <pt x="162" y="397" on="1"/>
        <pt x="162" y="519" on="1"/>
        <pt x="162" y="610" on="0"/>
        <pt x="260" y="712" on="0"/>
        <pt x="344" y="712" on="1"/>
        <pt x="398" y="712" on="0"/>
        <pt x="472" y="685" on="0"/>
        <pt x="499" y="669" on="1"/>
        <pt x="469" y="598" on="1"/>
        <pt x="445" y="613" on="0"/>
        <pt x="386" y="636" on="0"/>
        <pt x="353" y="636" on="1"/>
        <pt x="331" y="636" on="0"/>
        <pt x="293" y="622" on="0"/>
        <pt x="264" y="592" on="0"/>
        <pt x="248" y="543" on="0"/>
        <pt x="248" y="508" on="1"/>
        <pt x="248" y="397" on="1"/>
        <pt x="416" y="397" on="1"/>
        <pt x="416" y="321" on="1"/>
        <pt x="247" y="321" on="1"/>
        <pt x="246" y="276" on="0"/>
        <pt x="237" y="206" on="0"/>
        <pt x="220" y="150" on="0"/>
        <pt x="197" y="104" on="0"/>
        <pt x="182" y="83" on="1"/>
        <pt x="514" y="83" on="1"/>
      </contour>
    </TTGlyph>
    <TTGlyph name="t" xMin="10" yMin="-12" xMax="387" yMax="665">
      <contour>
        <pt x="121" y="665" on="1"/>
        <pt x="190" y="665" on="1"/>
        <pt x="190" y="501" on="1"/>
        <pt x="334" y="501" on="1"/>
        <pt x="334" y="423" on="1"/>
        <pt x="190" y="423" on="1"/>
        <pt x="190" y="172" on="1"/>
        <pt x="190" y="143" on="0"/>
        <pt x="203" y="103" on="0"/>
        <pt x="225" y="79" on="0"/>
        <pt x="256" y="68" on="0"/>
        <pt x="273" y="68" on="1"/>
        <pt x="298" y="68" on="0"/>
        <pt x="342" y="84" on="0"/>
        <pt x="362" y="95" on="1"/>
        <pt x="387" y="23" on="1"/>
        <pt x="367" y="11" on="0"/>
        <pt x="299" y="-12" on="0"/>
        <pt x="262" y="-12" on="1"/>
        <pt x="187" y="-12" on="0"/>
        <pt x="100" y="86" on="0"/>
        <pt x="100" y="179" on="1"/>
        <pt x="100" y="423" on="1"/>
        <pt x="10" y="423" on="1"/>
        <pt x="10" y="501" on="1"/>
        <pt x="102" y="501" on="1"/>
      </contour>
    </TTGlyph>
    <TTGlyph name="thorn" xMin="80" yMin="-220" xMax="549" yMax="700">
      <contour>
        <pt x="80" y="-220" on="1"/>
        <pt x="80" y="700" on="1"/>
        <pt x="170" y="700" on="1"/>
        <pt x="170" y="466" on="1"/>
        <pt x="180" y="477" on="0"/>
        <pt x="210" y="501" on="0"/>
        <pt x="247" y="520" on="0"/>
        <pt x="293" y="532" on="0"/>
        <pt x="320" y="532" on="1"/>
        <pt x="365" y="532" on="0"/>
        <pt x="448" y="496" on="0"/>
        <pt x="511" y="428" on="0"/>
        <pt x="549" y="328" on="0"/>
        <pt x="549" y="265" on="1"/>
        <pt x="549" y="203" on="0"/>
        <pt x="512" y="101" on="0"/>
        <pt x="449" y="28" on="0"/>
        <pt x="367" y="-12" on="0"/>
        <pt x="322" y="-12" on="1"/>
        <pt x="275" y="-12" on="0"/>
        <pt x="196" y="25" on="0"/>
        <pt x="170" y="49" on="1"/>
        <pt x="170" y="-220" on="1"/>
      </contour>
      <contour>
        <pt x="457" y="262" on="1"/>
        <pt x="457" y="307" on="0"/>
        <pt x="432" y="378" on="0"/>
        <pt x="389" y="428" on="0"/>
        <pt x="332" y="454" on="0"/>
        <pt x="300" y="454" on="1"/>
        <pt x="257" y="454" on="0"/>
        <pt x="188" y="411" on="0"/>
        <pt x="170" y="386" on="1"/>
        <pt x="170" y="130" on="1"/>
        <pt x="196" y="103" on="0"/>
        <pt x="263" y="68" on="0"/>
        <pt x="304" y="68" on="1"/>
        <pt x="338" y="68" on="0"/>
        <pt x="394" y="96" on="0"/>
        <pt x="435" y="147" on="0"/>
        <pt x="457" y="218" on="0"/>
      </contour>
    </TTGlyph>
    <TTGlyph name="three" xMin="64" yMin="-12" xMax="496" yMax="712">
      <contour>
        <pt x="259" y="-12" on="1"/>
        <pt x="193" y="-12" on="0"/>
        <pt x="98" y="23" on="0"/>
        <pt x="64" y="48" on="1"/>
        <pt x="105" y="123" on="1"/>
        <pt x="133" y="102" on="0"/>
        <pt x="206" y="70" on="0"/>
        <pt x="260" y="70" on="1"/>
        <pt x="326" y="70" on="0"/>
        <pt x="403" y="139" on="0"/>
        <pt x="403" y="192" on="1"/>
        <pt x="403" y="219" on="0"/>
        <pt x="381" y="269" on="0"/>
        <pt x="334" y="306" on="0"/>
        <pt x="263" y="328" on="0"/>
        <pt x="214" y="328" on="1"/>
        <pt x="158" y="328" on="1"/>
        <pt x="158" y="401" on="1"/>
        <pt x="210" y="401" on="1"/>
        <pt x="254" y="401" on="0"/>
        <pt x="320" y="422" on="0"/>
        <pt x="363" y="458" on="0"/>
        <pt x="384" y="503" on="0"/>
        <pt x="384" y="527" on="1"/>
        <pt x="384" y="574" on="0"/>
        <pt x="313" y="632" on="0"/>
        <pt x="261" y="632" on="1"/>
        <pt x="213" y="632" on="0"/>
        <pt x="141" y="601" on="0"/>
        <pt x="118" y="582" on="1"/>
        <pt x="81" y="653" on="1"/>
        <pt x="111" y="673" on="0"/>
        <pt x="205" y="712" on="0"/>
        <pt x="268" y="712" on="1"/>
        <pt x="317" y="712" on="0"/>
        <pt x="394" y="684" on="0"/>
        <pt x="447" y="636" on="0"/>
        <pt x="475" y="573" on="0"/>
        <pt x="475" y="539" on="1"/>
        <pt x="475" y="479" on="0"/>
        <pt x="416" y="400" on="0"/>
        <pt x="362" y="374" on="1"/>
        <pt x="425" y="350" on="0"/>
        <pt x="496" y="258" on="0"/>
        <pt x="496" y="195" on="1"/>
        <pt x="496" y="156" on="0"/>
        <pt x="467" y="81" on="0"/>
        <pt x="409" y="23" on="0"/>
        <pt x="319" y="-12" on="0"/>
      </contour>
    </TTGlyph>
    <TTGlyph name="threequarters" xMin="48" yMin="-40" xMax="852" yMax="740">
      <contour>
        <pt x="718" y="87" on="1"/>
        <pt x="518" y="87" on="1"/>
        <pt x="518" y="139" on="1"/>
        <pt x="662" y="430" on="1"/>
        <pt x="733" y="404" on="1"/>
        <pt x="610" y="153" on="1"/>
        <pt x="718" y="153" on="1"/>
        <pt x="718" y="267" on="1"/>
        <pt x="795" y="267" on="1"/>
        <pt x="795" y="153" on="1"/>
        <pt x="852" y="153" on="1"/>
        <pt x="852" y="87" on="1"/>
        <pt x="795" y="87" on="1"/>
        <pt x="795" y="0" on="1"/>
        <pt x="718" y="0" on="1"/>
      </contour>
      <contour>
        <pt x="219" y="-2" on="1"/>
        <pt x="656" y="740" on="1"/>
        <pt x="716" y="702" on="1"/>
        <pt x="279" y="-40" on="1"/>
      </contour>
      <contour>
        <pt x="182" y="270" on="1"/>
        <pt x="144" y="270" on="0"/>
        <pt x="75" y="292" on="0"/>
        <pt x="48" y="309" on="1"/>
        <pt x="86" y="368" on="1"/>
        <pt x="107" y="355" on="0"/>
        <pt x="156" y="336" on="0"/>
        <pt x="182" y="336" on="1"/>
        <pt x="227" y="336" on="0"/>
        <pt x="275" y="372" on="0"/>
        <pt x="275" y="398" on="1"/>
        <pt x="275" y="426" on="0"/>
        <pt x="219" y="467" on="0"/>
        <pt x="158" y="467" on="1"/>
        <pt x="112" y="467" on="1"/>
        <pt x="112" y="528" on="1"/>
        <pt x="155" y="528" on="1"/>
        <pt x="184" y="528" on="0"/>
        <pt x="225" y="540" on="0"/>
        <pt x="250" y="558" on="0"/>
        <pt x="262" y="580" on="0"/>
        <pt x="262" y="591" on="1"/>
        <pt x="262" y="613" on="0"/>
        <pt x="217" y="643" on="0"/>
        <pt x="185" y="643" on="1"/>
        <pt x="159" y="643" on="0"/>
        <pt x="114" y="624" on="0"/>
        <pt x="96" y="611" on="1"/>
        <pt x="60" y="670" on="1"/>
        <pt x="84" y="684" on="0"/>
        <pt x="150" y="707" on="0"/>
        <pt x="188" y="707" on="1"/>
        <pt x="225" y="707" on="0"/>
        <pt x="283" y="688" on="0"/>
        <pt x="322" y="658" on="0"/>
        <pt x="343" y="618" on="0"/>
        <pt x="343" y="597" on="1"/>
        <pt x="343" y="564" on="0"/>
        <pt x="315" y="519" on="0"/>
        <pt x="283" y="503" on="1"/>
        <pt x="318" y="487" on="0"/>
        <pt x="356" y="434" on="0"/>
        <pt x="356" y="400" on="1"/>
        <pt x="356" y="376" on="0"/>
        <pt x="336" y="329" on="0"/>
        <pt x="293" y="292" on="0"/>
        <pt x="227" y="270" on="0"/>
      </contour>
    </TTGlyph>
    <TTGlyph name="threesuperior" xMin="71" yMin="270" xMax="379" yMax="707">
      <contour>
        <pt x="205" y="270" on="1"/>
        <pt x="167" y="270" on="0"/>
        <pt x="98" y="292" on="0"/>
        <pt x="71" y="309" on="1"/>
        <pt x="109" y="368" on="1"/>
        <pt x="130" y="355" on="0"/>
        <pt x="179" y="336" on="0"/>
        <pt x="205" y="336" on="1"/>
        <pt x="250" y="336" on="0"/>
        <pt x="298" y="372" on="0"/>
        <pt x="298" y="398" on="1"/>
        <pt x="298" y="426" on="0"/>
        <pt x="242" y="467" on="0"/>
        <pt x="181" y="467" on="1"/>
        <pt x="135" y="467" on="1"/>
        <pt x="135" y="528" on="1"/>
        <pt x="178" y="528" on="1"/>
        <pt x="207" y="528" on="0"/>
        <pt x="248" y="540" on="0"/>
        <pt x="273" y="558" on="0"/>
        <pt x="285" y="580" on="0"/>
        <pt x="285" y="591" on="1"/>
        <pt x="285" y="613" on="0"/>
        <pt x="240" y="643" on="0"/>
        <pt x="208" y="643" on="1"/>
        <pt x="182" y="643" on="0"/>
        <pt x="137" y="624" on="0"/>
        <pt x="119" y="611" on="1"/>
        <pt x="83" y="670" on="1"/>
        <pt x="107" y="684" on="0"/>
        <pt x="173" y="707" on="0"/>
        <pt x="211" y="707" on="1"/>
        <pt x="248" y="707" on="0"/>
        <pt x="306" y="688" on="0"/>
        <pt x="345" y="658" on="0"/>
        <pt x="366" y="618" on="0"/>
        <pt x="366" y="597" on="1"/>
        <pt x="366" y="564" on="0"/>
        <pt x="338" y="519" on="0"/>
        <pt x="306" y="503" on="1"/>
        <pt x="341" y="487" on="0"/>
        <pt x="379" y="434" on="0"/>
        <pt x="379" y="400" on="1"/>
        <pt x="379" y="376" on="0"/>
        <pt x="359" y="329" on="0"/>
        <pt x="316" y="292" on="0"/>
        <pt x="250" y="270" on="0"/>
      </contour>
    </TTGlyph>
    <TTGlyph name="tilde" xMin="50" yMin="608" xMax="373" yMax="722">
      <contour>
        <pt x="373" y="656" on="1"/>
        <pt x="355" y="639" on="0"/>
        <pt x="308" y="610" on="0"/>
        <pt x="277" y="610" on="1"/>
        <pt x="257" y="610" on="0"/>
        <pt x="228" y="621" on="0"/>
        <pt x="202" y="633" on="0"/>
        <pt x="175" y="644" on="0"/>
        <pt x="158" y="644" on="1"/>
        <pt x="136" y="644" on="0"/>
        <pt x="100" y="622" on="0"/>
        <pt x="85" y="608" on="1"/>
        <pt x="50" y="670" on="1"/>
        <pt x="68" y="690" on="0"/>
        <pt x="124" y="722" on="0"/>
        <pt x="154" y="722" on="1"/>
        <pt x="173" y="722" on="0"/>
        <pt x="202" y="711" on="0"/>
        <pt x="227" y="699" on="0"/>
        <pt x="253" y="688" on="0"/>
        <pt x="269" y="688" on="1"/>
        <pt x="291" y="688" on="0"/>
        <pt x="325" y="707" on="0"/>
        <pt x="338" y="719" on="1"/>
      </contour>
    </TTGlyph>
    <TTGlyph name="tilde.cap" xMin="50" yMin="578" xMax="373" yMax="692">
      <contour>
        <pt x="373" y="626" on="1"/>
        <pt x="355" y="609" on="0"/>
        <pt x="308" y="580" on="0"/>
        <pt x="277" y="580" on="1"/>
        <pt x="257" y="580" on="0"/>
        <pt x="228" y="591" on="0"/>
        <pt x="202" y="603" on="0"/>
        <pt x="175" y="614" on="0"/>
        <pt x="158" y="614" on="1"/>
        <pt x="136" y="614" on="0"/>
        <pt x="100" y="592" on="0"/>
        <pt x="85" y="578" on="1"/>
        <pt x="50" y="640" on="1"/>
        <pt x="68" y="660" on="0"/>
        <pt x="124" y="692" on="0"/>
        <pt x="154" y="692" on="1"/>
        <pt x="173" y="692" on="0"/>
        <pt x="202" y="681" on="0"/>
        <pt x="227" y="669" on="0"/>
        <pt x="253" y="658" on="0"/>
        <pt x="269" y="658" on="1"/>
        <pt x="291" y="658" on="0"/>
        <pt x="325" y="677" on="0"/>
        <pt x="338" y="689" on="1"/>
      </contour>
    </TTGlyph>
    <TTGlyph name="two" xMin="85" yMin="0" xMax="495" yMax="712">
      <contour>
        <pt x="88" y="0" on="1"/>
        <pt x="85" y="18" on="0"/>
        <pt x="85" y="37" on="1"/>
        <pt x="85" y="101" on="0"/>
        <pt x="132" y="205" on="0"/>
        <pt x="202" y="290" on="0"/>
        <pt x="283" y="363" on="0"/>
        <pt x="353" y="430" on="0"/>
        <pt x="400" y="497" on="0"/>
        <pt x="400" y="535" on="1"/>
        <pt x="400" y="577" on="0"/>
        <pt x="338" y="632" on="0"/>
        <pt x="289" y="632" on="1"/>
        <pt x="247" y="632" on="0"/>
        <pt x="178" y="599" on="0"/>
        <pt x="148" y="571" on="1"/>
        <pt x="98" y="632" on="1"/>
        <pt x="138" y="668" on="0"/>
        <pt x="235" y="712" on="0"/>
        <pt x="299" y="712" on="1"/>
        <pt x="343" y="712" on="0"/>
        <pt x="416" y="686" on="0"/>
        <pt x="467" y="639" on="0"/>
        <pt x="495" y="577" on="0"/>
        <pt x="495" y="541" on="1"/>
        <pt x="495" y="493" on="0"/>
        <pt x="452" y="412" on="0"/>
        <pt x="387" y="339" on="0"/>
        <pt x="310" y="272" on="0"/>
        <pt x="242" y="202" on="0"/>
        <pt x="191" y="126" on="0"/>
        <pt x="186" y="82" on="1"/>
        <pt x="494" y="82" on="1"/>
        <pt x="494" y="0" on="1"/>
      </contour>
    </TTGlyph>
    <TTGlyph name="twosuperior" xMin="78" yMin="276" xMax="372" yMax="707">
      <contour>
        <pt x="80" y="276" on="1"/>
        <pt x="79" y="284" on="0"/>
        <pt x="78" y="301" on="0"/>
        <pt x="78" y="312" on="1"/>
        <pt x="78" y="349" on="0"/>
        <pt x="109" y="409" on="0"/>
        <pt x="156" y="458" on="0"/>
        <pt x="211" y="499" on="0"/>
        <pt x="258" y="537" on="0"/>
        <pt x="289" y="573" on="0"/>
        <pt x="289" y="592" on="1"/>
        <pt x="289" y="613" on="0"/>
        <pt x="253" y="642" on="0"/>
        <pt x="226" y="642" on="1"/>
        <pt x="199" y="642" on="0"/>
        <pt x="153" y="621" on="0"/>
        <pt x="130" y="602" on="1"/>
        <pt x="83" y="652" on="1"/>
        <pt x="115" y="678" on="0"/>
        <pt x="189" y="707" on="0"/>
        <pt x="234" y="707" on="1"/>
        <pt x="297" y="707" on="0"/>
        <pt x="371" y="644" on="0"/>
        <pt x="371" y="597" on="1"/>
        <pt x="371" y="569" on="0"/>
        <pt x="343" y="522" on="0"/>
        <pt x="301" y="482" on="0"/>
        <pt x="251" y="445" on="0"/>
        <pt x="206" y="407" on="0"/>
        <pt x="172" y="367" on="0"/>
        <pt x="168" y="343" on="1"/>
        <pt x="372" y="343" on="1"/>
        <pt x="372" y="276" on="1"/>
      </contour>
    </TTGlyph>
    <TTGlyph name="u" xMin="75" yMin="-12" xMax="564" yMax="520">
      <contour>
        <pt x="545" y="-5" on="1"/>
        <pt x="497" y="-5" on="0"/>
        <pt x="441" y="33" on="0"/>
        <pt x="430" y="69" on="1"/>
        <pt x="395" y="33" on="0"/>
        <pt x="304" y="-12" on="0"/>
        <pt x="250" y="-12" on="1"/>
        <pt x="216" y="-12" on="0"/>
        <pt x="153" y="9" on="0"/>
        <pt x="104" y="55" on="0"/>
        <pt x="75" y="129" on="0"/>
        <pt x="75" y="182" on="1"/>
        <pt x="75" y="520" on="1"/>
        <pt x="165" y="520" on="1"/>
        <pt x="165" y="194" on="1"/>
        <pt x="165" y="133" on="0"/>
        <pt x="216" y="68" on="0"/>
        <pt x="267" y="68" on="1"/>
        <pt x="309" y="68" on="0"/>
        <pt x="385" y="101" on="0"/>
        <pt x="415" y="129" on="1"/>
        <pt x="415" y="520" on="1"/>
        <pt x="505" y="520" on="1"/>
        <pt x="505" y="135" on="1"/>
        <pt x="505" y="113" on="0"/>
        <pt x="515" y="86" on="0"/>
        <pt x="531" y="71" on="0"/>
        <pt x="553" y="65" on="0"/>
        <pt x="564" y="65" on="1"/>
      </contour>
    </TTGlyph>
    <TTGlyph name="uacute" xMin="75" yMin="-12" xMax="564" yMax="761">
      <component glyphName="u" x="0" y="0" flags="0x204"/>
      <component glyphName="acute" x="151" y="0" flags="0x4"/>
    </TTGlyph>
    <TTGlyph name="ucircumflex" xMin="75" yMin="-12" xMax="564" yMax="740">
      <component glyphName="u" x="0" y="0" flags="0x204"/>
      <component glyphName="circumflex" x="66" y="0" flags="0x4"/>
    </TTGlyph>
    <TTGlyph name="udieresis" xMin="75" yMin="-12" xMax="564" yMax="727">
      <component glyphName="u" x="0" y="0" flags="0x204"/>
      <component glyphName="dieresis" x="93" y="0" flags="0x4"/>
    </TTGlyph>
    <TTGlyph name="ugrave" xMin="75" yMin="-12" xMax="564" yMax="761">
      <component glyphName="u" x="0" y="0" flags="0x204"/>
      <component glyphName="grave" x="128" y="0" flags="0x4"/>
    </TTGlyph>
    <TTGlyph name="underscore" xMin="0" yMin="-115" xMax="600" yMax="-55">
      <contour>
        <pt x="0" y="-55" on="1"/>
        <pt x="600" y="-55" on="1"/>
        <pt x="600" y="-115" on="1"/>
        <pt x="0" y="-115" on="1"/>
      </contour>
    </TTGlyph>
    <TTGlyph name="uni00AD" xMin="130" yMin="302" xMax="470" yMax="384">
      <contour>
        <pt x="130" y="302" on="1"/>
        <pt x="130" y="384" on="1"/>
        <pt x="470" y="384" on="1"/>
        <pt x="470" y="302" on="1"/>
      </contour>
    </TTGlyph>
    <TTGlyph name="v" xMin="10" yMin="0" xMax="523" yMax="530">
      <contour>
        <pt x="10" y="496" on="1"/>
        <pt x="92" y="530" on="1"/>
        <pt x="269" y="102" on="1"/>
        <pt x="446" y="530" on="1"/>
        <pt x="523" y="496" on="1"/>
        <pt x="313" y="0" on="1"/>
        <pt x="219" y="0" on="1"/>
      </contour>
    </TTGlyph>
    <TTGlyph name="w" xMin="25" yMin="0" xMax="793" yMax="525">
      <contour>
        <pt x="713" y="525" on="1"/>
        <pt x="793" y="496" on="1"/>
        <pt x="628" y="0" on="1"/>
        <pt x="529" y="0" on="1"/>
        <pt x="409" y="387" on="1"/>
        <pt x="288" y="0" on="1"/>
        <pt x="189" y="0" on="1"/>
        <pt x="25" y="496" on="1"/>
        <pt x="108" y="525" on="1"/>
        <pt x="242" y="102" on="1"/>
        <pt x="364" y="483" on="1"/>
        <pt x="461" y="483" on="1"/>
        <pt x="580" y="102" on="1"/>
      </contour>
    </TTGlyph>
    <TTGlyph name="x" xMin="10" yMin="-9" xMax="490" yMax="531">
      <contour>
        <pt x="195" y="264" on="1"/>
        <pt x="17" y="470" on="1"/>
        <pt x="87" y="531" on="1"/>
        <pt x="248" y="323" on="1"/>
        <pt x="406" y="527" on="1"/>
        <pt x="473" y="470" on="1"/>
        <pt x="300" y="268" on="1"/>
        <pt x="490" y="49" on="1"/>
        <pt x="422" y="-9" on="1"/>
        <pt x="247" y="208" on="1"/>
        <pt x="74" y="-7" on="1"/>
        <pt x="10" y="49" on="1"/>
      </contour>
    </TTGlyph>
    <TTGlyph name="y" xMin="5" yMin="-232" xMax="513" yMax="532">
      <contour>
        <pt x="93" y="-232" on="1"/>
        <pt x="63" y="-232" on="0"/>
        <pt x="18" y="-220" on="0"/>
        <pt x="5" y="-212" on="1"/>
        <pt x="25" y="-137" on="1"/>
        <pt x="37" y="-144" on="0"/>
        <pt x="72" y="-154" on="0"/>
        <pt x="95" y="-154" on="1"/>
        <pt x="116" y="-154" on="0"/>
        <pt x="153" y="-142" on="0"/>
        <pt x="187" y="-112" on="0"/>
        <pt x="218" y="-60" on="0"/>
        <pt x="233" y="-21" on="1"/>
        <pt x="256" y="39" on="1"/>
        <pt x="208" y="39" on="1"/>
        <pt x="5" y="496" on="1"/>
        <pt x="85" y="532" on="1"/>
        <pt x="279" y="99" on="1"/>
        <pt x="430" y="528" on="1"/>
        <pt x="513" y="496" on="1"/>
        <pt x="322" y="-26" on="1"/>
        <pt x="300" y="-86" on="0"/>
        <pt x="251" y="-165" on="0"/>
        <pt x="195" y="-213" on="0"/>
        <pt x="130" y="-232" on="0"/>
      </contour>
    </TTGlyph>
    <TTGlyph name="yacute" xMin="5" yMin="-232" xMax="513" yMax="761">
      <component glyphName="y" x="0" y="0" flags="0x204"/>
      <component glyphName="acute" x="130" y="0" flags="0x4"/>
    </TTGlyph>
    <TTGlyph name="ydieresis" xMin="5" yMin="-232" xMax="513" yMax="727">
      <component glyphName="y" x="0" y="0" flags="0x204"/>
      <component glyphName="dieresis" x="68" y="0" flags="0x4"/>
    </TTGlyph>
    <TTGlyph name="yen" xMin="16" yMin="0" xMax="585" yMax="709">
      <contour>
        <pt x="305" y="351" on="1"/>
        <pt x="510" y="705" on="1"/>
        <pt x="585" y="661" on="1"/>
        <pt x="389" y="339" on="1"/>
        <pt x="506" y="339" on="1"/>
        <pt x="506" y="266" on="1"/>
        <pt x="349" y="266" on="1"/>
        <pt x="349" y="199" on="1"/>
        <pt x="506" y="199" on="1"/>
        <pt x="506" y="126" on="1"/>
        <pt x="349" y="126" on="1"/>
        <pt x="349" y="0" on="1"/>
        <pt x="254" y="0" on="1"/>
        <pt x="254" y="126" on="1"/>
        <pt x="96" y="126" on="1"/>
        <pt x="96" y="199" on="1"/>
        <pt x="254" y="199" on="1"/>
        <pt x="254" y="266" on="1"/>
        <pt x="96" y="266" on="1"/>
        <pt x="96" y="339" on="1"/>
        <pt x="213" y="339" on="1"/>
        <pt x="16" y="661" on="1"/>
        <pt x="96" y="709" on="1"/>
      </contour>
    </TTGlyph>
    <TTGlyph name="z" xMin="35" yMin="0" xMax="437" yMax="520">
      <contour>
        <pt x="41" y="520" on="1"/>
        <pt x="432" y="520" on="1"/>
        <pt x="432" y="451" on="1"/>
        <pt x="146" y="80" on="1"/>
        <pt x="437" y="80" on="1"/>
        <pt x="437" y="0" on="1"/>
        <pt x="35" y="0" on="1"/>
        <pt x="35" y="71" on="1"/>
        <pt x="322" y="442" on="1"/>
        <pt x="41" y="442" on="1"/>
      </contour>
    </TTGlyph>
</ttFont>
